<svg xmlns="http://www.w3.org/2000/svg" xmlns:xlink="http://www.w3.org/1999/xlink" width="257" height="257" viewBox="0 0 257 257">
    <defs>
        <path id="a" d="M242.77 127.664c7.258.908 12.731 7.11 12.731 14.424v25.16c0 7.314-5.473 13.515-12.731 14.424l-10.373 1.299c-4.526 12.626-12.172 23.867-22.304 32.778v25.282c0 7.98-6.491 14.47-14.47 14.47h-28.947c-7.978 0-14.47-6.49-14.47-14.47v-5.522h-31.944v5.522c0 7.98-6.492 14.47-14.47 14.47H76.843c-7.978 0-14.47-6.49-14.47-14.47V224.46a79.324 79.324 0 0 1-38.355-77.722h-1.812C9.962 146.738 0 136.777 0 124.532s9.962-22.207 22.207-22.207a4.99 4.99 0 0 1 0 9.98c-6.742 0-12.226 5.485-12.226 12.227 0 6.741 5.484 12.226 12.226 12.226h3.656c8.686-34.384 39.877-59.908 76.92-59.908h6.254a4.99 4.99 0 0 1 0 9.98h-6.253c-38.24 0-69.35 31.11-69.35 69.35a69.358 69.358 0 0 0 36.312 60.989 4.99 4.99 0 0 1 2.61 4.385v19.477a4.495 4.495 0 0 0 4.489 4.49h28.947a4.495 4.495 0 0 0 4.49-4.49v-10.513a4.99 4.99 0 0 1 4.99-4.99h41.925a4.99 4.99 0 0 1 4.99 4.99v10.513a4.495 4.495 0 0 0 4.49 4.49h28.947a4.495 4.495 0 0 0 4.49-4.49v-27.583a4.99 4.99 0 0 1 1.806-3.843c10.381-8.601 17.983-19.905 21.983-32.687a4.99 4.99 0 0 1 4.143-3.461l13.485-1.688a4.564 4.564 0 0 0 3.99-4.522v-25.159a4.564 4.564 0 0 0-3.99-4.521l-14.552-1.822a4.99 4.99 0 0 1-4.07-3.248 69.449 69.449 0 0 0-14.996-24.22 4.977 4.977 0 0 1-1.211-1.244c-8.932-8.914-20.263-15.338-32.966-18.342a4.99 4.99 0 1 1 2.297-9.713 78.482 78.482 0 0 1 10.912 3.451c5.016-13.056 17.766-21.958 31.914-21.958h1.108a4.992 4.992 0 0 1 4.854 6.137l-8.522 36.106c6.292 6.9 11.355 14.876 14.88 23.498l11.591 1.452zm-34.852-32.89l5.598-23.717c-8.02 1.84-14.745 7.735-17.502 15.657a79.575 79.575 0 0 1 11.904 8.06zm-9.271 31.944a5.028 5.028 0 0 1 1.463 3.528c0 1.312-.535 2.6-1.463 3.528a5.026 5.026 0 0 1-3.528 1.462c-1.312 0-2.599-.534-3.528-1.462a5.026 5.026 0 0 1-1.462-3.528c0-1.313.534-2.6 1.462-3.528a5.028 5.028 0 0 1 3.528-1.463c1.313 0 2.6.534 3.528 1.463zM146.335 29.11a4.99 4.99 0 0 1 4.99 4.99v19.794a4.99 4.99 0 0 1-9.98 0V34.1a4.99 4.99 0 0 1 4.99-4.99zm3.527-16.644a5.037 5.037 0 0 1 1.463 3.528c0 1.312-.535 2.6-1.463 3.528a5.026 5.026 0 0 1-3.527 1.462c-1.313 0-2.6-.534-3.528-1.462a5.017 5.017 0 0 1-1.463-3.528c0-1.313.534-2.6 1.463-3.528a5.027 5.027 0 0 1 3.528-1.462c1.312 0 2.6.533 3.527 1.462zM105.793 0a4.99 4.99 0 0 1 4.99 4.99v8.484a4.99 4.99 0 0 1-9.98 0V4.99a4.99 4.99 0 0 1 4.99-4.99zM56.858 156.18v.202a4.991 4.991 0 0 1-4.959 5.022h-.031a4.99 4.99 0 0 1-4.99-4.96v-.265a4.99 4.99 0 0 1 9.98 0zm22.09 39.264a4.99 4.99 0 0 1-5.189 8.526c-10.552-6.422-18.79-16.292-23.197-27.793a4.99 4.99 0 1 1 9.32-3.571c3.62 9.448 10.39 17.559 19.065 22.838zm26.845-171.465c11.557 0 20.96 9.402 20.96 20.96 0 11.556-9.403 20.958-20.96 20.958s-20.959-9.402-20.959-20.959 9.402-20.959 20.96-20.959zm0 31.938c6.054 0 10.979-4.925 10.979-10.979 0-6.053-4.925-10.978-10.979-10.978-6.053 0-10.978 4.925-10.978 10.978 0 6.054 4.925 10.979 10.978 10.979zm62.878 49.876a4.99 4.99 0 1 1 0 9.98h-64.874a4.99 4.99 0 0 1 0-9.98h24.694a20.824 20.824 0 0 1-3.115-10.978c0-11.557 9.402-20.96 20.96-20.96 11.556 0 20.958 9.403 20.958 20.96 0 4.023-1.142 7.783-3.115 10.978h4.492zm-22.336 0c6.053 0 10.979-4.925 10.979-10.978 0-6.054-4.925-10.979-10.979-10.979-6.053 0-10.978 4.925-10.978 10.979 0 6.053 4.925 10.978 10.978 10.978z"/>
    </defs>
    <g fill="none" fill-rule="evenodd">
        <mask id="b" fill="#017ace">
            <use xlink:href="#a"/>
        </mask>
        <use fill="#017ace" fill-rule="nonzero" xlink:href="#a"/>
        <path fill="#017ace" d="M0 0h256v256H0z" mask="url(#b)"/>
    </g>
</svg>
