<svg xmlns="http://www.w3.org/2000/svg" xmlns:xlink="http://www.w3.org/1999/xlink" width="256" height="256" viewBox="0 0 256 256">
    <defs>
        <path id="a" d="M55.898 232.549a4.994 4.994 0 0 1-1.912-.385 4.903 4.903 0 0 1-.868-.46 4.841 4.841 0 0 1-1.384-1.379 5.014 5.014 0 0 1-.46-.866 5.016 5.016 0 0 1-.286-.936 4.818 4.818 0 0 1-.102-.974c0-.324.036-.654.102-.98a5.23 5.23 0 0 1 .286-.934c.125-.301.28-.59.46-.862a5.025 5.025 0 0 1 1.384-1.385c.27-.179.56-.335.868-.46.299-.125.614-.219.935-.283a5.082 5.082 0 0 1 4.526 1.369c.231.23.437.484.621.76a4.997 4.997 0 0 1 .748 1.794c.065.327.094.657.094.98a4.953 4.953 0 0 1-.842 2.776c-.184.274-.39.53-.62.76a5.071 5.071 0 0 1-3.55 1.465zM188.03 66.299c14.086 0 25.544 11.414 25.544 25.443v71.617c0 2.762-2.245 5-5.011 5h-14.6l-7.746 83.104a5.007 5.007 0 0 1-4.99 4.537h-47.104a5.006 5.006 0 0 1-4.99-4.537l-7.749-83.104H92.19l-7.749 83.104a5.007 5.007 0 0 1-4.99 4.537H32.347a5.006 5.006 0 0 1-4.99-4.537l-7.749-83.104H5.012a5.005 5.005 0 0 1-5.012-5V91.742C0 77.712 11.46 66.3 25.546 66.3h4.516C22.4 59.32 17.586 49.287 17.586 38.156 17.586 17.117 34.773 0 55.9 0c21.126 0 38.314 17.117 38.314 38.156 0 11.131-4.814 21.162-12.478 28.143h4.518c8.407 0 15.875 4.064 20.533 10.322 4.659-6.258 12.13-10.322 20.534-10.322h4.518c-7.664-6.979-12.478-17.012-12.478-28.143C119.36 17.117 136.55 0 157.675 0c21.128 0 38.314 17.117 38.314 38.158 0 11.13-4.814 21.162-12.478 28.14h4.518zm-58.645-28.143c0 15.518 12.692 28.143 28.291 28.143s28.29-12.625 28.29-28.143c0-15.525-12.691-28.156-28.29-28.156-15.599 0-28.29 12.63-28.29 28.156zM127.321 76.3c-8.557 0-15.52 6.928-15.52 15.443v4.84h12.828a5.005 5.005 0 0 1 5.012 5v42.582h56.068v-42.582c0-2.762 2.246-5 5.012-5h12.83v-4.84c0-8.515-6.963-15.443-15.522-15.443h-60.708zM27.609 38.156C27.61 53.674 40.301 66.3 55.9 66.3c15.601 0 28.293-12.625 28.293-28.143C84.193 22.631 71.5 10 55.9 10c-15.599 0-28.29 12.63-28.29 28.156zM10.025 91.742v4.838h12.83a5.007 5.007 0 0 1 5.01 5v42.584h56.071V101.58c0-2.76 2.244-5 5.012-5h12.829v-4.838c0-8.517-6.964-15.443-15.523-15.443H25.548c-8.56 0-15.523 6.928-15.523 15.443zm0 66.617h8.653l-.808-8.675c-.002-.016-.004-.032-.004-.045l-.002-.012v-.004l-.01-.113-.002-.033-.004-.09-.002-.055c-.002-.023-.002-.045-.002-.068l-.002-.067V106.58h-7.817v51.78zM74.885 246l8.562-91.836H60.912v55.943c0 2.76-2.244 5-5.012 5a5.007 5.007 0 0 1-5.012-5v-55.943H28.353L36.914 246h37.972zm19.047-96.316l-.808 8.675h8.653V106.58H93.96v42.584l-.002.033v.067l-.002.068-.002.055-.004.09-.004.033c-.002.037-.004.076-.008.113v.004l-.002.012a.38.38 0 0 1-.004.045zm17.868 8.675h8.653l-.808-8.675a.38.38 0 0 1-.004-.045l-.002-.012v-.004a2.21 2.21 0 0 1-.01-.113l-.002-.033-.004-.09-.002-.055c-.002-.023-.002-.045-.002-.068l-.002-.067V106.58H111.8v51.78zM176.66 246l8.562-91.836h-22.535v55.943c0 2.76-2.244 5-5.012 5a5.008 5.008 0 0 1-5.012-5v-55.943h-22.535L138.69 246h37.972zm26.89-87.64v-51.78h-7.817v42.615c-.002.024-.002.045-.002.069l-.002.068-.002.055-.004.088c-.002.011-.002.023-.002.033l-.01.115v.016l-.006.045-.808 8.675h8.653zm-45.873 74.189a5.037 5.037 0 0 1-4.17-2.227 5.016 5.016 0 0 1-.746-1.799 5.029 5.029 0 0 1 0-1.955c.065-.314.16-.629.286-.935.125-.299.28-.59.46-.86.186-.275.392-.53.627-.76a5.056 5.056 0 0 1 4.52-1.37 5.15 5.15 0 0 1 1.805.746 5.005 5.005 0 0 1 2.13 3.18c.064.324.1.654.1.98 0 .324-.036.654-.1.974-.067.32-.16.635-.286.936a4.935 4.935 0 0 1-.462.863 4.756 4.756 0 0 1-1.382 1.381 5.045 5.045 0 0 1-1.805.744 4.851 4.851 0 0 1-.977.102z"/>
    </defs>
    <g fill="none" fill-rule="evenodd" transform="translate(21)">
        <mask id="b" fill="#fff">
            <use xlink:href="#a"/>
        </mask>
        <use fill="#000" fill-rule="nonzero" xlink:href="#a"/>
        <path fill="#000" d="M-21 0h256v256H-21z" mask="url(#b)"/>
    </g>
</svg>
