<svg xmlns="http://www.w3.org/2000/svg" xmlns:xlink="http://www.w3.org/1999/xlink" width="256" height="257" viewBox="0 0 256 257">
    <defs>
        <path id="a" d="M240.708 108.08a5 5 0 0 1 1.86 3.889v41.24c0 2.762-2.243 5-5.01 5a5.005 5.005 0 0 1-5.011-5v-35.057l-67.494 14.41v112.254l67.494-14.412V193.21c0-2.762 2.243-5 5.01-5a5.005 5.005 0 0 1 5.01 5v41.24a5.003 5.003 0 0 1-3.963 4.889l-77.515 16.55c-.027.007-.056.008-.084.014-.11.022-.221.04-.333.053l-.15.02a4.896 4.896 0 0 1-.48.025c-.162 0-.323-.01-.481-.025l-.151-.02a4.96 4.96 0 0 1-.335-.053 1.202 1.202 0 0 1-.082-.013l-76.468-16.327L6.06 255.89a5.016 5.016 0 0 1-4.2-1.002A4.99 4.99 0 0 1 0 251v-41.24c0-2.762 2.243-5 5.01-5a5.005 5.005 0 0 1 5.01 5v35.056l67.495-14.41V118.152l-67.494 14.41v37.198c0 2.761-2.243 5-5.01 5a5.005 5.005 0 0 1-5.011-5v-41.24a5.002 5.002 0 0 1 3.961-4.89l77.515-16.552c.07-.014.14-.02.21-.031.094-.016.188-.033.283-.045.092-.01.186-.014.28-.02.092-.003.182-.011.274-.011.096 0 .192.008.29.013.088.006.176.008.266.018.098.012.194.03.292.047.068.01.137.015.203.031l7.222 1.541-16.15-32.277c-.037-.074-.07-.149-.104-.223-3.04-6.9-4.58-14.242-4.58-21.824C69.962 24.357 94.37 0 124.372 0c30 0 54.406 24.357 54.406 54.297 0 7.582-1.54 14.924-4.578 21.824a5.727 5.727 0 0 1-.105.223l-22.629 45.232 8.576 1.83 76.466-16.326a5.021 5.021 0 0 1 4.2 1zM79.983 54.297c0 6.148 1.239 12.1 3.685 17.691l40.703 81.358 40.703-81.358a43.897 43.897 0 0 0 3.685-17.691C168.76 29.87 148.847 10 124.371 10S79.983 29.871 79.983 54.297zm7.553 63.855h.002v112.252l67.494 14.412V132.562l-8.189-1.748-17.988 35.957a5.016 5.016 0 0 1-8.966 0l-23.366-46.7-8.987-1.919zm69.052-63.855c0 17.728-14.452 32.15-32.217 32.15s-32.218-14.422-32.218-32.15c0-17.729 14.453-32.152 32.218-32.152 17.765 0 32.217 14.423 32.217 32.152zm-54.415 0c0 12.213 9.958 22.15 22.198 22.15s22.198-9.937 22.198-22.15c0-12.215-9.958-22.152-22.198-22.152s-22.198 9.937-22.198 22.152zM5.01 194.76c-2.76 0-5.01-2.246-5.01-5s2.25-5 5.01-5 5.01 2.246 5.01 5-2.25 5-5.01 5zm232.547-26.551c2.76 0 5.01 2.246 5.01 5s-2.25 5-5.01 5-5.01-2.246-5.01-5 2.25-5 5.01-5z"/>
    </defs>
    <g fill="none" fill-rule="evenodd" transform="translate(6)">
        <mask id="b" fill="#808080">
            <use xlink:href="#a"/>
        </mask>
        <use fill="#808080" fill-rule="nonzero" xlink:href="#a"/>
        <path fill="#808080" d="M-6 0h256v256H-6z" mask="url(#b)"/>
    </g>
</svg>
