<svg xmlns="http://www.w3.org/2000/svg" xmlns:xlink="http://www.w3.org/1999/xlink" width="256" height="257" viewBox="0 0 256 257">
    <defs>
        <path id="a" d="M204 0c13.785 0 25 11.215 25 25v206c0 13.785-11.215 25-25 25H25c-13.785 0-25-11.215-25-25V25C0 11.215 11.215 0 25 0h179zm15 231V25c0-8.271-6.729-15-15-15H25c-8.271 0-15 6.729-15 15v39h170.667a5 5 0 0 1 0 10H10v157c0 8.271 6.729 15 15 15h179c8.271 0 15-6.729 15-15zM204.205 65.465c.93.93 1.46 2.22 1.46 3.535s-.53 2.6-1.46 3.534a5.048 5.048 0 0 1-3.54 1.466 5.038 5.038 0 0 1-3.535-1.466A5.034 5.034 0 0 1 195.665 69c0-1.315.535-2.605 1.465-3.535A5.045 5.045 0 0 1 200.665 64c1.315 0 2.605.534 3.54 1.465zm-39.501 44.33c27.682 27.682 27.682 72.726 0 100.409-13.841 13.841-32.023 20.761-50.205 20.761-18.181 0-36.362-6.92-50.204-20.761-22.918-22.918-27.43-58.393-10.973-86.269a5 5 0 1 1 8.611 5.084c-14.137 23.946-10.258 54.423 9.432 74.114 11.892 11.89 27.516 17.837 43.135 17.838 15.623.001 31.24-5.945 43.133-17.838 23.784-23.784 23.784-62.484 0-86.267-19.119-19.12-47.98-23.428-71.817-10.722a4.999 4.999 0 0 1-6.764-2.06 4.999 4.999 0 0 1 2.06-6.764c13.147-7.007 28.552-9.712 43.375-7.617 15.333 2.166 29.239 9.115 40.217 20.091zm-92.874-.445c1.975 1.983 1.954 5.103-.047 7.104l-.032.03c-1.006.99-2.287 1.484-3.561 1.484-1.281 0-2.556-.5-3.541-1.499-1.966-1.991-1.931-5.111.078-7.102 2.01-1.992 5.13-1.999 7.103-.017zm42.67-.35c28.121 0 51 22.879 51 51s-22.879 51-51 51-51-22.879-51-51 22.879-51 51-51zm0 10c-21.587 0-39.319 16.774-40.876 37.97 2.872 2.552 6.512 3.94 10.41 3.94 4.438 0 8.543-1.799 11.558-5.066a5.001 5.001 0 0 1 7.35 0c3.015 3.267 7.12 5.067 11.558 5.067s8.543-1.8 11.558-5.067a5.001 5.001 0 0 1 7.35 0c3.015 3.267 7.12 5.067 11.558 5.067 3.898 0 7.538-1.39 10.41-3.941C153.818 135.774 136.087 119 114.5 119zm0 82c19.49 0 35.835-13.674 39.977-31.929a25.685 25.685 0 0 1-9.51 1.84 25.799 25.799 0 0 1-15.234-5.002 25.8 25.8 0 0 1-15.233 5.002 25.799 25.799 0 0 1-15.233-5.002 25.8 25.8 0 0 1-15.233 5.002c-3.284 0-6.509-.643-9.51-1.84C78.665 187.326 95.01 201 114.5 201zM192 18.75c9.374 0 17 7.626 17 17 0 9.374-7.626 17-17 17-9.374 0-17-7.626-17-17 0-9.374 7.626-17 17-17zm0 24c3.86 0 7-3.14 7-7s-3.14-7-7-7-7 3.14-7 7 3.14 7 7 7zm-37.506-20c7.168 0 13 5.831 13 13s-5.832 13-13 13c-7.169 0-13-5.831-13-13s5.831-13 13-13zm0 16c1.654 0 3-1.346 3-3s-1.346-3-3-3c-1.655 0-3 1.346-3 3s1.345 3 3 3zM32 23.25a5 5 0 0 1 5 5v15a5 5 0 0 1-10 0v-15a5 5 0 0 1 5-5zm20.166 0a5 5 0 0 1 5 5v15a5 5 0 0 1-10 0v-15a5 5 0 0 1 5-5zm20.168 0a5 5 0 0 1 5 5v15a5 5 0 0 1-10 0v-15a5 5 0 0 1 5-5zm20.166 0a5 5 0 0 1 5 5v15a5 5 0 0 1-10 0v-15a5 5 0 0 1 5-5z"/>
    </defs>
    <g fill="none" fill-rule="evenodd" transform="translate(13)">
        <mask id="b" fill="#017ace">
            <use xlink:href="#a"/>
        </mask>
        <use fill="#017ace" fill-rule="nonzero" xlink:href="#a"/>
        <path fill="#017ace" d="M-13 0h256v256H-13z" mask="url(#b)"/>
    </g>
</svg>
