<svg xmlns="http://www.w3.org/2000/svg" xmlns:xlink="http://www.w3.org/1999/xlink" width="256" height="257" viewBox="0 0 256 257">
    <defs>
        <path id="a" d="M47.906 103.299a4.99 4.99 0 0 1-4.99-4.99v-7.485a4.99 4.99 0 0 1 4.99-4.99h7.486a4.99 4.99 0 0 1 4.99 4.99v7.484a4.99 4.99 0 0 1-4.99 4.99h-7.486zm0 29.942a4.99 4.99 0 0 1-4.99-4.99v-7.487a4.99 4.99 0 0 1 4.99-4.99h7.486a4.99 4.99 0 0 1 4.99 4.99v7.487a4.99 4.99 0 0 1-4.99 4.99h-7.486zm0 29.94a4.99 4.99 0 0 1-4.99-4.99v-7.485a4.99 4.99 0 0 1 4.99-4.99h7.486a4.99 4.99 0 0 1 4.99 4.99v7.485a4.99 4.99 0 0 1-4.99 4.99h-7.486zm0 29.94a4.99 4.99 0 0 1-4.99-4.99v-7.484a4.99 4.99 0 0 1 4.99-4.99h7.486a4.99 4.99 0 0 1 4.99 4.99v7.484a4.99 4.99 0 0 1-4.99 4.99h-7.486zm26.2-89.822a4.99 4.99 0 0 1-4.991-4.99v-7.485a4.99 4.99 0 0 1 4.99-4.99h7.486a4.99 4.99 0 0 1 4.99 4.99v7.484a4.99 4.99 0 0 1-4.99 4.99h-7.486zm0 29.942a4.99 4.99 0 0 1-4.991-4.99v-7.487a4.99 4.99 0 0 1 4.99-4.99h7.486a4.99 4.99 0 0 1 4.99 4.99v7.487a4.99 4.99 0 0 1-4.99 4.99h-7.486zm0 29.94a4.99 4.99 0 0 1-4.991-4.99v-7.485a4.99 4.99 0 0 1 4.99-4.99h7.486a4.99 4.99 0 0 1 4.99 4.99v7.485a4.99 4.99 0 0 1-4.99 4.99h-7.486zm0 29.94a4.99 4.99 0 0 1-4.991-4.99v-7.484a4.99 4.99 0 0 1 4.99-4.99h7.486a4.99 4.99 0 0 1 4.99 4.99v7.484a4.99 4.99 0 0 1-4.99 4.99h-7.486zm26.199-89.822a4.99 4.99 0 0 1-4.99-4.99v-7.485a4.99 4.99 0 0 1 4.99-4.99h7.485a4.99 4.99 0 0 1 4.99 4.99v7.484a4.99 4.99 0 0 1-4.99 4.99h-7.485zm0 29.942a4.99 4.99 0 0 1-4.99-4.99v-7.487a4.99 4.99 0 0 1 4.99-4.99h7.485a4.99 4.99 0 0 1 4.99 4.99v7.487a4.99 4.99 0 0 1-4.99 4.99h-7.485zm0 29.94a4.99 4.99 0 0 1-4.99-4.99v-7.485a4.99 4.99 0 0 1 4.99-4.99h7.485a4.99 4.99 0 0 1 4.99 4.99v7.485a4.99 4.99 0 0 1-4.99 4.99h-7.485zm0 29.94a4.99 4.99 0 0 1-4.99-4.99v-7.484a4.99 4.99 0 0 1 4.99-4.99h7.485a4.99 4.99 0 0 1 4.99 4.99v7.484a4.99 4.99 0 0 1-4.99 4.99h-7.485zm47.407-89.822a4.99 4.99 0 0 1-4.99-4.99v-7.485a4.99 4.99 0 0 1 4.99-4.99h7.485a4.99 4.99 0 0 1 4.99 4.99v7.484a4.99 4.99 0 0 1-4.99 4.99h-7.485zm0-29.94a4.99 4.99 0 0 1-4.99-4.991v-7.484a4.99 4.99 0 0 1 4.99-4.99h7.485a4.99 4.99 0 0 1 4.99 4.99v7.484a4.99 4.99 0 0 1-4.99 4.99h-7.485zm0-29.94a4.99 4.99 0 0 1-4.99-4.991V30.94a4.99 4.99 0 0 1 4.99-4.99h7.485a4.99 4.99 0 0 1 4.99 4.99v7.487a4.99 4.99 0 0 1-4.99 4.99h-7.485zm0 89.822a4.99 4.99 0 0 1-4.99-4.99v-7.487a4.99 4.99 0 0 1 4.99-4.99h7.485a4.99 4.99 0 0 1 4.99 4.99v7.487a4.99 4.99 0 0 1-4.99 4.99h-7.485zm0 29.94a4.99 4.99 0 0 1-4.99-4.99v-7.485a4.99 4.99 0 0 1 4.99-4.99h7.485a4.99 4.99 0 0 1 4.99 4.99v7.485a4.99 4.99 0 0 1-4.99 4.99h-7.485zm0 29.94a4.99 4.99 0 0 1-4.99-4.99v-7.484a4.99 4.99 0 0 1 4.99-4.99h7.485a4.99 4.99 0 0 1 4.99 4.99v7.484a4.99 4.99 0 0 1-4.99 4.99h-7.485zM173.91 103.3a4.99 4.99 0 0 1-4.99-4.99v-7.485a4.99 4.99 0 0 1 4.99-4.99h7.486a4.99 4.99 0 0 1 4.99 4.99v7.484a4.99 4.99 0 0 1-4.99 4.99h-7.486zm0-29.94a4.99 4.99 0 0 1-4.99-4.991v-7.484a4.99 4.99 0 0 1 4.99-4.99h7.486a4.99 4.99 0 0 1 4.99 4.99v7.484a4.99 4.99 0 0 1-4.99 4.99h-7.486zm0-29.94a4.99 4.99 0 0 1-4.99-4.991V30.94a4.99 4.99 0 0 1 4.99-4.99h7.486a4.99 4.99 0 0 1 4.99 4.99v7.487a4.99 4.99 0 0 1-4.99 4.99h-7.486zm0 89.822a4.99 4.99 0 0 1-4.99-4.99v-7.487a4.99 4.99 0 0 1 4.99-4.99h7.486a4.99 4.99 0 0 1 4.99 4.99v7.487a4.99 4.99 0 0 1-4.99 4.99h-7.486zm0 29.94a4.99 4.99 0 0 1-4.99-4.99v-7.485a4.99 4.99 0 0 1 4.99-4.99h7.486a4.99 4.99 0 0 1 4.99 4.99v7.485a4.99 4.99 0 0 1-4.99 4.99h-7.486zm0 29.94a4.99 4.99 0 0 1-4.99-4.99v-7.484a4.99 4.99 0 0 1 4.99-4.99h7.486a4.99 4.99 0 0 1 4.99 4.99v7.484a4.99 4.99 0 0 1-4.99 4.99h-7.486zm26.2-89.822a4.99 4.99 0 0 1-4.991-4.99v-7.485a4.99 4.99 0 0 1 4.99-4.99h7.485a4.99 4.99 0 0 1 4.99 4.99v7.484a4.99 4.99 0 0 1-4.99 4.99h-7.485zm0-29.94a4.99 4.99 0 0 1-4.991-4.991v-7.484a4.99 4.99 0 0 1 4.99-4.99h7.485a4.99 4.99 0 0 1 4.99 4.99v7.484a4.99 4.99 0 0 1-4.99 4.99h-7.485zm0-29.94a4.99 4.99 0 0 1-4.991-4.991V30.94a4.99 4.99 0 0 1 4.99-4.99h7.485a4.99 4.99 0 0 1 4.99 4.99v7.487a4.99 4.99 0 0 1-4.99 4.99h-7.485zm0 89.822a4.99 4.99 0 0 1-4.991-4.99v-7.487a4.99 4.99 0 0 1 4.99-4.99h7.485a4.99 4.99 0 0 1 4.99 4.99v7.487a4.99 4.99 0 0 1-4.99 4.99h-7.485zm0 29.94a4.99 4.99 0 0 1-4.991-4.99v-7.485a4.99 4.99 0 0 1 4.99-4.99h7.485a4.99 4.99 0 0 1 4.99 4.99v7.485a4.99 4.99 0 0 1-4.99 4.99h-7.485zm0 29.94a4.99 4.99 0 0 1-4.991-4.99v-7.484a4.99 4.99 0 0 1 4.99-4.99h7.485a4.99 4.99 0 0 1 4.99 4.99v7.484a4.99 4.99 0 0 1-4.99 4.99h-7.485zm-142.34 32.44h.117a4.99 4.99 0 0 1 0 9.98h-.118a4.99 4.99 0 1 1 0-9.98zm99.804 0h.118a4.99 4.99 0 0 1 0 9.98h-.118a4.99 4.99 0 1 1 0-9.98zM5.108 245.521a4.99 4.99 0 1 1 0 9.98H4.99a4.99 4.99 0 1 1 0-9.98h.118zm245.404 0a4.99 4.99 0 0 1 0 9.98h-.119a4.99 4.99 0 0 1 0-9.98h.119zm-14.456 0a4.99 4.99 0 1 1 0 9.98H19.445a4.99 4.99 0 0 1 0-9.98h3.51V70.864a4.99 4.99 0 0 1 4.99-4.99h94.815V4.99A4.99 4.99 0 0 1 127.75 0h99.804a4.99 4.99 0 0 1 4.99 4.99v240.53h3.512zm-133.256 0v-19.96H82.838v19.96H102.8zm19.96 0V75.854H32.936V225.56h10.496a4.99 4.99 0 0 1 0 9.98H32.936v9.98h39.922v-24.95a4.99 4.99 0 0 1 4.99-4.99h29.942a4.99 4.99 0 0 1 4.99 4.99v24.95h9.98zm79.844 0v-19.96h-19.96v19.96h19.96zm19.96 0V9.981H132.74v215.58h10.496a4.99 4.99 0 0 1 0 9.98H132.74v9.98h39.922v-24.95a4.99 4.99 0 0 1 4.99-4.99h29.941a4.99 4.99 0 0 1 4.99 4.99v24.95h9.98z"/>
    </defs>
    <g fill="none" fill-rule="evenodd">
        <mask id="b" fill="#017ace">
            <use xlink:href="#a"/>
        </mask>
        <use fill="#017ace" fill-rule="nonzero" xlink:href="#a"/>
        <path fill="#017ace" d="M0 0h256v256H0z" mask="url(#b)"/>
    </g>
</svg>
