<svg xmlns="http://www.w3.org/2000/svg" xmlns:xlink="http://www.w3.org/1999/xlink" width="257" height="257" viewBox="0 0 257 257">
    <defs>
        <path id="a" d="M208 213c2.76 0 5 2.24 5 5s-2.24 5-5 5-5-2.24-5-5 2.24-5 5-5zm15-189.284c32.296 59.645 32.999 58.413 33 61.279V95c0 8.576-5.091 16.73-13 21.31V251a5 5 0 0 1-5 5H18a5 5 0 0 1-5-5V116.31C5.011 111.726 0 103.666 0 95V85v-.005c.002-2.836.387-1.047 33-61.279V15c0-8.271 6.729-15 15-15h160c8.271 0 15 6.729 15 15v8.716zM242.544 80l-27.5-50h-20.107l16.667 50h30.94zM173 90v5c0 8.271 6.729 15 15 15s15-6.729 15-15v-5h-30zm-.764-10h28.827l-16.667-50h-20.493l8.333 50zM43 15v5h170v-5c0-2.757-2.243-5-5-5H48c-2.757 0-5 2.243-5 5zm120 75h-30v5c0 8.271 6.729 15 15 15s15-6.729 15-15v-5zm-30-10h29.098l-8.334-50H133v50zm-39.097 0H123V30h-20.764l-8.334 50zM123 90H93v5c0 8.271 6.729 15 15 15s15-6.729 15-15v-5zM54.937 80h28.827l8.334-50H71.602L54.938 80zM83 90H53v5c0 8.271 6.729 15 15 15s15-6.729 15-15v-5zM40.956 30l-27.5 50h30.94l16.666-50H40.956zM10 95c0 5.616 4.005 11.094 9.967 13.629 2.1.898 4.356 1.371 6.533 1.371 8.636 0 16.5-7.15 16.5-15v-5H10v5zm93 151v-43H53v43h50zm0-53v-43H53v43h50zm130 53V119.757a25.87 25.87 0 0 1-3.5.243c-6.58 0-13.232-2.607-18.249-7.153a27.071 27.071 0 0 1-3.005-3.206C203.699 115.91 196.32 120 188 120c-8.17 0-15.435-3.939-20-10.017C163.435 116.06 156.17 120 148 120s-15.435-3.939-20-10.017C123.435 116.06 116.17 120 108 120s-15.435-3.939-20-10.017C83.435 116.06 76.17 120 68 120c-8.32 0-15.699-4.089-20.246-10.36a27.033 27.033 0 0 1-3.005 3.207C39.732 117.393 33.08 120 26.5 120c-1.174 0-2.341-.087-3.5-.245V246h20V145a5 5 0 0 1 5-5h60a5 5 0 0 1 5 5v101h120zm13-151v-5h-33v5c0 7.85 7.864 15 16.5 15 2.068 0 4.141-.407 6.163-1.213C241.845 106.314 246 100.774 246 95zm-28 98a5 5 0 0 1 0 10h-80a5 5 0 0 1 0-10h5v-48a5 5 0 0 1 5-5h60a5 5 0 0 1 5 5v48h5zm-15 0v-43h-50v43h50zm-15 20a5 5 0 0 1 0 10h-40a5 5 0 0 1 0-10h40z"/>
    </defs>
    <g fill="none" fill-rule="evenodd">
        <mask id="b" fill="#017ace">
            <use xlink:href="#a"/>
        </mask>
        <use fill="#017ace" fill-rule="nonzero" xlink:href="#a"/>
        <path fill="#017ace" d="M0 0h256v256H0z" mask="url(#b)"/>
    </g>
</svg>
