<svg xmlns="http://www.w3.org/2000/svg" xmlns:xlink="http://www.w3.org/1999/xlink" width="256" height="257" viewBox="0 0 256 257">
    <defs>
        <path id="a" d="M101 0c55.691 0 101 45.309 101 101v94.802a5 5 0 0 1-5 5h-13.162a5 5 0 0 1 0-10H192V101c0-50.178-40.822-91-91-91s-91 40.822-91 91v89.802h10.346a5 5 0 0 1 0 10H5a5 5 0 0 1-5-5V101C0 45.309 45.309 0 101 0zm44.87 220.465c.93.93 1.465 2.22 1.465 3.535a5.036 5.036 0 0 1-1.465 3.535 5.036 5.036 0 0 1-3.535 1.465 5.038 5.038 0 0 1-3.535-1.465 5.036 5.036 0 0 1-1.465-3.535c0-1.315.535-2.605 1.465-3.535a5.036 5.036 0 0 1 3.535-1.465c1.315 0 2.605.535 3.535 1.465zm50.142 27.734A5 5 0 0 1 191.87 256H10.13a5 5 0 0 1-4.142-7.8l36.507-54a5.005 5.005 0 0 1 1.037-1.119C34.669 185.831 29 174.817 29 162.5v-56.25C29 74.131 55.131 48 87.25 48h27.5C146.869 48 173 74.131 173 106.25v56.25c0 12.234-5.592 23.186-14.353 30.438.016.022.033.041.048.064l37.317 55.197zM163 106.25a48.4 48.4 0 0 0-.633-7.796L112.822 148H163v-41.75zm-64.16 41.59L152.678 94h-37.434l-54 54h37.45c.048-.053.093-.109.145-.16zM87.25 58c-18.585 0-34.746 10.564-42.803 26h113.107c-8.058-15.436-24.219-26-42.804-26h-27.5zM39 106.25V148h8.102l54-54H40.577A48.156 48.156 0 0 0 39 106.25zm0 56.25c0 16.266 13.233 29.5 29.5 29.5h65c16.267 0 29.5-13.234 29.5-29.5V158H39v4.5zM19.546 246h162.908l-32.043-47.398c-.072-.106-.134-.215-.197-.324A39.259 39.259 0 0 1 133.5 202h-65a39.27 39.27 0 0 1-17.001-3.851 4.977 4.977 0 0 1-.72 1.651L37.8 219H118.5a5 5 0 0 1 0 10H31.039l-11.493 17zM63.2 171.465c.93.93 1.465 2.22 1.465 3.535a5.036 5.036 0 0 1-1.465 3.535A5.036 5.036 0 0 1 59.665 180a5.036 5.036 0 0 1-3.535-1.465A5.036 5.036 0 0 1 54.665 175c0-1.315.535-2.605 1.465-3.535A5.036 5.036 0 0 1 59.665 170c1.315 0 2.605.535 3.535 1.465zm82.67 0c.93.93 1.465 2.22 1.465 3.535a5.036 5.036 0 0 1-1.465 3.535 5.036 5.036 0 0 1-3.535 1.465 5.036 5.036 0 0 1-3.535-1.465 5.036 5.036 0 0 1-1.465-3.535c0-1.315.535-2.605 1.465-3.535a5.036 5.036 0 0 1 3.535-1.465c1.315 0 2.605.535 3.535 1.465zm-60.785 0c.93.93 1.465 2.22 1.465 3.535a5.036 5.036 0 0 1-1.465 3.535A5.036 5.036 0 0 1 81.55 180a5.048 5.048 0 0 1-3.54-1.465A5.03 5.03 0 0 1 76.55 175c0-1.315.53-2.605 1.46-3.535A5.056 5.056 0 0 1 81.55 170c1.315 0 2.605.535 3.535 1.465zm43.95 0c.93.93 1.465 2.22 1.465 3.535a5.036 5.036 0 0 1-1.465 3.535A5.036 5.036 0 0 1 125.5 180a5.036 5.036 0 0 1-3.535-1.465A5.036 5.036 0 0 1 120.5 175c0-1.315.535-2.605 1.465-3.535A5.036 5.036 0 0 1 125.5 170c1.315 0 2.605.535 3.535 1.465zM110.5 66a5 5 0 0 1 0 10h-19a5 5 0 0 1 0-10h19z"/>
    </defs>
    <g fill="none" fill-rule="evenodd" transform="translate(27)">
        <mask id="b" fill="#808080">
            <use xlink:href="#a"/>
        </mask>
        <use fill="#808080" fill-rule="nonzero" xlink:href="#a"/>
        <path fill="#808080" d="M-27 0h256v256H-27z" mask="url(#b)"/>
    </g>
</svg>
