<svg xmlns="http://www.w3.org/2000/svg" xmlns:xlink="http://www.w3.org/1999/xlink" width="257" height="256" viewBox="0 0 257 256">
    <defs>
        <path id="a" d="M227.321 84.196c6.998 7.234 11.318 17.079 11.318 27.92v57.918a4.661 4.661 0 0 1-4.661 4.664h-25.184a4.661 4.661 0 0 1-4.66-4.664c0-9.29-7.554-16.85-16.838-16.85h-49.333a4.661 4.661 0 0 1-4.66-4.665 4.662 4.662 0 0 1 4.66-4.665h49.333c12.833 0 23.539 9.299 25.743 21.515h16.278v-45.583H9.322v45.583H25.6c2.204-12.216 12.91-21.515 25.743-21.515h49.333a4.662 4.662 0 0 1 4.66 4.665 4.661 4.661 0 0 1-4.66 4.664H51.343c-9.284 0-16.838 7.561-16.838 16.85a4.661 4.661 0 0 1-4.66 4.665H4.66A4.661 4.661 0 0 1 0 170.034v-57.917c0-10.842 4.32-20.687 11.317-27.921V4.882A4.662 4.662 0 0 1 15.978.217h84.698a4.662 4.662 0 0 1 4.66 4.665 4.661 4.661 0 0 1-4.66 4.664H20.638v67.47a39.85 39.85 0 0 1 16.678-4.97c-.576-9.137-.206-18.541 1.128-28.596.715-5.395 4.567-10.858 10.545-10.858.527 0 1.065.048 1.596.138 9.097 1.563 16.957 2.292 24.744 2.292 7.755 0 15.766-.73 25.214-2.296a9.36 9.36 0 0 1 1.543-.129c5.132 0 9.367 4.27 10.535 10.624 1.729 9.396 2.182 18.837 1.382 28.713h10.633c-.801-9.873-.347-19.316 1.382-28.713 1.168-6.354 5.402-10.624 10.535-10.624.51 0 1.028.044 1.541.129 9.45 1.567 17.461 2.296 25.216 2.296 7.786 0 15.647-.728 24.743-2.292a9.522 9.522 0 0 1 1.597-.138c5.977 0 9.828 5.463 10.545 10.858 1.333 10.056 1.704 19.46 1.127 28.596A39.822 39.822 0 0 1 218 77.016V9.547h-80.037a4.661 4.661 0 0 1-4.66-4.664 4.662 4.662 0 0 1 4.66-4.665h84.698a4.662 4.662 0 0 1 4.66 4.665v79.314zm-92.137-39.287c-1.62 8.817-2.016 17.696-1.199 27.025h58.007c.582-8.675.239-17.635-1.039-27.255-.208-1.573-1.015-2.58-1.332-2.753-9.637 1.655-17.992 2.425-26.311 2.425-8.27 0-16.755-.769-26.703-2.417-.334.224-1.107 1.268-1.423 2.975zm-87.498-.23c-1.28 9.62-1.622 18.579-1.039 27.255h58.005c.819-9.33.422-18.21-1.197-27.027-.316-1.705-1.09-2.749-1.423-2.973-9.957 1.648-18.44 2.417-26.703 2.417-8.323 0-16.686-.772-26.31-2.425-.318.17-1.125 1.18-1.333 2.753zm-38.32 65.778h219.907c-.43-8.082-3.983-15.347-9.469-20.609a4.44 4.44 0 0 1-.565-.52c-5.48-5.004-12.763-8.065-20.75-8.065H40.15c-7.987 0-15.27 3.064-20.75 8.068-.174.186-.36.36-.563.516-5.485 5.262-9.04 12.527-9.47 20.61zM119.319 9.547a4.672 4.672 0 0 1-4.66-4.665 4.673 4.673 0 0 1 4.66-4.665 4.673 4.673 0 0 1 4.661 4.665 4.672 4.672 0 0 1-4.66 4.664zm0 134.307a4.674 4.674 0 0 1 4.661 4.665 4.672 4.672 0 0 1-4.66 4.664 4.672 4.672 0 0 1-4.662-4.664 4.673 4.673 0 0 1 4.661-4.665z"/>
    </defs>
    <g fill="none" fill-rule="evenodd" transform="translate(10 40)">
        <mask id="b" fill="#808080">
            <use xlink:href="#a"/>
        </mask>
        <use fill="#808080" fill-rule="nonzero" xlink:href="#a"/>
        <path fill="#808080" d="M-9.019-40h256v256h-256z" mask="url(#b)"/>
    </g>
</svg>
