<?xml version="1.0" encoding="UTF-8"?>
<svg width="256px" height="256px" viewBox="0 0 256 256" version="1.1" xmlns="http://www.w3.org/2000/svg" xmlns:xlink="http://www.w3.org/1999/xlink">
    <!-- Generator: sketchtool 53.1 (72631) - https://sketchapp.com -->
    <title>BBE18EDE-86A6-4BAE-AACA-161005121126</title>
    <desc>Created with sketchtool.</desc>
    <defs>
        <path d="M55.8981812,232.548828 C55.5732034,232.548828 55.2423519,232.513672 54.9212898,232.449219 C54.6002266,232.382813 54.2850372,232.289063 53.9855094,232.164063 C53.6781508,232.039063 53.3884113,231.882813 53.1182486,231.703125 C52.8422131,231.523438 52.5857544,231.314453 52.3567038,231.083985 C52.125695,230.853516 51.914264,230.597656 51.7341552,230.324219 C51.5540474,230.052735 51.399389,229.763672 51.2740963,229.458985 C51.1488036,229.158203 51.0528764,228.84375 50.988272,228.523438 C50.9217105,228.203125 50.8864716,227.873047 50.8864716,227.548828 C50.8864716,227.22461 50.9217105,226.894531 50.988272,226.56836 C51.0528764,226.253906 51.1488036,225.939453 51.2740963,225.634766 C51.399389,225.333985 51.5540474,225.044922 51.7341552,224.773438 C51.914264,224.498047 52.125695,224.244141 52.3567038,224.013672 C52.5857544,223.783203 52.8422131,223.574219 53.1182486,223.388672 C53.3884113,223.208985 53.6781508,223.052735 53.9855094,222.927735 C54.2850372,222.802735 54.6002266,222.708985 54.9212898,222.644531 C56.5500954,222.31836 58.2787433,222.853516 59.44749,224.013672 C59.6784983,224.244141 59.8840565,224.498047 60.0680805,224.773438 C60.2501464,225.044922 60.4048047,225.333985 60.5300975,225.634766 C60.6553902,225.939453 60.7513173,226.253906 60.8159213,226.56836 C60.8805252,226.894531 60.9098908,227.22461 60.9098908,227.548828 C60.9098908,227.873047 60.8805252,228.203125 60.8159213,228.523438 C60.7513173,228.84375 60.6553902,229.158203 60.5300975,229.458985 C60.4048047,229.763672 60.2501464,230.052735 60.0680805,230.324219 C59.8840565,230.597656 59.6784983,230.853516 59.44749,231.083985 C58.509752,232.013672 57.2215858,232.548828 55.8981812,232.548828 Z M188.029165,66.298828 C202.114809,66.298828 213.573222,77.7128905 213.573222,91.7421875 L213.573222,163.359375 C213.573222,166.121094 211.327741,168.359375 208.561512,168.359375 L193.96295,168.359375 L186.216335,251.462891 C185.977496,254.033203 183.814238,256 181.22616,256 L134.121963,256 C131.533885,256 129.370627,254.035156 129.131788,251.462891 L121.383215,168.359375 L92.1900067,168.359375 L84.4414336,251.462891 C84.2025946,254.033203 82.0393367,256 79.4512588,256 L32.3470618,256 C29.7589833,256 27.595726,254.035156 27.356887,251.462891 L19.6083138,168.359375 L5.0117096,168.359375 C2.24352288,168.359375 0,166.121094 0,163.359375 L0,91.7421875 C0,77.7128905 11.4603706,66.298828 25.546015,66.298828 L30.0624268,66.298828 C22.3999924,59.3203125 17.5860108,49.2871095 17.5860108,38.15625 C17.5860108,17.1171875 34.7726505,-5.68434189e-14 55.9001388,-5.68434189e-14 C77.0256695,-5.68434189e-14 94.2142673,17.1171875 94.2142673,38.15625 C94.2142673,49.2871095 89.4002852,59.3183595 81.7358937,66.298828 L86.2542632,66.298828 C94.6606227,66.298828 102.129245,70.363281 106.786611,76.621094 C111.445935,70.363281 118.916514,66.298828 127.320916,66.298828 L131.839286,66.298828 C124.174894,59.3203125 119.360912,49.2871095 119.360912,38.15625 C119.360912,17.1171875 136.54951,-5.68434189e-14 157.67504,-5.68434189e-14 C178.802528,-5.68434189e-14 195.989169,17.1171875 195.989169,38.158203 C195.989169,49.2871095 191.175187,59.3203125 183.510795,66.298828 L188.029165,66.298828 Z M129.384331,38.15625 C129.384331,53.673828 142.076094,66.298828 157.67504,66.298828 C173.273986,66.298828 185.965749,53.673828 185.965749,38.15625 C185.965749,22.6308595 173.273986,10 157.67504,10 C142.076094,10 129.384331,22.6308595 129.384331,38.15625 Z M127.320916,76.298828 C118.763814,76.298828 111.800278,83.2265625 111.800278,91.7421875 L111.800278,96.582031 L124.62908,96.582031 C127.397267,96.582031 129.64079,98.8203125 129.64079,101.582031 L129.64079,144.164063 L185.709291,144.164063 L185.709291,101.582031 C185.709291,98.8203125 187.954772,96.582031 190.721,96.582031 L203.55176,96.582031 L203.55176,91.7421875 C203.55176,83.2265625 196.588224,76.298828 188.029165,76.298828 L127.320916,76.298828 Z M27.60943,38.15625 C27.60943,53.673828 40.3011927,66.298828 55.9001388,66.298828 C71.501043,66.298828 84.1928062,53.673828 84.1928062,38.15625 C84.1928062,22.6308595 71.501043,10 55.9001388,10 C40.3011927,10 27.60943,22.6308595 27.60943,38.15625 Z M10.0253768,91.7421875 L10.0253768,96.580078 L22.8541786,96.580078 C25.6223653,96.580078 27.8658882,98.8203125 27.8658882,101.580078 L27.8658882,144.164063 L83.9363475,144.164063 L83.9363475,101.580078 C83.9363475,98.8203125 86.1798704,96.580078 88.9480571,96.580078 L101.776859,96.580078 L101.776859,91.7421875 C101.776859,83.2246095 94.8133235,76.298828 86.2542632,76.298828 L25.5479725,76.298828 C16.9889127,76.298828 10.0253768,83.2265625 10.0253768,91.7421875 Z M10.0253768,158.359375 L18.6784066,158.359375 L17.8698771,149.683594 C17.8679195,149.667969 17.8659619,149.652344 17.8659619,149.638672 L17.8640038,149.626953 L17.8640038,149.623047 C17.8600887,149.585938 17.8581306,149.546875 17.8542155,149.509766 C17.8542155,149.498047 17.8522579,149.486328 17.8522579,149.476563 C17.8503003,149.447266 17.8503003,149.417969 17.8483422,149.386719 C17.8483422,149.369141 17.8463847,149.34961 17.8463847,149.332031 C17.8444271,149.308594 17.8444271,149.28711 17.8444271,149.263672 C17.8444271,149.242188 17.842469,149.21875 17.842469,149.197266 L17.842469,149.164063 L17.842469,106.580078 L10.0253768,106.580078 L10.0253768,158.359375 Z M74.8859046,246 L83.4469225,154.164063 L60.9118484,154.164063 L60.9118484,210.107422 C60.9118484,212.867188 58.6683255,215.107422 55.9001388,215.107422 C53.1319526,215.107422 50.8884292,212.867188 50.8884292,210.107422 L50.8884292,154.164063 L28.3533557,154.164063 L36.9143735,246 L74.8859046,246 Z M93.9323586,149.683594 L93.1238291,158.359375 L101.776859,158.359375 L101.776859,106.580078 L93.9597667,106.580078 L93.9597667,149.164063 C93.9597667,149.175781 93.9578086,149.185547 93.9578086,149.197266 C93.9578086,149.21875 93.9578086,149.242188 93.9578086,149.263672 C93.9578086,149.28711 93.955851,149.308594 93.955851,149.332031 C93.955851,149.34961 93.9538935,149.369141 93.9538935,149.386719 C93.9519359,149.417969 93.9519359,149.447266 93.9499783,149.476563 C93.9480202,149.486328 93.9480202,149.498047 93.9460627,149.509766 C93.9441051,149.546875 93.942147,149.585938 93.9382319,149.623047 L93.9382319,149.626953 L93.9362743,149.638672 C93.9362743,149.652344 93.9343167,149.667969 93.9323586,149.683594 Z M111.800278,158.359375 L120.453308,158.359375 L119.644778,149.683594 C119.64282,149.667969 119.640863,149.652344 119.640863,149.638672 L119.638905,149.626953 L119.638905,149.623047 C119.63499,149.585938 119.631074,149.546875 119.629117,149.509766 C119.629117,149.498047 119.627159,149.486328 119.627159,149.476563 C119.625201,149.447266 119.625201,149.417969 119.623244,149.386719 C119.623244,149.369141 119.621286,149.34961 119.621286,149.332031 C119.619328,149.308594 119.619328,149.28711 119.619328,149.263672 C119.619328,149.242188 119.61737,149.21875 119.61737,149.197266 L119.61737,149.164063 L119.61737,106.580078 L111.800278,106.580078 L111.800278,158.359375 Z M176.660806,246 L185.221824,154.164063 L162.68675,154.164063 L162.68675,210.107422 C162.68675,212.867188 160.443227,215.107422 157.67504,215.107422 C154.908812,215.107422 152.663331,212.867188 152.663331,210.107422 L152.663331,154.164063 L130.128257,154.164063 L138.689275,246 L176.660806,246 Z M203.549803,158.359375 L203.549803,106.580078 L195.73271,106.580078 L195.73271,149.164063 C195.73271,149.173828 195.73271,149.185547 195.73271,149.195313 C195.730752,149.21875 195.730752,149.240235 195.730752,149.263672 C195.730752,149.285156 195.728795,149.308594 195.728795,149.332031 C195.728795,149.34961 195.726837,149.369141 195.726837,149.386719 C195.724879,149.417969 195.724879,149.445313 195.722922,149.47461 C195.720964,149.486328 195.720964,149.498047 195.720964,149.507813 C195.717048,149.546875 195.715091,149.583985 195.711175,149.623047 L195.711175,149.638672 C195.709218,149.652344 195.70726,149.667969 195.705302,149.683594 L194.896772,158.359375 L203.549803,158.359375 Z M157.676998,232.548828 C156.353593,232.548828 155.059554,232.013672 154.133563,231.083985 C153.898639,230.853516 153.693081,230.597656 153.507099,230.322266 C153.326991,230.052735 153.172332,229.763672 153.04704,229.458985 C152.921747,229.158203 152.82582,228.84375 152.761216,228.523438 C152.694654,228.203125 152.665289,227.873047 152.665289,227.548828 C152.665289,227.222656 152.696612,226.892578 152.761216,226.56836 C152.82582,226.253906 152.921747,225.939453 153.04704,225.632813 C153.172332,225.333985 153.326991,225.042969 153.507099,224.773438 C153.693081,224.498047 153.898639,224.242188 154.133563,224.013672 C155.296436,222.847656 157.025084,222.31836 158.65389,222.642578 C158.974952,222.708985 159.2921,222.802735 159.591628,222.927735 C159.897029,223.052735 160.188726,223.208985 160.458888,223.388672 C160.734924,223.572266 160.989425,223.783203 161.220433,224.013672 C161.451442,224.242188 161.660915,224.498047 161.841024,224.773438 C162.021132,225.042969 162.177748,225.333985 162.303041,225.632813 C162.428333,225.939453 162.522303,226.253906 162.588865,226.56836 C162.653469,226.892578 162.688708,227.222656 162.688708,227.548828 C162.688708,227.873047 162.653469,228.203125 162.588865,228.523438 C162.522303,228.84375 162.428333,229.158203 162.303041,229.458985 C162.177748,229.763672 162.021132,230.052735 161.841024,230.322266 C161.660915,230.597656 161.451442,230.853516 161.220433,231.083985 C160.989425,231.314453 160.734924,231.523438 160.458888,231.703125 C160.188726,231.882813 159.897029,232.03711 159.591628,232.16211 C159.290142,232.28711 158.974952,232.382813 158.65389,232.447266 C158.332827,232.513672 158.001976,232.548828 157.676998,232.548828 Z" id="path-1"></path>
    </defs>
    <g id="Symbols---Elements" stroke="none" stroke-width="1" fill="none" fill-rule="evenodd">
        <g id="Elements/Spot-Illustrations/Couple">
            <g id="Couple" transform="translate(21.000000, 0.000000)">
                <mask id="mask-2" fill="white">
                    <use xlink:href="#path-1"></use>
                </mask>
                <use id="Combined-Shape" fill="#017ace" fill-rule="nonzero" xlink:href="#path-1"></use>
                <polygon id="Path" fill="#017ace" mask="url(#mask-2)" points="-21 0 235 0 235 256 -21 256"></polygon>
            </g>
        </g>
    </g>
</svg>
