<?xml version="1.0" encoding="UTF-8"?>
<svg width="257px" height="257px" viewBox="0 0 257 257" version="1.1" xmlns="http://www.w3.org/2000/svg" xmlns:xlink="http://www.w3.org/1999/xlink">
    <!-- Generator: sketchtool 53.1 (72631) - https://sketchapp.com -->
    <title>E523FF48-9C23-4E92-AD69-143D801A36B5</title>
    <desc>Created with sketchtool.</desc>
    <defs>
        <path d="M242.770339,127.664156 C250.028164,128.572382 255.500975,134.77377 255.500975,142.087984 L255.500975,167.247345 C255.500975,174.562059 250.027665,180.763446 242.76984,181.671673 L232.3966,182.970636 C227.871439,195.596975 220.225372,206.837521 210.093162,215.748616 L210.093162,241.031236 C210.093162,249.010152 203.60184,255.501474 195.623423,255.501474 L166.67646,255.501474 C158.697544,255.501474 152.206222,249.010152 152.206222,241.031236 L152.206222,235.509021 L120.261614,235.509021 L120.261614,241.031236 C120.261614,249.010152 113.770292,255.501474 105.791376,255.501474 L76.8444133,255.501474 C68.8659961,255.501474 62.3746745,249.010152 62.3746745,241.031236 L62.3746745,224.459602 C38.2922105,210.189973 23.454191,184.299041 23.454191,156.179462 C23.454191,152.984702 23.6493099,149.835353 24.0185887,146.738402 L22.2066277,146.738402 C9.96204289,146.738402 -1.13686838e-13,136.776858 -1.13686838e-13,124.531774 C-1.13686838e-13,112.28669 9.96204289,102.325146 22.2066277,102.325146 C24.9622456,102.325146 27.1968811,104.559283 27.1968811,107.3154 C27.1968811,110.071517 24.9622456,112.305653 22.2066277,112.305653 C15.4647953,112.305653 9.98050682,117.790441 9.98050682,124.531774 C9.98050682,131.273107 15.4647953,136.757895 22.2066277,136.757895 L25.8629864,136.757895 C34.5485224,102.373552 65.7401014,76.8499025 102.783751,76.8499025 L109.037037,76.8499025 C111.792655,76.8499025 114.02729,79.084039 114.02729,81.840156 C114.02729,84.5962729 111.792655,86.8304094 109.037037,86.8304094 L102.783751,86.8304094 C64.5444367,86.8304094 33.4346979,117.940148 33.4346979,156.179462 C33.4346979,181.638737 47.3490215,205.008593 69.7462768,217.168842 C71.3541365,218.041637 72.3556803,219.724351 72.3556803,221.554277 L72.3556803,241.030737 C72.3556803,243.506402 74.3697466,245.520468 76.8449123,245.520468 L105.792374,245.520468 C108.268039,245.520468 110.282105,243.506402 110.282105,241.030737 L110.282105,230.518269 C110.282105,227.762152 112.516741,225.528016 115.272359,225.528016 L157.197474,225.528016 C159.953092,225.528016 162.187727,227.762152 162.187727,230.518269 L162.187727,241.030737 C162.187727,243.506402 164.201793,245.520468 166.677458,245.520468 L195.624421,245.520468 C198.099587,245.520468 200.113653,243.506402 200.113653,241.030737 L200.113653,213.44761 C200.113653,211.962012 200.77586,210.553263 201.920125,209.605115 C212.301349,201.003914 219.902503,189.700491 223.903189,176.917957 C224.487049,175.052101 226.106386,173.699244 228.046098,173.456717 L241.531259,171.768515 C243.805817,171.483571 245.521466,169.539867 245.521466,167.247345 L245.521466,142.087984 C245.521466,139.795462 243.806316,137.851758 241.531259,137.566815 L226.978682,135.744873 C225.120312,135.512328 223.547883,134.257778 222.908632,132.497216 C219.570152,123.309162 214.423704,115.110175 207.91292,108.276522 C207.434854,107.934191 207.028148,107.511018 206.701786,107.032951 C197.77023,98.1188616 186.438862,91.6954074 173.736172,88.6907758 C171.05391,88.0565146 169.394152,85.3682651 170.028413,82.6860039 C170.662674,80.0032437 173.350924,78.3439844 176.033185,78.9782456 C179.751922,79.8580273 183.3983,81.0192593 186.945372,82.4290059 C191.960577,69.3725068 204.711174,60.4708928 218.859041,60.4708928 C218.865528,60.4708928 218.87002,60.4708928 218.876507,60.4708928 L219.966877,60.4713918 C221.4914,60.4723899 222.932086,61.1700273 223.878238,62.365692 C224.82439,63.5613567 225.171712,65.1238051 224.821396,66.6079064 L216.298542,102.714386 C222.591252,109.614908 227.654363,117.590331 231.17848,126.212491 L242.770339,127.664156 Z M207.91791,94.7733957 L213.515977,71.0572164 C205.49614,72.8976218 198.771275,78.7921092 196.01416,86.7141365 C200.207969,89.0306121 204.195181,91.7283431 207.91791,94.7733957 Z M198.647018,126.717505 C199.575205,127.645692 200.109661,128.933177 200.109661,130.245614 C200.109661,131.558051 199.575205,132.845536 198.647018,133.773723 C197.719329,134.70191 196.431844,135.235867 195.119407,135.235867 C193.806971,135.235867 192.519984,134.70191 191.591298,133.773723 C190.662612,132.845536 190.129154,131.558051 190.129154,130.245614 C190.129154,128.933177 190.663111,127.645692 191.591298,126.717505 C192.519485,125.789318 193.806971,125.255361 195.119407,125.255361 C196.431844,125.255361 197.719329,125.789318 198.647018,126.717505 Z M146.335189,29.1096452 C149.091306,29.1096452 151.325443,31.3442807 151.325443,34.0998986 L151.325443,53.8937388 C151.325443,56.6498558 149.090807,58.8839922 146.335189,58.8839922 C143.579571,58.8839922 141.344936,56.6498558 141.344936,53.8937388 L141.344936,34.0998986 C141.344936,31.3437817 143.579571,29.1096452 146.335189,29.1096452 Z M149.8623,12.465653 C150.790487,13.3988304 151.324943,14.6813255 151.324943,15.9937622 C151.324943,17.3061988 150.790487,18.5936842 149.8623,19.5218713 C148.934612,20.4500585 147.647127,20.9840156 146.33469,20.9840156 C145.021754,20.9840156 143.734768,20.4500585 142.806581,19.5218713 C141.877895,18.5936842 141.344437,17.3111891 141.344437,15.9937622 C141.344437,14.6813255 141.878394,13.3938402 142.806581,12.465653 C143.734768,11.5374659 145.021754,11.0035088 146.33469,11.0035088 C147.647127,11.0035088 148.934612,11.5374659 149.8623,12.465653 Z M105.793372,-1.0658141e-13 C108.549489,-1.0658141e-13 110.783626,2.23413645 110.783626,4.99025341 L110.783626,13.4736842 C110.783626,16.2298012 108.54899,18.4639376 105.793372,18.4639376 C103.037754,18.4639376 100.803119,16.2298012 100.803119,13.4736842 L100.803119,4.99025341 C100.803119,2.23413645 103.037754,-1.0658141e-13 105.793372,-1.0658141e-13 Z M56.8579493,156.179462 L56.8584484,156.382066 C56.8754152,159.138183 54.6547524,161.386292 51.8991345,161.403758 C51.888156,161.403758 51.8776764,161.403758 51.8676959,161.403758 C49.1260507,161.403758 46.8949084,159.189583 46.8779415,156.444444 L46.8774425,156.179462 C46.8774425,153.423345 49.112078,151.189209 51.8676959,151.189209 C54.6233139,151.189209 56.8579493,153.423345 56.8579493,156.179462 Z M78.9473061,195.443774 C81.3012086,196.876476 82.0492476,199.94648 80.6165458,202.300881 C79.6768811,203.844866 78.0325926,204.6977 76.3483821,204.6977 C75.4646082,204.6977 74.5698558,204.462659 73.7594386,203.969622 C63.2065497,197.548164 54.9681404,187.677942 50.5617466,176.176905 C49.5756725,173.602932 50.8626589,170.717567 53.4361326,169.731493 C56.0091072,168.744421 58.8949708,170.031407 59.8815439,172.605879 C63.5014737,182.053926 70.2727486,190.164585 78.9473061,195.443774 Z M105.793372,23.9791657 C117.3503,23.9791657 126.752437,33.3813022 126.752437,44.93823 C126.752437,56.4951579 117.3503,65.8972944 105.793372,65.8972944 C94.2364445,65.8972944 84.834308,56.4951579 84.834308,44.93823 C84.834308,33.3813022 94.2364445,23.9791657 105.793372,23.9791657 Z M105.793372,55.9167875 C111.847049,55.9167875 116.77193,50.9919064 116.77193,44.93823 C116.77193,38.8845536 111.847049,33.9596725 105.793372,33.9596725 C99.7396959,33.9596725 94.8148148,38.8845536 94.8148148,44.93823 C94.8148148,50.9919064 99.7396959,55.9167875 105.793372,55.9167875 Z M168.670565,105.793372 C171.426682,105.793372 173.660819,108.027509 173.660819,110.783626 C173.660819,113.539743 171.426183,115.773879 168.670565,115.773879 L103.797271,115.773879 C101.041653,115.773879 98.8070176,113.539743 98.8070176,110.783626 C98.8070176,108.027509 101.041653,105.793372 103.797271,105.793372 L128.490542,105.793372 C126.517396,102.598113 125.375626,98.8379571 125.376125,94.8148148 C125.376125,83.257887 134.778261,73.8557505 146.335189,73.8557505 C157.892117,73.8557505 167.294253,83.257887 167.294253,94.8148148 C167.294253,98.8379571 166.152483,102.598113 164.179337,105.793372 L168.670565,105.793372 Z M146.335189,105.793372 C152.388367,105.793372 157.313747,100.868491 157.313747,94.8148148 C157.313747,88.7611384 152.388866,83.8362573 146.335189,83.8362573 C140.281513,83.8362573 135.356632,88.7611384 135.356632,94.8148148 C135.356632,100.868491 140.281513,105.793372 146.335189,105.793372 Z" id="path-1"></path>
    </defs>
    <g id="Symbols---Elements" stroke="none" stroke-width="1" fill="none" fill-rule="evenodd">
        <g id="Elements/Spot-Illustrations/Savings">
            <g id="Savings">
                <mask id="mask-2" fill="white">
                    <use xlink:href="#path-1"></use>
                </mask>
                <use id="Combined-Shape" fill="#017ace" fill-rule="nonzero" xlink:href="#path-1"></use>
                <polygon id="Path" fill="#017ace" mask="url(#mask-2)" points="2.49999914e-08 2.4999963e-08 256 2.4999963e-08 256 256 2.49999914e-08 256"></polygon>
            </g>
        </g>
    </g>
</svg>
