<svg xmlns="http://www.w3.org/2000/svg" width="359" height="352" viewBox="0 0 359 352">
    <g fill="none" fill-rule="evenodd">
        <g fill="#CCEAFF">
            <path d="M269.964 273.43l.223.029v-.223l.863.223-.416-.848-.67.402zM284.992 263.754l.64.655.744 1.384.654.03.55-.312.224-.878-.298-2.353-.208-.014v-.224h.223l-.223-.416-2.589-.685zM272.374 272.417h.224v-.238h-.224zM272.821 271.985l-.015.209h.432l.014-.209zM276.556 252.65l-.016.655h.224v-.655zM297.207 237.23l-.222.416h.222l.224-.417zM300.704 268.041h.208v-.208h-.208zM287.06 267.997l.045.089.46-.477zM60.572 227.554l.402.119-.09.253.09 1.414.283.06.298.193.416.134.357-.163.223-.283.223-.402.298-.253v-.238l.149-.134.104-.209-.164-.25-.61-.926-.163-.104-.164.015-.119.298-.209-.045-.103-.506-.194-.045-.193-.06-.164-.059-.462-.03.045.298-.104.238-.03.239.134.297-.02.012zM299.276 245.208l.655.015-.209-.432zM295.452 238.48h.223v-.209h-.223zM291.851 247.038v-.208h.446l-.446.208zm2.143-3.26l-.134-.58h.223l-.09.58zm-.67.269l.64.014.55-.416v-.432l.551.179.104.044v-.432h-.104l-1.845-.133-.878.64-.655-.015-1.22 1.384-.253 2.352.982.447-.223.431h-.655l.745 1.295-.12.64.432.015v.64l.431.209-.208-1.057h.432l-.208-.655.446.014-.224-.654.447.015.015-1.087-1.086-.015v-.208l.863.015.565-1.296-.09-1.294.566.193.09.045-.09-.373-.119-.505h.12zM331.994 233.255l.075-.224-.179-.238-.267-.119-.373-.03-.168.045-.173.045-.298.223.298-.223.173-.045.589.088zM331.756 270.512l-.27.049.389-.01 1.039-.029.367-.01zM156.884 205.093l-.045-.015-1.13.61z"/>
            <path d="M314.646 266.091v.208h-.432l.432-.208zm-3.05.596h-.224v-.209l.224.209zm22.56 1.255l-.192-.9.063-.785.192-3.028-.1-.93-.692-1.202-.688-.382-.554-.723-1.29-1.51-.039-.632-.429-.738-.45-1.026-.517-.912-.253-.661-1.091-.067-.547-.122-.53.152-.99.49-1.811.781-.844-.046-.118.387-2.842-.03.015-.654h-.432l-.015.417h-.208v-.417l-.655.193.015-.863-2.396-.238.03-1.518-1.086-.328-4.568.461.179 2.055.878-.194.64.864 1.398.774-.223.863-.446.848-.254 2.143-.49 4.525.312.537 1.012.49-1.027.269.015-.447-1.458.566-.402-.372.12-.432h-.432l-.625-2.367-.64-.03-1.354 3.007-1.101.417v.432l-.863-.447-.64-1.295.447-.104.67-1.057 1.517.015 1.22-1.607 1.264-5.582h-.43l-.21-.64-2.395.297-1.31.938-.683 1.488h-.432l-.238.864h-.432l-.119.848.432.447-.565 1.92-.432-.104-.893 1.592-.878.417-.669 1.072-.431-.015.178 2.59-.878-.015.12-.432-.432-.416-.209-.879.804-2.351 1.086-.402.684-1.727.536-.208-.09-.64-1.978 1.042-.223.848-.878.208-.446.864-6.116 1.116v.015l-1.518.268v.431h-.654l-.12.85 1.161 2.277.432.119-.223 1.28-.863-.655-.194-1.519-.655-.327-1.309.313-.134 1.503 1.414.447.863.878-3.244-1.459-.223-.09-.223 1.058-.432-.209v-.446h-.223l-.67 1.295-.862.193-.016.447-1.309.401-.134.209-.833.491-.357-.015h-.164l.12.283-1.816 1.22-.788.536-1.28-.327-3.273 1.354.104.447-.55.64-6.324 1.414-.239.864-6.948-.417-3.065 1.577v.432l-.431-.119-5.714 3.692-.134.238-.461.283-.655.432-7.097 4.48-.7.223-2.187-.015-.312.179-1.13.06v.416l-.432-.327-3.913.178-1.31-.238-1.74 1.16-.462 1.713-3.943 1.786-.208-.223-1.086.208-1.964-.134.015-.432-.432-.014v-.417l-1.294-.238v-.432l-2.62.298-1.755 1.16v.417l-5.654.7-1.756 1.161v.432l-.877.208-1.325 1.697-2.395.298-1.533.73v.446l-.654-.015-1.012 2.352-.208 8.812 1.413-.61 22.2-11.045 6.74-.983 10.266-4.183 1.325-.625 2.172-.625 1.31-.625 3.287-1.459 1.741-.193 1.31-.625 1.755-.849 28.866-12.533 1.517.03 6.026-1.459 1.741-.402v-.015l16.888-4.048 13.257-.224.773-1.19 3.185-1.772 4.958-.191.03-1.07zM264.43 232.258v-.432l-.879.64v.432h-.446l.104.863.327.104.878-.952h-.208v-.655zM252.288 242.737l.089-.402-.03-.521-.342-.625-.238-.269-.387-.133-.357.015-.416.208-1.979 1.37-.432.297-.506.446-.506.313-.58.625-.52.477-.626.446-.252.194-.224.417-.996.7-.551.61-.179.238-.238.431-.208.626-.149.774-.015.61.09.595.178.521.253.208.64.253.536.105h1.041l1.22-.164.164-.208.892-.313 1.072-.357.178.03.328-.194.431-.074.462-.105.282-.193.372-.09.208-.074.447-.193.119-.253.179-.134.238-.462.267-.804v-.58l.06-.357-.09-.372-.312-.566-.238-.358-.417-.193-.074-.565.149-.64.312-.06.179-.387-.045-.402.253-.402zM259.132 237.899l-.327-.327-.982.312-.863-.327v.208h.208l-.014 1.295h.877l-.104-.64.76-.09zM220.358 267.669l-.327-.223-.462-.7-.253-.327-.134-.507-.208-.06-.223-.148-.67-.461-.476-.372-.312-.134-1.012.03-.863.58-.193.357.238.476.103.432.06.283.566.58.55.313.893.7.402.342.773.952.12.536.282.655.655.61.312.06.714-.342.432-.15.268-.148-.253-.104-.12-.357-.074-.313.209-.848zM56.45 228.432v.655h.209v-.431h.223v-.417z"/>
            <path d="M109.881 223.46l-.371.075-.418.179-.237.119-.194.089-.208.12-.342.207-.179.075-.283.253-.252.164-.61.268-1.31.595-.684.313-.715.282-.759.164-1.22.03-.67.06-.103.238-.357.014-.328-.014-.505-.104-.507-.105-.208-.09-.268-.103-.282-.06-.193-.044-.566.014-.164-.014-.193-.06-.238.074-.209.03-.52.03-.313-.015-.297-.015h-.402l-.729-.03-.268.03-.164-.03-.327.09-.402.149-.268.119-.178.134-.357.178-.194.149-.252.208-.715.566-.163-.193.446-.253-.535.193.43-.327-.49.253-.194.06.194.342-.863.595.491-.64-.223-.164-.521.67.253.224-.12.237-.193.15-.342-.82.12.834-.18-.074-.312-.626.298.774-.223.105-.402-.774.342.818-.283.15-.238-.447.253.61-.208.074-.209-.208-.401.268-.357-.834.223.804-.238.06-.327-.715.238.715-.268.015-.268-.625.223.714-.327.12-.313-.03-.268-.567.09.462.015.238-.238-.283-.194-.044-.282.03-.18.014-.371.105-.03.312.179.268-.194-.119-.402.164-.178.268-.282.12-.269-.03-.252-.06-.268.06-.298-.016-.297-.149h-.253l-.194.105-.119.49-.268-.446-.312-.06h-.432l-.133-.789.014.715-.222-.015-.417-.282.178-.581-.327.55-.58-.312-.134-.402-.7-.119-.178.209h-.313l-.253-.224-.595-.119-.357.09-.595.178-.432.075-.193.06-.268.252-.179.09-.252-.015-.238.074h-.298l-.179.045-.222.074-.417.045-.298.074-.312.074-.149.254-.223-.12-.343.03-.163.208-.09.418h-.267l-.253-.09-.164.476-.193.194-.194-.015-.357-.342-.297-.06-.566.253-1.056.06-.7.134-.252.148-.164.402.045.64-.209-.015-.104-.386-.193-.239-.253-.297-.387.03-.164-.73.105 1.37-.536.059-.075-.893h-.193l.134.908-.283.015-.06.476-.46-.134-.21.03-.386-.03-.044-.372v-.253l-.06-.313v-.922l-.164-.015-.015 1.459-.446-.016-.015-1.16-.074 1.354h-.268l-.015-.342H63.25l-.059-.774-.074.729-.238-.134-.209-.015-.193-.119-.06-.446-.163.833-.209-.164-.014-.268-.194-.327-.179.208.194-1.176-.313 1.176-.342-.074-.014-.655-.224.625-.238-.06.134-.61-.238.61-.283-.059.357-1.548-.208-.238-.312-.03-.268-.03-.194-.03-.208.864-.208-.074-.09-.79-.119.73-.252-.193.029-.894-.134.834-.282-.193.104-1.295-.298-.075-.104.908-.417-.179.03-.803-.178.789-.179-.06-.164-.12-.282-.103-.283-.045-.729-.268-.075.238-.387-.119.536-1.414h-.223l-.67 1.608-.178-.03-.446-.238-.194.03-.089-.402.149-.507-.506.239-.105-.492-.178-.06-.163-.148-.03-.446-.402-.342-.253-.313-.282-.104-.268-.06-.268.119-.18.58.06.269-.103.253v.327l-.194-.09-.417-.014-.06.208-.371.12-.298.089-.148.297-.595-.044-.12-.462.03-.446-.015-.864-.267-.223.014.566-.669.06-.223-.403-.224.074-.268-.059-.818-.104-.595.283.09.953.163.372-.447-.417-.148-.238-.357-.328-.73.402-.208.104-1.458 1.518-1.07 1.162-.343.357-1.31 1.205-.714.968-.193.045-.298-.075.075.357.044.313.06.238.03.313-.521.149-.179.342-.416.387-.18.417-.43.789-.209.372h-.476l-.223.208-.164.06-.164.193-.327.298-.446.506-.164.104-.357 1.935-.104.417-.104.938-.105 1.206.164.178.09.238.09.208.073.268.06.343-.045.416-.208.135-.075.342-.089.238v.208l-.163.06v.268l.238.179.014.268-.059.386.149.447.03.402.163-.03.194.075.014.208-.178-.06-.179.016.15.446.044.685.15.268.132.327-.267.431-.194-.03.15.522.192.149.387.015.313.06.461.133.372.194.313.283.208.044.267.208.09.098.09.096.252.119-.015.506.209.209-.015.208.074.223.67.105-.566.297-.06.595-.073.79-.268.58-.536.893-.521.685-.342.878.03.357-.075.253-.03.402.224.253.178.253.194.61.446.388.506 1.667.06.223-.09.357-.268-.178-.12.267-.014.03.313.223-.179.254-.253.267.447-.09-.105.254-.193.105-.163.416-.06.253-.06.283.075.73-.06.327.03.253-.164-.074-.074.312.09.253-.105.55.268.373-.045.372-.193-.193-.387.387-.09.282-.178.224-.044.387-.15.208-.163.18-.327.341.045.313-.194.298-.416.297-.164.194v.208l-.209-.09-.178.164-.178-.089-.135.268-.06.298-.177.208-.15.283.194-.208.06.253-.075.372-.283.03-.386-.15.386.254.283-.03-.193.194-.239-.045-.371.298-.164.193-.208-.09-.194.328-.208.03-.15.313.09.565.283-.149-.193.417-.075.343.104.372.105.655-.134 1.459-.15.61.09.327-.03.312-.119.328-.014.238-.134.283-.075.327-.134.626-.104.238-.178.134-.18.476-.043.521.371-.075.507-.327.222-.045h.179l.357-.104.7.15.758.267 1.37-.06.64.045.713-.044.655.163.744.327.759.343.759.893.401.342.491.075.595-.075.12 1.013h-.194l-.193.03-.313.164-.283.133-.52-.238-.253-.223-.402-.254-1.681-.833-.819-.193-.238-.12-.298.075-.223.03-.015.387-.044.223-.238 2.188-.506 1.146-.7.462-.728.55-1.385.238-1.011.045-.386-.03-.358.179-.193.283-.357.283-.238.268-.358.342-.014.238-.224.328v.312l-.148.387-.06.268-.491 1.444-.431 1.176-.536 1.577.268 1.072-.12.685.046.596-.224.402-.327.476.045.46-.105.523-.491.863-.431.505-.342.09-.313-.402.119.357-.327.134.09.328-2.04 1.027-.386-.879-.15.075.12.938-.179.015-.312-.834-.045.253.134.283-.044.223-.432.134-.283-1.027-.416.12-.179-.046-.372.268h-.655l-.163-.431-.848-.15-.164.15-.417-.12-.267-.074-.224-.03-.237.06-.432-.015-.312-.015-.313-.149-.178.09-.194-.03-.223.328-.238.312h-.268l-.46.06-.269.133-.164.358-.283.283-.401.863-.074.223-.164.208-.253.209-.298.194-.193-.06-.878-.283-.73.432-.178.297.268.581-.09.357-.089.387-.222.105-.298.104-.342.193-.15.327-.133.24-.193.207-.194.09-.327.371-.327.388-.521.431-.655.387-.164.09-.178.044-.208-.06-.254-.059-.476-.461-1.666 1.622-.893 1.697-.282.461.193-.014.298.253.476.476.178.268.268.744.208.208.045.254.03.401v.358l.06.208.103.313.164.164.193.178-.03.208.046.477-.358.03.312.06-.208.341-.238.06.045.253.312-.015.194-.149.208.09.045.208.03.238.06.224.207.119.239.312.178.15.104.223.15.342.192.104.149.238.045.282-.03.343.193.06.418.089-.804.09.059.55-.654.06.907.044.104.745.12.238v.312l-.194.417h-.238l.193.134-.12.283-.162.164-.179.03.223.133-.074.313-.075.223-.044.238-.12.194-.118.282-.075.209.09.223-.224 1.102-.119.327-.238.521-.104.208.328.18.133.252.179.462.074.238.075.655.015.253.015.268-.015.253-.104.223-.09.372.179.12.357.148.312.015.224.09.164-.09.148.283.297.238.283.149-.119.283-.164.104.06.223-.223.164-.12-.224-.193.134-.357.313-.371-.253.297.313-.149.268-.387.253-.193-.015-.402-.03h-.178l-.298-.194-.238.18-.298.237-.178-.119-.194.178.298.582-.58.342-.223.148-.372-.401-.475-.415.356.4.431.7.164.193.223.134-.209-.06-.178-.03-.327.06-.283.194-.476-.58-.283.297-.625.476.134.357-.268-.327-.104.297-.268.239-.208.119-.193.149-.238.044-.105.224-.164.163-.237.343.148.327-.03.268-.713.715-.016.416.045.224-.193 1.131-.328.432-.089.297-.357.208-.357.313-.268.372-.104.313.134.476.09.536-.045 1.518.03.477.148.342.55 1.19.164.269.164.372.268.863.238.432.298.268.505.253.327.149.239.238.089.327-.015.253.104.328.119.253.834.744.46.253.372.164.298.03.432-.09.193-.178.848-.774.402-.134.655-.105.416-.06.492.105.267-.075.714-.044.507.044.624-.773.491-.432h.209l.58-.73.342-.103.67-.417.774-.194.609-.06.328-.371.967-.447h.476l.952-.283 1.369-.074.535.283.7.178.714-.491.328-.09.937-.103.179.044.148-.119.461-.074h.64l1.071-.477.268-.03.15-.312.803-1.206.268-.387.416-.432.52-.342.447-.119.238-.208.566-.64.535-.834.238-.179.254-.58.43-.833.358-.343.714-.506.789-.327 1.145-.283.357.03 1.98-.491.654-.15.402.09v.223l.238.223.178-.178.105.461h-.194l-.09-.208-.193.119.194.55.67.298.788.61.312.298.417.164h.417l.387-.134.684-.521.089-.343.298-.49.401-.462.462-.58.223-.164.164-.328.253-.387.7-.893.281-.238.387.104-.163-.223.193-.387.878-1.072.402-.461.46-.491.64-.626.358-.268.297-.089.194.194-.119-.239.223-.223.372-.12.402-.296.431-.09.18-.163.252-.09.744.075.371.238.12.327.312-.074.416.357.164.06.194.163.401-.506.819-.893.788-.67.506-.417.878-.744.283-.104.297-.164.254-.044.193.178.372.224.803-.402.298-.268.506-.358.194-.133.728-.685.55-.283.254-.208.357-.342.342-.135.223-.148.253-.209.313-.208.461-.075.268.075.52-.343h.342l.254.075.208.06.461-.418.461-.282.09-.239.431-.283.387-.119.223.016.491-.64.461-.432.224-.164.446-.462.431-.386.596-.625.372-.15.178-.208.268-.045.178.045.626-.759-.015-.327.342-.283 1.012-.67.788-.387h.238l.358-.239.252-.044.268-.015.283-.52.06-.328.312-.298.327-.015 1.176.149.267-.313-.788-.64.253-.342-.387-.506.387-.134-.015-.357.015-.283-.357-1.236.193-.55.223-.06.357-.431-.163-.194.208-.015.163.09.447-.477-.193-.208.06-.253.193.149.878-1.057.416-.417.06-.223.252.268.462-.268.238-.015.045-.223.223-.12 1.264-.386.655-.016.908.209 1.235.61.863 1.295.52 1.072.164.833-.164.745-.238.387-.55.55-.461.521-2.352 2.754-.327.328-.461.283-.759.118-1.681-.03-1.146-.223-.223.06-.238.58-.045.507.15.595.832 1.726.045.864.179.179-.045.223.179.164.282.06h.343l.327.058.164.21.624-.314.506-.446.595-.536 1.711-2.143 1.176-1.861 2.604-4.733 1.1-1.652.551-.745.313-.298.773-.595.477-.044.104.238-.03.297.952-.357.074-.566.224-.208.357-.774.789-.283.223-.268h.282l.194.15.386-.076.254-.401.624-.12.328.03.401.238 1.98-3.572.327-.446.282-.373.388-.506.565-.446.312-.015.253.268.878.52.149-.43.952-1.638.506-.328.818.477-.357-.342.104-.477.313-.863.476-.804.52-.506.21.089.49-.327.446.297-.253-.223.105-.402.713-1.19.328-.834.417-.536.401-.283.164-.03.55.254.982-1.623 1.28-1.86.342-.21.164-.029.402.105.432-.685.43-.476.492-.358.61.402-.417-.372.179-.52 1.116-1.445.297-.357.432-.476.7-.596.58-.744.371-.417.55-.55.626-.432.387.416-.298-.476.655-.744.67-.685.163-.178.372-.313.193-.238.506.193-.297-.208.223-.52.193-.224 1.012.595-.149-.119-.193-.119-.164-.134-.208-.178-.208-.15.743-.907.774-.76.521-.49.253-.09.431.253-.505-.61.163-.417.432-.625.67-.715 1.547-1.98.669-.669.625-.551.268-.12.178.165-.357-.715.135-.238.49-.595.61-.774.447-.685 1.354-1.429.342-.298 1.026-1.28.626-.833 1.86-2.129.445-.417.507-.312.149.014.208-.014-.476-.268-.239-.551.12-.253.074-.521-.06-.283-.074-.684-.074-.402-.224-.864-.06-.476.135-.283-.134-.52-.536-.194-.312-.208.089-.24-.208.105-.164.045-.52-.536-.135-.283-.297-1.056-.193-.194-.313-.357-.283-.298-.386-.536-.06-.506-.387-.64h-.164v-.253l-.104-.625-.164-.09.15.7-.223.12-.18-.343-.044-.298-.015-.342-.179-.462-.148-.357-.209-.387-.267-.342-.328-.372-.863-1.191-.297-.18.164-.341-.283.298-.387-.388.431-.61-.372.357-.223.045-.223-.178-.253-.194-.387.104.536-.595.149-.372-.506.282.253-.387-.298.343-1.547-1.4-.625-.595-.714-1.13-.566-1.103-.282-.55-.105-.685-.06-.521-.103-.833.223-.06-.06-.328.179-.104-.268-.06-.044-.58-.224-1.28 3.124.983-3.139-1.295-.223-1.519.03-.193.253-1.013-.119-1.637-.208-1.101 1.83-.224-.03-.283-1.815.18-.03-.417.55-.09-.03-.238 2.069-.208-.06-.402-2.32.253.044-1.608.178-.06-.044-.208 1.815-.387-1.265.209-.61-.12-.09-.342 1.801-.566-1.83.328-.044-.268 1.785-.446h-1.116l.89-.194-.443.06-.045-.491.49-.209-.624-.074.46-.328h-.594l.402-.462-.58.164.237-.164.105-.267-.52.476-.224-.06.431-.535-.416.267.074-.267-.312.193.09-.298-.254.105.075-.506-.373.387.18.267-.373-.074-.163-.06-.283-.386-.194-.18-.193-.237-.268-.298-.238-.283-.194-.194-.164-.089-.192-.089-.403-.297-.743-.432-.298-.12-.268-.104-.342.045-.268.06-.327-.179h-.179l-.267.06-.254.089-.208-.03-.416-.104-.402-.09-.193-.014-.357-.194-.269-.09zM281.138 96.12l-.357.134-.119.223-.208.119-.15.164-.162.283-.209.356-.268.283-.655.477-.297.163-.178.15-.283.357-.193.06-.343.029-.357-.015-.253-.387-.268.134.015.253.075.208-.18.15-.296.088-.283-.03-.283.164h-.209l-.163-.03-.06.224.268.268.06.372h.163l.134.358.373 1.845-.298.388-1.042.922-1.19.372-.342.863.417.849-.105.446-1.532-.014-.15-.522-.758-.163-.09-.328-.818.134.12-1.95-.015-.699-.209-.982-.238-.447-.09-.402-.133-.312-.446-1.326-.417-.238-.58.135-.283-.581.179.595-.298.06-.461.506.149.447-.06.312-.06.268-.223-.119-.223-.447-.595.224-.03.431-.446.03-.402.06-.253-.03-.194-.105-.103-.312-.194-.164-.148-.431-.224.074-.163-.163-.967.312-.373.164-.252.134-.09.283.045.253.03.238-.164.044-.03.313.223.625-.178.119-.238-.044-1.295-.596-.46-.193-.403-.224-.238.15-.297.074-.164.253.06.416v.328l-.075.328.015.238.297.312.358.476-.075.298-1.071.596-.045.58-.074.253-.03.223-.014.313.178.209.238.06.402-.03h.297l.194.133-.342.253-.328.09-.49.03-.581.029h-.253l-.268.193-.074.239-.164.208-1.16.268-.015.64h-.432l.09.655.55.208-.015 1.087 2.396.357.43-.313v.64l-1.1.417.208.313 3.72-.268-.446.848-.432-.208-.015.417.55.238.09 1.087-.432-.03v.224l.432.014.521 1.504.283 3.438h-.432l-.015.878-.431-.015.848 1.727-.655-.015-.015.655h.447l.506 1.727.267.476.372.328.565.237.507.283.64.194.416-.015.417-.179 1.443-.431.386-.09.209-.193.238-.224-.044.254.178.327.223.223.55.164.298.358.79 1.651.177.909v.908l-.237.773-.343 1.028-.387.476-.282 1.399-.283.997-.476.953-.342.372.178.938.074.431-.074.596-.044.312h-.21l-.222-.714v-.417l-.09-.372-.178-.744.09-.759.163-.462.417-.417.297-.55.12-.685.371-.968.238-.803.179-.61.283-.432-.045-.223.268-.135-.134-.386-.09-.373.15-.342-.417-1.161-.253-.446-.328-.358-.178-.208-.655-.178-.282-.09-1.16.432-.24.238-.148.387-.06.446-.624.358-.774.536-.893.908-.758.595-.387.297-.253.06-.328-.044-.223.267-.327.313-.565.149h-.373l-.49-.224-.507-.297-.46-.149-.432.045-.372-.253-.461-.269-.67-.237-1.1-.655-.299-.268-.06-.238h-.252l-.952-1.593-.536-.997-.565-.775-.06-.208.313-.178.64-.06.445-.074.581.074.223-.06.387-.342.714-.908.357-.372.521.179.074-.254.923-.014-.074-.447-.03-.223.074-.208v-.283l.104-.253.105-.358v-.223l.044-.238.075-.223-.194-.432-.178-.253-.164-.134-.268-.075-.253-.014-.179.014-.238-.119-.297.015-.164-.03-.253-.193-.446-.253-.283-.208-.357-.224-.223-.104-.209-.12-.237-.163-.298-.133-.327-.253-.223-.105-.209-.163-.253-.12-.342-.238-.283-.193-.193-.164-.342-.149-.432-.312-.446-.313-.164-.09-.193-.223-.238-.015-.179-.089-.327-.223-.253-.134-.402-.283-.372-.209-.55-.446-.194-.045-.164-.148-.208-.224-.238-.044-.268-.179-.253-.208-.283-.15-.222-.223.64-1.041.669-.179.655-1.056-.149-1.46-1.012-.595-.55.848-1.801 2.828-.178.105-2.054-1.25-.46 1.086.148.834-.357-.06-.194-.06-.09.269-.148.044-.818.104-1.012-.014-.238.133-.282.06-.477.075-.282.133-.164.313.03.253-.15.313.03.372.164.729.12.58.104.908.044.447-.253.09-.044.237.104.522.193.074.268.178-.253-.044-2.053.238-1.087.149-.223-.253-.208.12.03-.254.178-.64.12-.476.044-.358-.134-.67-.372-1.027-.55-.788-.417-.64h-.342l-.06-.313.55-.64-.282-.357-.387-.387-.268-.209.52-.565.358.178-.773-.566.342.313-.506.58-.67-.61-.803.685.386-.432-.58-.55-.252-.194 1.085-.937-1.83 1.22-.937.685-.536-.179-.55.074-.387.149-.416.239-.298.327-.164.685-.208-.194.03-.298.104-.327.476-.774.328-.312 1.591-.075 2.009-2.024-.759-1.22h-.208l-1.28-1.176-.535-.522-.283-.297-.268-.12-.372-.06-.446-.193-.283.03-.565-.12-.55-.148-1.415-.342-.223-.134-1.978-.491-.15.267-.475.388-.09.267-.193.075h-.342l-.179.178-.03.224-.402.312-.654.686.744-1.102-1.265 1.547-.268.343-.401.58-.179.328-.431.506-.224.283-.148.312-.134.522-.402.104-.223.089-.461.372-.194.223-.298.313-.49.52-.149.046-.372.476-.268.357-.357.402-.238.223-.342.298-.313.328-.565.595-.313.238-.297.09-.387.103-.223.134-.536.581-.878.864-.788.193-.655-.209-.208-.654h-.432v-.447l-1.145-.074-.713-.052h-.006l-.115-.008-.61.67-.253.089-.892 1.787-.12.758.03.536.194.774 1.71.894-.356 1.934-.863-.014v.416l-1.101.224-.224.625-.877-.104-.432.297-.313.373-1.16 1.622-.357.64-.818 1.295-1.131 1.89-.7 1.072-1.815 2.947-.684 1.028-.774 1.16-.729.983-.506.685-.089.267.03.254-.268.655-.223-.12-.164.134-.431.581.922.565 1.16.298-.059.328-1.13-.313-1.34-.655-1.012 1.488.164.03-.193.134-.387.745.342.208-.209-.045-.163.12-.03.297.402.075-.03.253-.179.357-.223.163-.253.313-.089.343-.208-.045-.342.238-.342 1.28v.491h-.328l-.045.387.194.313-.074.253h-.253l-.239.178-.025.093-.037.134-.011.041-.105.388.035.112.004.016.066.214.237.253.849.163.416-.312.224-.015 1.413-.819.461-.104.729-.134.818-.03h.417l1.265.268 1.309.522 1.74.818 1.667-.432.774-.446 1.31-.863.52-1.072.58-1.22-.297-.09.06-.342.788.238-.015.357-.194-.06-.594 1.191-.164.566-.12.328-.252.267-.328.283-.46.327-.492.283-.893.447-1.13.566 1.74.744 1.027.58.461.58.566 1.133.03.297.401 1.265.164.417.294.426.004.006.006.005.44.396.431.253.61.462.64.253.566.208.476.09 1.711.298.387.044.803.253.521.447.268.446.283.298.297.357.417.655.208.208.387.388.328.267.252.179.268.104.417.015.595.03.267.03.403.09.46.222.402.134-.149.387-.49-.164-.328-.134h-1.726l-.387 1.072.164.327.238.254.179.297.06.358.193.52-.075 1.028.387.863.342.328.342.982 1.042.297.015.254-1.19-.328-.983.715.194.937-.461-.06-.328-.803.661-.504.04-.03.49-.374-.112-.3-.156-.414-.7-.685-.833.179-1.443.49-.506.388.209.654.06.328.133.313-.595.163-.03-.282-1.086.357-.06.52.7.12.074.506-.298.238-.997.492.997 3.14-.312.164-1.235-3.706.907-.343-.193-1.027-.446.09-.09-.388 2.01-.595-.314-1.161 3.438-.997-.149-1.325-.09-.268-.52.163-.491-1.443-.64-1.89-.253-.744-.06-.76-.476-.774-.356-.446-.432-.21-.298-.192-.401-.06-1.012-.193-.685-.179-.803-.193-.848-.313-.595-.223-.685-.462-1.056-1.101-.119-.253-.298-.76-.371-1.041-.013-.055-.006-.027-.031-.141-.01-.046-.06-.267-.252-.521-.164-.224-.267-.228-.01-.01-.14-.119-.773-.432-.596-.312-.431.7-.045-.343.194-.476-.388-.149-.178.447-.252-.105-.328.774.074.685-.357.03.015-.819.387-1.265-.417-.208-.58-.179-1.488-.774-1.012-.357-.952-.224-.461-.089h-.536l-1.012.119-.832.432-.314.304-.189.184-.012.011-1.048 1.019-.848 1.22-.447 1.043.075 1.324.49 1.147.21 1.83-.224 1.578-.134.328-.03.595.937-.074.105.535 1.116.105.223.134-.045.491-.476-.134-1.354-.55h-.847l.341.282-.193.789-.417.967-.116.318v.002l-.122.335-.213.23-.174.187-.387.73-.193.431-.387-.238-.238.685-.967 1.905-.606 1.722v.001l-.614 1.745.268.268-.387.983-.565 2.009.06 1.206.43 1.116-.118 1.22 1.175 1.028-.06.342-1.547-1.176-.12-1.757-.18-.256-.093-.13-.99-1.4-.417.209.11.224.036.071.538 1.09.194-.12.193.253.03.938-1.935-1.786-.312.298.09.091.028.027 1.161 1.176-.416.253-.67-.475-.268.267 2.292 1.935-.193.194-.388-.253-.416.401-.268.715.357.684-.61.075-.387.223-.133-.223-.626-.208-.907-.715-.417-.476.12-.879-.536-.06-.298-.55.103-.791.001-.013-.155.037-.485.112-1.07-.074-.998.193-.625.045-1.89.194-.178.55v-.267l-.208-.075-.848.06-.06.19-.021.062-.053.164h-.193l-.372-.133-.373-.164-.238.089-.164.342-.237.224-.194.074-.178-.045-.298-.164-.104-.312-.297.03-.64.12-.122-.023h-.003l-.04-.008-.37.104-.418.551.049.051.027.03.177.187-.178.074-.112-.074-.053-.036-.059-.038-.148.357-.447-.179-1.532 1.92.72.604.05.04.138.116-.15.43-.228-.098-.04-.017-1.04-.45-.343.7 1.052.49.005.002.223.104-.238.595-.245-.108-1.109-.487-.342.714 1.16.513.02.01.233.102-.134.238-.274.066-.005.001-.093.023-.55-.12.386.268.13.102.007.005.131.102-.149.312-.163.328-.134.238-.179.313-.022-.01v-.001l-1.287-.614-.328.73 1.31.624-.232.623-.006.017-.005-.002-1.409-.638-.282.7 1.328.596.007.004.123.055-.09.267-.089.253-.154-.053-.004-.002-1.464-.51-.208.625 1.403.524.025.01 1.161.434-.09.387-.58-.06-.714-.12-.022-.007-.04-.016-1.5-.572-.238.67 1.432.526.033.011.038.014-.357.521-.027-.01-.016-.005-1.535-.55-.237.67 1.147.398.004.002.262.09-.163.254-.194.357-.445-.165-1.043-.386-.238.655.58.2.893.306-.253.536-.685-.268h-.222l-.283.149-.322-.058h-.004l-.09-.016-.314.297-.55.357-.565.447-.997.833.098.098.004.005.15.15.611-.46.238.282.342.387.223.179-1.428 1.562-.789.82-.431-.641-.357-.387 1.309-.982-.402-.581-1.354 1.072-.193.223-1.592 1.131-.803.685-.21.128-.058.036-.031.132-.029.121-.015.357.655.134v.387l-.015.298-.432.09-.342.059.313.074v.447l-.447.134v.327l1.161.06v.342l-.238.491-.697.846.786-.801.179.253-.179.134.164.179-.149.267.61.774-.952 1.132.386.223 2.099-2.263.193.18-1.13 1.28.832.654 1.117-1.22.208.208-1.652 1.98.833-.953.283.238-.789.938h.001l.535-.58.268.282.208-.178.164.134v.208l.178-.03.134.075.224-.134h.193l.163.253-1.472.804.67-.283.535-.238.178-.09.253.075v.46l.506.016v.461l-2.44.12 2.649.06.014.296h-.268l-.892 2.338-.714.253-1.563.164-.119.386-.357.03-.61-5.135-1.071-.58.12.312.148.312.387 3.082.178 1.057.134.386.283.373.237.208.164.12.194.029h.223l.208.03 2.664-.327 1.1-2.933 1.756-.03-.312 1.22.416-1.22.179.015.833-1.965.387.09-1.294 3.9v-.003l.535-1.56 1.934.625.462-1.087.52.193.18-.52.58.193.877-2.322.18.372-.076 1.295-.238.402-.104.625-.535.715-.223-.135-.164.016-.343.46-.461.24-.252-.045-.387.238 1.264 1.057.893.7-.819 1.145-.208.075-2.425-1.816-.268.342.67.58-.223.269.803.625-.164.164-1.294-1.013-.238.268 1.443 1.414-1.443-1.012-.238.283.476.342-.357.417-1.667-1.22-.238.089-.297.044-.313.224-.178.446 1.8 1.578-.655.834-2.752-2.189-.67.596 1.77 1.488-.475.566-1.16-.863-.21.163-.996-.788-1.235 1.086 1.949 1.578-.372.491-1.726-1.176-.015.298 1.473 1.206-.238.312-1.83-1.324-.342.357 1.815 1.503-.178.238-.194-.119-.223.223-2.053-1.384 2.113 1.712-.447.61-2.574-1.682 1.116.849-.506.52-1.041-.818-.164.193.982.834-.461.506-.937-.819-.194.239 1.533 1.235-.373.446-1.562-1.175-.193.223 2.35 1.876-.327.386-.759-.49-.222.282-.596-.417-1.011 1.385.356 1.042-.163.253.64.566-.372.535-.209-.179-.372.477-2.35-1.86-.224.267 2.35 1.86-.148.254-1.264 1.593-.521-.283-1.027-.625-.862 1.056-.18-.148.075.282-.178-.164.074.298-.357-.03-.789-.595-.223.402-1.488 1.846.015.208.163.178.313.194.045.447-.134.253-.402.804-1.308-.372 1.263.505-.446 1.206-.416 1.116-.58 1.534-.82 2.262-.282.804-.223.461v.388l-.134.714-.06.417-.06.58-.088.998-.044.952-.09.402-.045.343.015.446v.238l.074.313-.014.491.014.223.06.357.045.566-.015.64.015.253.09.224.416 2.426.178 1.25.09.312.133.373.432.848.253.402.952 1.206.342.357.178.298.12.223.089.298.09.327.074.328.09.208.282.327.178.105.164.253h-.179l.194.193.193.06.164.074.164.357.163.224.67.744.52.52.238.15.164.134.312.268.299.208.297.179.252.12.283.073 3.021.506 2.202.388.402.089.327.148.253.164.253.209.164.178.535.164 3.973.997 2.261 1.638.105.431 2.589 1.846.431.447 1.488 2.917 1.31-.194.104.64-.447.432.312.536 1.325-.73.209.864-.878.417v.432h.431v.223l-.878.417v.223h.64l-.223.863-1.086.402-.015.655h.223v-.417l.655.209.223-.313h.431l.119-.536.55-.432 1.712-.417-.64.447-.729.477-.58.788-1.533.417v.655h.863l-1.31 1.057-.237.848 3.69 1.132-.134-.298 2.99-1.816-.907 2.783 1.517.447-.223.432.655-.223v.431l.655-.104.878-1.266.43-.103v.431h-.43l-.67 1.697-1.101.105-.64-.433-1.517.194-3.467-1.429v-.446l-7.38.044-1.325.938v.432h-.431l-.58 2.143 1.175 2.5 4.761 1.236v.417l.967.447.105 1.295 15.667-1.548-.015.431 10.892-1.92 9.805-1.385.863.12.015-.432 1.294.328 4.568-.268v.446l2.827-.417-.818-4.51-6.74.015-4.33-1.131-2.604.09v-.656l7.172-.238.446-.208.432.446 7.603-.357 8.897 1.623 2.605-.075.014-.447h-.431l.223-.848h-.432l-.133-2.188-.298-.343h-.447l-.61-.178-.58.03-.923.401-.878.328-1.011.566-.655.03-1.13-.06-.447-.09-.46.135-.67-.015-.268-.15-.506-.386-.7-.58-.342.089-.149-.164.06-.536-.313-.268-.386-.03-1.325.223-.059-.386 1.086-.194-.565-.938-.388-.744-.133-.893.014-.908-.357-1.22-.208-.372-.193-.358-.134-.238-.03-.208.134-.268h.164l.223.149.759.193.327.164.193.342.105.61-.298.477-.104.461-.06.715-.044.729.163.506.208.238.522.164.208-.015.49.313 2.649-1.92-2.44 2.069.194.267.208.581.714.819.432.61.431.298.521-.179.387-.134.223.075.55.06.819-.09.803-.18.223.12.864-.565.163-.387.193-.224.744-.432 1.31-.788.03-.551-.254-.417-.356-.327-.417-.268-.491-.343-.506-.714-.179-.357-.446-.64-.253-.12-.283-.431-.402-.342-.416-.447-.327-.164-.194.045-.49-.268-.417-.804-.253-.268-.357-.357-.432-.477-.342-.312-.342-.462-.461-.416-.358-.357-.268-.223-.312-.373-.833-.297-.357-.194-.074-.283-.224-.193-.342-.03-.387-.358-.625-.833-.193-.03.238-.476.253-.282.104-.24.253.12.179.015.253-.253.103.268.194-.09.238-.178.193.268-.386.387v.268l.133.238.194.104.193.209.298.014.134.238 1.16 1.117.313.149.52.491.298.134.387.015.7-1.414 1.085-.09 1.742.566-.016.417 1.726.893 2.455 4.332.268 4.316h-.431l.402 2.352.356.209 1.176-.358.788-.372 2.455-.075 1.548-.297.431-.417.879-.104-.016.432.447-.105.536.551.193 1.712 1.071 1.742-.268 3.438.953 1.741 2.187-.937 6.324-1.22 1.309-.626.893-1.816h.431l.565-1.503.135-1.489-.447-.03-.938-2.798.135-1.503h-.432l-2.143-11.432-.535-.863-2.827.283-.447.431-1.755 1.042-1.741.312.015-.446-.655.328-2.172-.343v-.67h-.208l-.015.879-6.324.982-.12.327-.163-.163-.164-.09-.193-.104-.193.015-.164.06-.298-.045-.535-.09-.178-.029h-.298l-.566-.075-.163-.059-.209-.253-.178-.149-.268-.045-.223-.446-.491-.417-.953-1.25-1.07-1.31-.239-.223-.282-.372-.03-.253.387-.268.595-.477.193-.774-.238-.416.298-.239.297-.313.923-.774-.58-1.354 1.458-1.235.178.06.074.297-.61.536.075.283-.074.297.193 1.43-.297.222-.417.328-.223.312-.194.313-.282 1.116.312.06-.223.849.074 1.011 1.607 1.519.417.61 1.607.343 1.324-.372.372-.149-.18-.268-.177-.521-.238-.238-.283-.655 1.086.863v-.625l-.357-.09.149-.253 1.295.238.43.968 2.515-.625-.312-4.079-.358-.46h-.222l-.223-.388-.239-.223-.267-.283v-.268l-.804-.61-.55-.655-.387-.492-.521-.699-.268-.06-.253-.044-.729-.968.402-.491.193-.253.238.06.238.238.194.134.238.387 1.116 1.384.401.432.863.997.268.387.298.238.55.521.343-.015-.015.312.015.21.178.192.447.447.149.283-.015.432-.164.357-.015 1.086-.045.388-.208.297.119.581.536.863 2.515-.431.312-.194 1.86-.819.238-.863.223-.626.104-.446.878-.193.55-.849.12-1.087-.864-.237.342-.64-.104-.417-3.69-1.131-.074-2.799.446-.64-.654-2.724 2.336-1.027 2.098-2.873 1.428-1.161 1.102-.268.386-.327.907 1.057.73-.581-.923-1.087.268-.416v-.373l.283-.446 1.651-1.057v-.432h.432l.119-.416 1.205-.849.342-1.518-.73-1.712-.877-.03-1.488-2.366-.654-.238-.208-.849-1.072-.446v-.447h-.654l-.343-.997.357-.09.105.447.758.327.209.552.877-.105 2.158 1.22-.342.849.743 1.295h.432v.446l1.086.239v.416h.432l.312.879 1.19.744 1.741-.715.997-1.056-.193-1.295-1.92-3.037-.505-2.59.848.968.655.014 1.8 4.004 1.19.566 1.086-.64.893-1.176.208.104 1.325-.848 2.722-.714-.625-2.159.491-3.87-1.487-2.173-.313-1.295h.431l1.057 2.069 1.31.119v.431h-.447l.223.656 1.295.223v.432l1.086-.09 1.532-.833.327.297-.118.447-.432-.015-.893 1.727h-.446l-.134 1.935 2.053 1.637 8.273-.878 1.994 6.267 1.443 4.97-.565 2.591-.447-.015v.655h.432l.223-.536.357-.03v.268l-.357.09-.446 1.057h.208l.298-.566.371-.075-.119.655.298 2.367-.878-.208.432.744.863.327.014-.848h.432l.015-.64.312.223.105 1.295-.224-.446-.432.208-.222.863-.804.12-.298-.134.15.297-1.593 2.04-.788 2.366h-.432l-.015.417-.655.223.209.744.878.12-.015.431 1.294.462.12-.447 2.082-.596-.014.417h.446v-.64h.432l-.12.64 1.34.105.074.342.863.134 1.488 2.917 1.086-.193.238-1.072.655.224.312.848-.684 2.159-.565 1.294-.864.194-.014.416.431.016v.863h-.447l.194 2.366-.654-.014.208.654-.432-.014v.208l.432.015v.223l-.878-.03v.447h.863l-.67 1.935-1.086-.655.015-.446-.67.208-.431.863-.015.432h.223l.075-.357 1.443.163-.223.432-.432-.238.149.298-.164.789h-.654v.431l.863-.104.208.759 2.634-.045.193-.208.297-.566-.089-.595.298-.461.61.208-.09-1.295.224-.417.595-3.661-.654-.015.237-1.28.64.878-.357-.953.372-.67 1.086.134.789-1.935-.7-4.525.655.208-.134-.997.58-.06v-.223l-1.517.194-.714-3.662.342-.863-.655-.224.224-.64h.43l-1.055-1.741h-.432l-2.544-13.798-.536-.447-.044 3.23-2.396.402v-.432l-.432-.014.015-.64-.654-.224.014-.431-2.38-1.519.12-.446-1.102-2.233-.908-2.516.179-.044-.58-3.17-.239-1.266-.268-1.414-.208-1.057-.416-2.114-.268-1.458-.208-1.161-.313-1.92.982-.417v.863h-.447l2.143 10.791 2.723.462.328-.848-.7-4.317.327.208.403 1.935 1.606 2.07 1.31.357v-.879l1.309.239.416.773.655.12-1.517-6.103v-.223l.044-.253.402-1.22.03-.224.119-.298.03-.431.089-.358.178-.744.209-.402.223-.179.386-.134 1.489-.729.788-.402.238.015 4.255 1.012.432.238-.149.283-.163.03-.342-.015-.253.06-.313-.045-.387-.134-.61-.12-.654-.163h-.268l-.343-.03-.297-.133-.342-.06-.61-.104-.179.015-.282.149-.388.237-.699.373-.417.208-.49.566-.134.52-.179.923-.119.522-.104.238-.074.193-.045.298.015.312-.03.7 1.235 4.972 1.607 1.83.431.12.209.536 2.172.58v.432l1.95.446-.016.432 7.782 4.198v.431l2.38.67-.014.432 1.31.446-.016.447 1.31.015.64 1.384 1.725.565.104.447 2.381 1.31.313.878.758.224-1.086 2.426-.818.55-.253.685-1.607 1.742-.342.342-.387.313-.714.327-.164.893.03.67-.461-.402.164-.953-1.37-.535-.045.327.403.864-.536-.715-.194-.402h-.208l-1.116 3.35-.312.595-.402 1.205-.432.208-.089.418-.714.372-.312 1.37.103.415-.803 1.102.268.253.67-.297.64-.12.401-.416.312.014-.565.581-.342.313v-.179l-.268.12.194.133-.045.044 1.042.194 1.398.76.863.759.179.387.7.149-.536-1.072.371-.432.55-.15.7.507-.03-1.444-.163-.49.357-.134.089-.299 1.89-.714 1.041-.64.15-1.161-.343-1.19-.402.089.223-.447-.193-1.503.327-.522.878-.208 2.009-3.736.446-.595 1.1-1.43 1.534-.193 2.35 2.069 1.072 1.742.654-.194-.46 1.384-.313.313.134.804.699.164.268-.61.297-.432.58-1.102.03-1.458.73-1.816.758-1.563.164-.135.238-.119.283-.267.327-.164.179-.075 5.089-2.59 5.207-2.62.089-.193.045-.64.134-.312.46-2.382-.014-.387.015-1.042-.074-.313-.7-1.31-.505-.506-.164-.133-.179-.194-.372-.327-.506-.432-.848-.67-.744-.595-.253-.253-.357-.194-.03-.461.18-.075.341.283.268.119.73.521 1.056.834.297.208.625.596.312-.269.06.298v.343l.179.178.282.298.313.312.52.983.105.432.089.268.03.655.149.223-.135.49.015.477-.208.819-.119.447-.134.684.224-.119.178-.268.298-.223.267-.164v-.209h.268l-.149.24-.595.386-.223.625.253.134.223-.268.596-.327.192-.179.164-.238.134-.298.134-.55.164-.343.208.12-.297.878.416-.24.328-.088.729.178.356.328.075.313-.148.312-.178.22-.314.39-.283.462-.03.447.18.089.06-.006.252-.024.52-.119.29-.079.484-.13.997-.074.268-.179.06-.461.223-.536.327-.461.223-.417-.417-.164-.4-.52-.522-.373-.06-.208.239.089.342.238.297.358.298.119-.164-.402-.327-.402-.476-.566-.655-.58-1.041-.7-.492-.462-.162.175-.06.064.065.17.083.217v.238l-.079.079-.218.219.044-.269-.104-.312-.03-.312.134-.447v-.61l.015-.313.185-.91.143-.697.178-.923-.194-.403.016-.312.342-.257.014-.01.21-.09.371-.268.625-.164.952-.536 1.503-.655 2.187-.342 1.116-.298 2.024-.863.548-.225.399-.567.408-.716-.321-1.285-.242-2.256-.184-.628-.581-1.062-.346-1.1-.43-1.084.344-.637.03-1.208-.293-.635-.126-.94.104-.744-.027-.637.175-1.135.034-1.16-.076-.685.188-1.208.145-.957.259-.745.276-.834.22-.76.234-.908.084-.734.107-1.321-.07-.929-.055-.856.117-1.05-.049-.69-.1-.797.02-1.745-.17-.744-.12-.666.075-.693-.017-.786-.077-4.745.515-.785.093-.954.06-.651-.111-1.185-.138-.727-.056-.712-.02-.646-.02-1.014-.055-1.201-.305-1.784-.285-1.374-.123-1.07-.153-.822-.237-1.165-.236-1.165-.16-.795-.17-.823-.235-1.112-.203-.902-.285-.998-.407-1.33.912-.508.485-.27.599-.306.49-.255.519-.24.54-.21.542-.185.7-.238.561-.184.548-.213.521-.174 1.355-.475 1.035-.28.52-.14.587-.089.576-.094.487-.082.591-.101.7-.12.637-.118.607-.168.534-.146.585-.164.345-.73.418-.847.458-.854.325-.657.432-.83.422-.858.408-.87.582-1.02.263-.623.494-.76.377-.748.244-1.174-.01-1.116-.187-1.79-.12-1.535-.085-1.774-.173-1.456-.194-2.06-.178-1.014-.705-.644-.51-.307-1.158-.79-.593-.516-.48-.417-.48-.418-1.081-.917-.714-.604-.608-.52-.683-.57-.533-.362-.65-.578-1.305-1.053-2.333-2-.561-.59-.995-.616-.695-.504-1.323-1.183-.646-.496-.825-.644-.531-.478-1.02-.77-.543-.398-.57-.475-1.127-.875-2.01-1.559-.633-.461-.58-.52-.577-.492-.72-.512-.5-.35-1.217-.933-.51-.403-.792-.664-.92-.424.622.921-.601-.076-.339-.53h.186-.431l-.539-1.105-.31-.636H326.639l-.13-.408-.078-.247-.14.02-1.17.173-.223.863-.446-.014-1.25 4.287.417.431.625 2.59-.774.848h-.655l.521 1.296-.03 2.381 1.102 1.876-.581-.164v-.417l-.64-.238v-.432l-1.294-.55-1.086-.328-.64-1.742-.387-.06-.164-.148-.282-.417-.298-.386-.402-.447-.178-.209-.223-.133-.298-.328-.283-.342-.327-.358-.402-.535-.46-.685-.21-.358-.119-.327-.103-.387-.15-.327-.297-.447-.164-.327-.327-.953v-.312l-.223-.596-.134-.447-.193-.06-.343-.58-.297-.476-.402-.491-.997-1.236-.431-.64-1.16-1.756-.343-.997.863.342 1.101-.52.015-.447.461-.7-.848-1.22-.134-1.102-.253-.327-.327-.388-.253-.446-.536-1.652-.655-.224-.193-.863-2.276-.506-.387.328-.164.118-.298.12-.372.148-.282.134-.075.254v.252l-.178.075-.774.06.863.104.328.193.312.387.03.268-.03.67-.045.566-.134.342-.446.312-.298.075-1.324-.209.878.373-.164.193-.297.164-.58.164-.893.119-.863.03h-.744l-.521-.15-.431.12-.566.417-.699.7-.238.148-.849-.104-.862-2.382.208-.506.09-.253.014-.253.134-.521-.03-.268.179-.283-.09-.372-.208-.193-.431-.075-.58-.104-.462-.193-.431-.15-.342-.133-.21-.164-.192-.09h-.015l-.744-.178-.387-.06-.253-.193-.104.045-.03-.016-.223.105-.565.06-.342-.075v-.268l-.358.194-.178.119-.238.06-.61.088-.239-.074-.252-.193-.253.074-.223-.074-1.563-.313-.506-.179-1.16-.268-.09-.312-.059-.268-.416-.015-.12.774-.654-.327-1.25-.685-.238-.298-.223-.223-.417-.134-.238-.149-1.25-1.087-.223-.089-.179-.06-.342.134zm-23.955 25.2l-.09.372-.356.06.446-.432zm-21.797 101.962l.654-.209 1.607 1.742-.015 1.087.461.997-.684-.79-.312-1.175-.64-.03-.863-1.399h-.208v-.223zm4.954 3.945h.208v.223l-.208-.223zm-.67.416l.447.015v.209l-.446-.224zm-10.564 18.16l-.535-.224.015-.431-.759-.447.328-.64-1.518-.655.015-.416-1.741-.253v-.432l-6.1-3.587-.268-.238-.209-.283.164-.357.387-.268.208-.015.193.015.164.133.417.447 5.922 3.513v.446l1.085.224v.432h.864l-.224.431.298-.134 4.24 2.352-.446.432v.431l-2.603.164.103-.64zm47.955 6.341l-.059-.55.446-.224.194.878-.58-.104zm-108.646 22.223v.208l-.223-.208h.223zm-2.827.834h.209l-.224.208.015-.208z"/>
            <path d="M331.54 235.349l.1-.025h-.077l-.018-.006zM204.095 113.922l.178-.179.239-.297.342-.164.223-.015.179-.06-.045-.312-.164-.015-.015-.238.015-.253-.238.06-.238.357.045.297-.447.58zM203.649 119.995l.089-.253.03-.253h-.179l-.372.461-.164.03-.193.045-.194.104-.238.134-.178.149-.164.178-.253.402-.446.506-.164.179-.193.134-.268.313-.268.49-.164.358-.341.446-.418.715-.535.774-1.175 1.83-.566.626-.52.774-.268.402-.194.328-.312.729-.67.685-.134.253-.253.267-.848 1.236-.416.73-1.101 1.577-.76 1.131-.297.21-.268.43-.223.64-.134.373-.163.223-.417.506-.134.417-.06.253-.178.194v.476l.223-.164.164-.223.253-.313.298-.223.267-.268.372-.476.61-.492.818-.922.358-.477.744-.968.982-1.1.476-.492.223-.328.178-.52.105-.239.163-.268.194-.268.163-.148.238-.372.209-.298.238-.283.402-.387.327-.461 1.458-2.233 1.265-1.771.58-1.057.789-1.117.371-.357.328-.268.372-.253.193-.462.238-.342.12-.357.03-.298-.06-.73zM231.755 95.733l-.074-.253-.209-.194-.208-.208-.253-.12-.268-.044-.402.06-.252.118-.075.313-.045.253-.089.238-.372.342-.074.224v.208l.074.372.12.21-.016.297.402-.06.223-.149.179.015.431-.134.477-.357.238-.343.178-.402zM207.636 72.72l.223 1.072.075-.104-.134-.968zM170.513 113.922l.357-.06-.179-.044z"/>
            <path d="M153.417 176.707l.402.045-.714.297.654-.104-.044.238-.06.253.074.417.105.238.595.848.431.521.521.328.61.342.074-.342.254.044v.388l.446-.045.416-.12.745-.223-.06-.446 1.012-.328.655 1.072.044-.298.506-.505-.625.327-.268-.73 1.027-.922.491-.373.952.85-.818-.969.401-.193.194-.179.282.269.64.52-.729-.937.343-.283.848.73-.715-.834.149-.283.372-.164.327-.268.848.745-.312-.358-.06-.297.313.074.402.461.565-.461-.535-.64.267-.194-.119-.342.67-.476.387-.387.67-.447.401-.179.431-.133 1.935-.388h.223l.982-.208 1.31-.238 1.085-.134.105.655 4.657-.58-.03-.328 1.176-.12 1.086-.103.55-.58.387-.76.476-1.236.253-.714.343-.952.178-.655.208-.73.387-1.414.164-.714.104-.58.327-1.802.239-1.4.103-.654.15-.67.074-1.354.06-.21.089-.698v-.254l-.075-.46-.179-.403-.267-.312-.372-.358-.164-.193-.253-.402-.625-3.29.67.313.06-.283-.76-.417.03-.55.982.52.253-.03-.104-2.828.461-2.59.06-.357.357-.937.357-.477.565-.878.863-1.22 2.381-3.87.55-.73.432-.625.342-.506.164-.298.223-.342.164-.15.163-.133.238-.208.55-.492 1.385-2.337.833-.982 1.19-1.474 1.146-1.414 1.176-1.771 1.22-1.92 1.963-2.918.224-.312.61-.64.476-.536.595-.863.67-.998.237-.655.254-.312-.254-.864-.267-.952-.328-.938-.223-.595-.163-.953v-.297l.044-.269.104-.595.075-.208.193-.373.298-.297.327-.238.313-.223 1.264-.85 1.116-1.666.164-.358.119-.327.327-.938.655.194-.61-.327.803-1.46.238-.163.12-.208.714-.64.446-.402.536-.417.818-.566.774-.55.58-1.057.164-.76.06-2.649-.046-.342.015-.61-.163-.075-.09-.461-.193-.581-.223-.55-.06-.343-.133-.298-1.131-1.92-.387-.402-.298-.491-.565-1.042-.179-.923.015-.982-.03-.194.134-1.027.105-1.042-.06-.937.12-.909.029-1.815-.06-1.43-.238-4.212-.178-2.887-.03-.21-.357-3.78.044-1.414.09-.64.074-.268.298-.7.952-2.321 1.175-2.725.238-.684.358-1.19.267-.64.491-.85.417-.848.908-1.667.52-.968.893-1.711.7-1.22.847-1.415.15-.76.951-.996.417-.909.283.135.788-1.176.313-.55.506-.91.654-.55.506-.952.06-.358-.224-.297.983-.224.773-1.682.446-.342.045-.387.179-.328.446-1.056-.238-.313.298.134.119-1.087.163-.595-.015-.655-.357-.625-.461-.506-.714-.387-.58-.193-1.057-.283-.58-.015-1.086.49-.506.447-.268-.536.313-.446-1.325-.76-.268.194.313.715.491.491-.045.372-.193.268-.372.015-.387-.149-.446-.476-.209-.715-.03-.49.194-.581-.045-.566-.64-.536-.46-.06-.387-.074-.298.03-.179.164-.52.044-.15-.163-.044-.238-.342.401-.297.343-.343.133-.506.536-.267.373-.402.848-.193.313-.388.907-.252.343-.224.625-.193.402-.119.387-.179.655.06.343.015.238-.194.208-.104.238.179.074.119.313-.12.268-.178.209.09.267-.15.283-.267.55-.67 1.296-.148.223-.134.328-.343.58-.208.357-.357.581-.297.432-1.473 2.798-1.057 1.756-.506 1.191-.193.432-.372.774-.565.804-.432.446-.997.521-.416.357-.254.045-.327.268-.283.52.105.581.535 4.853-.803 1.503-.596 1.668-.788 2.44-.402 2.218-2.425 4.957-.446.536-.164-.09-.194.358-.803-.402-.432.834-.193-.12-.476.953-.997 2.04 1.027.52-.179.61-1.324 1.831-.163.432-.626.715-.267.461-.625.789-.253.491-.61.79-.536 1.16-.194.492-2.365 4.33-.313.492-.55.982-1.027 1.727-2.604 4.763-2.96 5.344-2.62 5.061-.58.12h.551l-.461.847-.506-.505-.194.103-.357.67.402-.61.164-.074.223.655-.58-.12.342.432-.58-.104.64.327-1.235 2.382-.15.462-.476.833-.044.268-1.042.149.164.045.402.014.372-.03.193-.03-.283.313h-.297l-.52.179.505.06-.283.252.402-.06-.565.775-.357.134.163-.015-.699 1.206-.878.104.015.223.714-.044-.089.282-.923.134.015.209.878.06-.238.238-.283.446-.134.387-.357.55-1.443-.49 1.443.729-.178.372-1.324-.491 1.115.625-.193.328-1.369-.715-.119.208 1.384.73-.863 1.578-1.578-.849-.163.298 1.548.833-.343.522-1.502-.834-.179.298 2.113 1.116-.432.789-2.113-1.131-.148.267 2.083 1.146-.432.79-2.098-1.147-.134.298 1.994 1.265-.164.09.075.208-.208.387-2.01-1.087-.163.313 2.009 1.102-.283.535-.208.134-1.92-1.057-.163.269 1.413.774-.282.49-1.548-.625 1.473.79-.431.774-1.533-.655 1.444.818-.313.491-.223-.104-.878 1.682-1.295-.684-.312.565 1.295.714-.164.283.267.179-.357.372-1.458 2.59-.878 2.977-.193.7-.193-.06-.238.804-.76-.03-.044.298 1.428.238-.06.52-1.442-.192-.045.312 1.444.209-.075.49-1.443-.163-.03.312 1.413.194-.074.506-1.443-.179-.03.372 1.444.209-.016.238.521.104-.119.804-.327-.03-.104.239-1.562-.194-.075.283 1.652.253-.045.253.357.074-.238.82-.03.341-1.71-.015 1.636.447v.268l-1.175-.06-.03.521-.506-.03-.015.328.491.015-.03.431.774.045-.045.67-.416-.03v.253l.386.045-.104 1.772-.104 1.384-.744-.045-.015.253.73.03.059.357-.09.224-1.993-.016v.238l1.964.03-.134 2.144-1.875-.209-.193 1.876 1.949.193-.074.7-.075.982-.104.819-.09.447-.148.982-.283 1.697-.357-.06-.119.566.253.06-.06.402-1.011-.18-.045.299.774.133-.03.21.357.073-.223 1.221-2.232-.357-.595 4.242.878.179-.045.208-.149.298.03.297-.074.238-.789-.148-.64 3.646.432.134-.223.774-.357-.089-.15.774.269 1.132z"/>
            <path d="M191.388 78.124l.253-.432-.49-.193-.209.312zM304.483 44.365l.105-.045.103-.223-.014-.254-.238-.06-.268.254.015.313.208.015zM285.096 57.36l-.015.207h.223v-.208zM316.52 50.393l-.64-.595-.222-.134-.268-.224-.893-1.041v-.254l-.134-.342-.67-.73-.178-.163-.208-.149-.208-.12-.268-.059h-.194l-.402.105-.133.253.163.476v.328l.06.431.044.417.12.327.089.357-.06.313.044.402.075.223-.03.343-.06.327-.237.402-.298.268.15.238V52l.029.269.282.178-.104.328-.386.014-.016.313.105.342.238.105.7 1.518-.194.908-.03.312-.149.491v.254l.194.163.252.254.432.758.283.388.223.282.223.06.357-.09h.283l-.12-.268-.267-.282-.268-.417-.238-.312-.149-.313-.044-.223-.06-.328.045-.372.149-.447.193-.52.015-.209.253-1.027-.194-.447-.193-.49-.164-.537.12-.372.223-.357.208.12.178-.224.313-.55.297-.15.223-.104.209-.06.223-.119.194-.119.342-.015.178-.06zM306.269 50.334l.104.357.298.06.014-.165-.163-.327zM305.064 44.32l.089.312.075-.089v-.134l-.135-.297zM260.323 114.056v.208h.431l.015-.208zM261.215 112.776l-.431-.446-.223.64.223.03z"/>
            <path d="M232.053 91.103h.223l-.223.224v-.224zM214.51 30.611h.387l.194.164.223.089.104.125.044.053.357.388.536.64.819.908.907.282.625-.03.73.09 1.249.491.357.149.67.238.788.387.55.461.432.536.387.655.074.315.075.325-.164.194-.104.7-.053.314-.028.175-.03.173-.007.045-.023.137-.022.138-.143.332-.08.189-.093.338-.131.48-.193.7-.64.982-1.34 1.876-.907 1.236-.446.714-.446.67-.64.893-.372.327-1.862 2.702-.023.034-.094.137-.158.4-.076.195-.124.313-.022.004-.007.001-.223.04-.67 1.16-.684 1.4-.164.327-.268.581-.164.342-.223.358-.357.55-.238.417-.327.462-.268.476-.235.438-.019.035-.178.33-.505.953-.108.161-.017.025-.024.038-.018.056-.01.027-.21.646-.134.52.015.254-.133.203-.12.184-.06.327-.029.07-.448 1.096v.002l-.002.004-.027.064-.006.116-.003.058-.003.047-.003.047-.015.045-.208.595-.223.461-.283.744-.312.581-.268.402-.149.387-.163.566-.15.595-.148.863-.104.953-.015.536.104.804.253 2.456-.015.223.164 1.146.09.447.047.808.01.162.12 2.036.059-.001.03-.001.462-.012.015.268-.452.024-.039.003-.045.002.06 2.486v1.25l-.03 2.323-.044 1.13-.045.804-.09.7.046.819v.73l.059.996.46.908 1.326 1.801.654 1.176.219.088.003.001.076.03.342-.03.268.462.014.209-.133.208.03.283.208.074.297.12.372-.046.372-.044.61-.015h.61l.208.06.238.118.239.168.059.041.387.298.028.032.136.161.238.298.179.461.119.298.133.253.298.372.178.09.388.268.386.208.447.238.386.179.005.002.288.14.258.126.446.267.283.134.357.194.298.194.122.065.1.054h.006l.263.06.55.059.268.014.223.06.209-.045.252-.134.269-.208.327-.283.342-.342.417-.343.49-.774.372-.46.194-.18.446-.744.521-.61.952-1.325.432-.432.253-.148.327-.135.342-.386.209-.253.699-.06.744-.193.848-.268.208-.715 1.533.015.655-.208-.016.417 1.98-.164-.016.416 1.742.015v.64l1.086.239.208.863h.431l.432 1.087.64.327 4.15-.7.21.878h.654v.21H244v.207l1.087.447.223-.64h.431l.208.67 1.206-.164-.09.491.417.075.075-.506-.387-.06.312-.03 1.696-2.843.075-.253.193-.179.164-.416.268-.432.312-.893-1.518-3.84-.58-1.177-.253-.357-.268-.282-.193-.224-.64-.268-.283-.178-.327-.164-1.413-.625-1.578-.67-.238-.238-.134-.313-.193-.044-.536-.64-.372-.387-.67-.685-.371-.52-.357-1.132-.164-.432-.134-.208-.223-.372v-.402l-.282-.447-.179-.313.104-1.086.075-.744.014-.7v-.774l.208-.402.313-.417.074-.282.104-.432-.119-.342-.297-.447.119-.536.134-.327.06-.388.088-.52.194-.224.313.09.208-.06.654-.997.045-.283.015-.432.06-.327.074-.313.06-.283.267-.759.238-.446.893-1.325.074-.447.06-.238.119-.223 1.042-2.069.312-.849-.193.909-1.012 2.039-.104.238-.075.208-.06.432-.922 1.473-.312.552-.09.238-.089.253-.104.357-.164 1.399-.744 1.161-.223.12h-.164l-.163.059-.104.223-.015.372-.06.268-.089.208-.09.224-.014.267.268.343.089.268.075.223-.224.878-.015.298-.342 1.117-.09.625-.059.55.075.254.104.907-.045.447.104.387.238.179.357.937.194.313.12.298.088.476.12.253.699.655.431.328 1.012 1.041.297.238.476.313.878.358 3.11 1.027.461.282.328.298.744 1.206.431.803.253.61.268.358.238.06.744.104.967.163 1.875.298.922.268.432.52.253.656-.03-.64-.208-.164-.268-.387.283-.074.52-.179.298 1.28.015 1.057-.045.655.179.52.283.329.342.044.625.015.208.12.268.074-.015.461h.253l.223-.075.387.12.461-.015.491-.105.566-.06.238-.014.163.134.67-.015.208-.625.238.179.238.015.134.238.223-.045.491-.164.15-.282.073-.299-.104-.222-.357-.06-.223-.283.09-.536-.224-.431-.655-.462-.222-1.355.61-.967-.18-.402.268-.491-.238-.462-.282-.267-.328-.179-.282-.253-.253-.164-.744-.194-.268-.089.045-.342.49-.045.343.164.357.03.268.446 1.116.521.372.462.461 1.265.298.268.178-.045.298-.208.044-.327.239-.402.252-.045.715-1.875.03-.269 1.264-2.961v-.388l.193-.461.402-.387.789-.402.238-1.488-1.786-5.002-.312-1.459v-.46l.312-.864.209-.64.327-.104.952-.983.343-.655.208-.55-.268-1.891-.104-1.295-.134-1.042h.357l.045.565.327.03-.12.432-.044.268-.015.313-.014.416.06.283.267 2.203.03.417-.313.432-.803.893-.64.729-.194.342-.193.522-.045.372.015.238.342 1.518.402 1.235.625 1.519.328.342.074.774.193.194.015.7-.044 2.798-.432.401-.297 5.433.565 1.161.164.447.119.402.402.759.119.67.06.491.252.387.178.343.164.133.238.045.536.179.52.267.447.224.208.03 1.042.074.49-.178.03-.253-.148-.388-.03-.402.163-.283-.178-.312-.104-.357-.03-.432.045-.49.178-.567.179-.327.312-.417.402-.447.476-.342.462-.223.476-.119.401-.045.536.045.357.03.402-.12.416-.253 1.354-.506 1.087-.387.52-.06 1.682-.46.773-.194.506-.015.06.268 1.16-.03.372.164.551.223.758.074 1.087.224.655.327.848 1.534 1.294.655v.431l.863.55.655-.416 1.1.12.209.654.863.209.208.655 2.604 1.22.372.447.446.401.476.358.67.163.476-.119.58-.297.254-.447.074-.461-.15-.521-.297-.388-.014-.58h-.506l.163.105-.104.238-.535.074-3.884-2.277-.223-.045-1.563-.253-.103-.432-.878.417-.848-1.623-.655-.119-.312-1.25.044-.238-.074-.268-.03-.477-.253-.372-.282-.208-.164.015-.09-.268-.163-.357.015-.387.327-.03.119.253.194.164.52.313.164.193.164.238.193.343.223.193.55.848-.029.358-.194.402.179.119.253.03.268-.269.208-.149.297-.103.045-.358.134-.104.298-.209.55-.55.268-.402.372-.506.253.104v-.119l.149-.015.163-.134.268.15-.238-.343.015-.61-.253-.045-.104-.045-.491-.238-.491-.208-.298-.179-.06-.283-.178-.06-.208.06-.58-.179-.432.105-.178-.06-.193-.045-.358-.089-.163-.134-.417-.491-.58-.774-.12-.402-.059-.372.134-.67-.565-1.22-.194-1.668-.223-.148-.193-.298-.849.09-.401.342-.268.178-.565.283-.714.327-.507-.163-.43.417-.343-.194.015-.327.535-.328-.52-.446.342-1.504 2.41-.387v-.238l-2.172-.015-1.22-2.605-.223-.298-.134-.372-.075-.297-.149-.328-.148-.446-.03-.626-.074-.446-.045-.58.06-.224-.045-.387-.09-.491-.059-.58-.03-.298.045-.477.223-.476.164.015.282-.09.254-.178.222-.313-.163-.536-.178-.624-.075-.313-.194-.432-.06-.432v-.402l-.311-.49-.209-.15-.104-.208.208-.283.313-.357.297.193.194.164.12.387h.281l.402-.09.283-.118.12-.313-.165-.208-.372-.179.105-.268.163-.03.268.016.357.208.074.431.521-2.203-.461 1.46-.283-.09-.253-.06h-.267l-.164-.312.565-.596-.655.253-.193.06-.119-.238-.193-.313-.432.283-.282-.06-.015-.282.044-.328.075-.387.089-.417.134-.267.208-.224.03-.387-.208-.238-.268-.313-.208-.416.074-.224.283-.312-.253.045-.342-.03-.15-.104-.089-.61v-.447l.045-.536.253-.834-.03-.223 2.708-.045-.283-3.93-.624-1.324-.476-.238-.402-.12-.7-.223-.223-.119-.342-.134-1.28-.922-.64-.387v-1.057l.03-1.86-.149-.954-1.532-1.488-.625-.491v-1.117l-.089-.565.044-.551-.03-.253.06-.565-.06-.79.046-.208.357-.967.044-.388.104-.312.015-.387.342-.7.283-.804.104-.312.06-.327.208-.58.209-1.087.208-.998.104-.685.045-.342-.075-.744.461-.074.03.357.045.997-.09.685-.089.416-.044.372-.09.283-.148.998-.12.789-.55 2.738-.58 1.876-.15 1.429.194 1.235.461.626 1.265.58.67-.759.49-.075-.237.64.505.15.447-.343.49-.595.358.06.134 1.19.015.327.52.551-.729 1.563-.937 1.325.164.134 1.026-.908v.223l.075.61-.134.804.134.298.12.7.698-1.385.61.923.789.194.446.267.655 1.042.759 1.146.402.313-.015-.7.386-.238.343.417.654-.044-.044-.775-.075-.446.343-.223.654.327.104.462.12.982.044.863.193 1.474.09.52-.075.581-.565.224.238 1.057 1.696 3.26.238 1.146.075.372.654.446.447-1.727.892-.431.134-2.144-.312-.655h-.446l.297-.848h.595l.223-.923.819-.685.297-.09.506-.043h.402l-.149-.21v-.52l-.208-.953.789-1.384 1.056-1.086-.715-1.653-.133-.595.149-1.355.222-1.31.938-1.354 1.384-.655 1.473-.238 1.488.179.55-.64.283-.566-.149-.625-.565-.432-1.37.074-.267-.387.12-.789.698-1.295.952-1.086.016-1.578-1.19-.52-1.28.059h-.536l-.432-.387.313-1.147-.372-.119-.818.521-.715.581-.654.208-.596 1.057-.401.744-.015.521.223.521.193.64-.044.819-.208.61-.476.492-.908.386-.804.388-1.07 1.994-1.355 2.397v.015l-.833.61-.045-.477-1.086-.625-.789-.714.298-.536.982.342.684-.387.819-1.875.7-1.43.639-1.041.967-.447 1.056-1.95.655-1.964.55-1.474.943-1.751-.117-.039-.714-.257-.526-.165-.932-.32-.672-.163-.612-.208-.642-.225-1.683-.587-.713-.275-1.035-.354-.515-.117-.641-.172-.76-.252-.74-.318-.79-.176-.855-.338-.75-.24-.86-.286-1.19-.384-.729-.272-.57-.148-.848-.263-.51-.18-1.281-.438-.915.069-.314.666-.514-.105-.55-.226-1.735-.57-.5-.29-.885-.358-.57-.197-.576-.238-.551-.188-.568-.22-1.019-.39-.715-.303-.7-.243-.672-.201-.373-1.293-.407-1.29-.022-.63.285-.778-.1-.75L268.08 12l-.276-.718-.122-1.035-.166-.649-.646-.001-.675-.077-.88-.547-.436-.731-.55-.2-.526-.277-1.327-.63-.991-.001-.546.235-.828-.36-.477-.328.464-.723.644-.757.28-.683-.52.443-.485-.339-.908.793-.033.848.381.658-.582.504-.562.382-.485.131.113.682-.551.65.003.67-.457.845-.492.346-.733-.015.13.67.06.755-.512-.084-.55-.224-.7-.3-.542-.273-1.156-.222-.623-.245-.85-.327-.597-.426-.755-.293-1.223-.465-1.274-.487-.669-.251-.547-.204-.518-.196-.638-.248-1.138-.372-.574-.32-.563-.19-.528-.2-.578-.255-.755-.243-.808-.075-.746-.39-.54-.063-1.393-.56-2.281-.913-.562-.21-2.476-1.061-.51-.31-.812-.149-.715-.168-.586-.26-1.135-.501-1.123-.404-1.132-.409-1.867-.676-.753-.27-.488-.234-.45 2.49L217.5 21.68l-2.128 6.385-1.246 2.494-.003.007.09.01.296.035z"/>
            <path d="M303.442 64.444l.342.834.179.268.357.283.238.163.312-.089.268-.238.208-.208.596-.432.238-.536.238-.506-.105-1.117-.238-.818-.729-.848-.431-.536.06-.775.074-.253.134-.58.104-.566.416-.788.61-.76-.163-.848-.596-.64h-.371l-.208-.298-.253-.431-.402-.67.416-.134-.238-.372-.55-.12-.997-.431-.997-1.295.61-.268-.179-.119h-.312l-.312-.15-.105-.207.06-.849-.208-.565-.045-.67v-.819l-.327-.536h-.417l-.372.298-.178.372-.328.372-.312.149-.06.565-.119.388-.208.134-.06.223.283.238.461.863.566 1.206-.67.208.208.626.626-.194.341.968-.341.595-.016.536-.371.565-.328.328-.119.744-.134.73.357.714.551.76.506 1.1.09.492.445.625.715 1.146.312.595.491.715.387.417zM332.352 235.294l-.447.03.447-.03.535-.134zM333.959 235.115l-.283-.074.283.074.327-.074zM328.588 113.475l-.432-.223.432.223.327-.416zM333.468 228.581l-.298-.074-.565-.045.565.045.298.074.461-.074.208.193.179.268-.179-.268-.208-.193zM335.06 228.7l-.194.253.194-.253.015-.298zM334.852 233.865l.074-.327-.074.327zM334.762 234.58l-.208.282.208-.282.179-.447zM335.432 233.017l-.09.238.09-.238.164-.283zM343.243 221.347l-.283-.015-.55-.253.55.253.283.015.76-.789zM338.261 222.495l-1.386.25-.818.135-2.173 1.116-.25.15-.122.074.122-.073.054.002.934-.414.994-.516.913-.373 1.509-.266.223-.085.012-.002 1.176-.253-1.176.253zM330.045 238.748l1.95-.075-1.95.075zM328.96 238.524l-.655-.03.655.03zM326.757 240.653l-.446-.03.446.03zM333.438 270.512l2.053.7.818.446-.818-.446zM335.878 263.576l-.536-.209.536.209zM321.4 249.837l-.43-.03.43.03zM316.208 248.036l.55-.432-.55.432zM248.385 106.076l-.01-.103-.015-.402-.164-.49-.268-.418-.267-.312-.387-.328-.506-.327-.357-.149-.328-.193-.357-.253-.253-.313-.297-.298-.536-.432-.446-.312-.402-.298-.402-.208-.714-.178-.431-.03-.447-.105-.416-.074-.343-.12-.253-.133-.357-.12-.312-.252-.208-.09-.253-.297-.58-.655-.596-.536-.401-.343-.328-.163-.297-.015-.224.03-.282.238-.238.179-.313.03-.446-.135-.298.179-.238.238-.387.462-.178.297-.134.73-.06.357-.014.253-.105.342-.104.61-.015.224-.074.417.015.297.074.313.045.253.06.446.059.328.06.432.073.2.02.055.01.028.387.06H235.698l.253.207.223.774.134.626.327.684.328.253.49.224.7.163.372.045.134.238.268-.06.372.105h.238l.282.044.848.269 1.176.386.61.075h.714l.179.06.268-.016.282-.06.268-.118.312-.09.313-.03.164.06.223.09h.283l.446-.105.416-.044.507-.03.267-.104.313-.328.357-.208.312-.268.002-.008.102-.32.12-.297.03-.05.148-.248-.044-.357-.05-.477zM330.403 233.21l-.09.358.09-.358.208-.253zM329.837 235.175l.238-.283.253-.193.104-.253-.104.253-.253.193zM323.394 255.7l.209-.683-.21.684zM317.74 246.964l-1.085-.224 1.086.224zM317.89 251.92l.862.015-.863-.014-.014.863zM319.705 246.13l-2.158-.878 2.158.878.03-1.071 1.517-.194-1.518.194zM333.959 237.259l-.417.045.417-.045.014-.283zM329.659 235.83l-.209.179-.044.282.044-.282.209-.179.208-.447zM330.045 238.33l-1.086-.237 1.086.238zM314.244 248.2l-1.012 2.366.105.759 2.157.238.592-.172-.21-1.916-.178-1.766-1.142.267zM326.92 272.462v.227l.445-.439.865-.413-.865.413zM326.043 273.102l-.893 1.28-.654.194-.67 1.086-.431-.03-.098.789 1.804-1.937.738-.727.809-.798.273-.065-.273.065zM285.825 242.87h-.878v.432h.432l.208.864.446-.64h.209l.015-.417h.208l.015-.863-.432-.016zM286.019 244.166v.446l.654.209v-.417zM299.35 256.193l.238.283.12.372.059.58-.15.64.447-.178.566-.834.223-.12.878-.818.535-.223.194-.402.55.015.7-.774 1.756-.491.981-.968-.297-1.518-1.31-.432-.61-2.173-.58-.253.15-1.042h-.432l-.224.432.625 2.59-.06.401-.148 1.176-1.22.85-.491.029-.908.61-.387.76.447 1.22-.997.461zM254.014 262.683v.446l-.431-.015-.015.864h-.432l-.015.431h.223l.521 1.503 1.399 1.43 1.726.654 3.496-1.012.67-1.072.863-.089-1.711-1.548-.432-.848-.64-.447-4.567-.61zM271.482 273.474v.208h.431l.446-.208v-.208zM272.375 272.626l-.015.208h.878v-.417zM270.693 267.862l-2.172-.357-1.756 1.161-.223.655h-.223v.209l3.258.893-.223.416 2.291-.595.12-.863h-.447zM148.15 191.964l-.253.565.06.477.372.625.401.268.491.134.417.015.372-.09.327-.178 4.36-2.545.729.015 1.13-.73.536-.952.074-1.564-.238-.178-.996-1.22-.804-.21-.893-.207-1.294.119-.223-.045-.193.015-.254.223-.223.774-1.785 2.144-1.354 1.652zM34.4 281.69l-.238-.133-.253-.045-.372.06-.238.06-.238.133-.193-.06-.164.06-.223.209-.253.282-.178.104-.164.82-.238.208-.105.223.15.208-.075.268-.208.09.044.238.09.267-.105.313-.282.238.134.253-.06.402.06.447.148.149.328.044.446-.044.55-.015.432.03.982.089.164-.045.55-.268.431-.506.12-.625.163-.328-.104-.327-.089-1.429.045-.223.089-.358.045-.357-.58-.104-.268.119-.447-.163zM34.326 253.35l.089.416v.417l.03.253-.09.923v.387l-.089.387-.03.253-.059.64-.03.64.06.358.208.744.119.67.238.535.253.626.714.52.105.373.163.223.134.253.313.372.267.7.15-.387.252-.432-.03-.238-.253-.223-.178-.045-.134-.223.312-.134-.164-.387-.43-.819-.239-.313-.119-.252-.134-.402-.238-.804.104-1.519.432-1.19.431-.908.283-.417.298-.685v-.223l-.06-.432-.208-.387-1.012.432-.283-.164-.223.03-.223-.149-.224.015-.193.298zM210.344 93.544l.298.655h.104l.045-.074-.283-.64zM174.277 108.102l-.178.06.297-.06zM175.631 289.073v.879h.208l.016-.224h.208l-.208-.655zM92.92 226.944l.163-.075.237-.193h.001zM212.07 104.5l-.461-.045-.402-.119-.342-.134-.268-.164-.223-.074-.194.045-.178.074-.223.15-.283.312-.714.833-.179.253-.104.223-.64.953-.49.73-.343.52-.342.551-.179.67-.148.58.089.462.357.417.223.327 1.726.283.178.03 1.027.327 1.458 1.012h.313l.238-.074.759-.685.342-.223.283-.03.267-.03.224-.089.67-.655.356-.372.387-1.503.253-.298.952-1.37 1.19-1.875.15-.268.297-.208.491-.313.164.12.312-.626.447-.461.193-.179.193-.253.179-.283.52-.878.134-.342.016-.239-.045-.327-.387-.834-.268-.461-.045-.223-.297-.477-.312-.223-.239-.253-.269-.256-.013-.012-.012-.006-.494-.262-.788-.357-.596-.313-.446-.282-.298-.402-.267-.521-.12-.313-.342-.52-.164-.12-.282-.194-.075-.044-.535-.03-.447-.045-.49-.014h-.239l-.267.178-.462.968-.223.461-.312 1.042-.075.268-.044.312.044.447.164.283.09.357.044.432-.015.357-.075.417-.133.714-.64 1.191-.03.298.03.342.208.238.179.09.386.03-.208.253-.149.238-.03.342.373.104.282.074zM303.903 46.002l-.178.193-.164.03-.298.104-.267.09-.164-.03-.164.104-.089.506-.164.417.208.06.224-.283.238-.164.297.134.254.164.208-.03.208-.15.104-.312.134-.268-.03-.267-.134-.269zM231.204 99.38l-.357-.09-.178.075-.387.282.044.313.224.06.208.163.179.15.282-.016.328-.119.104-.238-.209-.417zM296.553 92.562l.729.446.387.09v-.253l-.625-.387z"/>
        </g>
        <g fill="#00C1D4" fill-opacity=".5" transform="translate(18.382 5.886)">
            <ellipse cx="236.41" cy="5.989" rx="5.319" ry="5.323" transform="rotate(173.571 236.41 5.989)"/>
            <ellipse cx="239.522" cy="71.882" rx="5.319" ry="5.323" transform="rotate(173.571 239.522 71.882)"/>
            <ellipse cx="158.495" cy="255.187" rx="5.319" ry="5.323" transform="rotate(173.571 158.495 255.187)"/>
            <ellipse cx="157.243" cy="264.542" rx="5.319" ry="5.323" transform="rotate(173.571 157.243 264.542)"/>
            <ellipse cx="294.331" cy="173.847" rx="5.319" ry="5.323" transform="rotate(173.571 294.33 173.847)"/>
            <ellipse cx="299.349" cy="119.612" rx="5.319" ry="5.323" transform="rotate(173.571 299.349 119.612)"/>
            <ellipse cx="214.508" cy="272.652" rx="5.319" ry="5.323" transform="rotate(173.571 214.508 272.652)"/>
            <ellipse cx="314.756" cy="132.499" rx="5.319" ry="5.323" transform="rotate(173.571 314.756 132.499)"/>
            <ellipse cx="203.564" cy="82.913" rx="5.319" ry="5.323" transform="rotate(173.571 203.564 82.913)"/>
            <ellipse cx="157.048" cy="131.279" rx="5.319" ry="5.323" transform="rotate(173.571 157.048 131.279)"/>
            <ellipse cx="200.198" cy="294.762" rx="5.319" ry="5.323" transform="rotate(173.571 200.198 294.762)"/>
            <ellipse cx="32.041" cy="250.858" rx="5.319" ry="5.323" transform="rotate(173.571 32.041 250.858)"/>
            <ellipse cx="208.083" cy="147.318" rx="5.319" ry="5.323" transform="rotate(173.571 208.083 147.318)"/>
            <ellipse cx="277.76" cy="160.31" rx="5.319" ry="5.323" transform="rotate(173.571 277.76 160.31)"/>
            <ellipse cx="208.882" cy="24.4" rx="5.319" ry="5.323" transform="rotate(173.571 208.882 24.4)"/>
            <ellipse cx="212.476" cy="190.141" rx="5.319" ry="5.323" transform="rotate(173.571 212.476 190.141)"/>
            <ellipse cx="154.357" cy="203.614" rx="5.319" ry="5.323" transform="rotate(173.571 154.357 203.614)"/>
            <ellipse cx="64.89" cy="264.938" rx="5.319" ry="5.323" transform="rotate(173.571 64.89 264.938)"/>
            <ellipse cx="232.526" cy="71.169" rx="5.319" ry="5.323" transform="rotate(173.571 232.526 71.169)"/>
            <ellipse cx="202.488" cy="229.129" rx="5.319" ry="5.323" transform="rotate(173.571 202.488 229.129)"/>
            <ellipse cx="174.977" cy="84.507" rx="5.319" ry="5.323" transform="rotate(173.571 174.977 84.507)"/>
            <ellipse cx="200.053" cy="132.049" rx="5.319" ry="5.323" transform="rotate(173.571 200.053 132.049)"/>
            <ellipse cx="218.204" cy="48.369" rx="5.319" ry="5.323" transform="rotate(173.571 218.204 48.369)"/>
            <ellipse cx="287.34" cy="209.039" rx="5.319" ry="5.323" transform="rotate(173.571 287.34 209.04)"/>
            <ellipse cx="160.017" cy="150.175" rx="5.319" ry="5.323" transform="rotate(173.571 160.017 150.175)"/>
            <ellipse cx="275.364" cy="166.45" rx="5.319" ry="5.323" transform="rotate(173.571 275.364 166.45)"/>
            <ellipse cx="169.832" cy="96.719" rx="5.319" ry="5.323" transform="rotate(173.571 169.832 96.719)"/>
            <ellipse cx="257.584" cy="131.006" rx="5.319" ry="5.323" transform="rotate(173.571 257.584 131.006)"/>
            <ellipse cx="286.287" cy="210.805" rx="5.319" ry="5.323" transform="rotate(173.571 286.287 210.805)"/>
            <ellipse cx="288.599" cy="225.854" rx="5.319" ry="5.323" transform="rotate(173.571 288.599 225.854)"/>
            <ellipse cx="233.552" cy="63.879" rx="5.319" ry="5.323" transform="rotate(173.571 233.552 63.879)"/>
            <ellipse cx="159.031" cy="137.948" rx="5.319" ry="5.323" transform="rotate(173.571 159.03 137.948)"/>
            <ellipse cx="169.782" cy="93.469" rx="5.319" ry="5.323" transform="rotate(173.571 169.782 93.469)"/>
            <ellipse cx="128.15" cy="250.735" rx="5.319" ry="5.323" transform="rotate(173.571 128.15 250.735)"/>
            <ellipse cx="223.542" cy="45.27" rx="5.319" ry="5.323" transform="rotate(173.571 223.542 45.27)"/>
            <ellipse cx="226.89" cy="204.637" rx="5.319" ry="5.323" transform="rotate(173.571 226.89 204.637)"/>
            <ellipse cx="296.175" cy="224.948" rx="5.319" ry="5.323" transform="rotate(173.571 296.175 224.948)"/>
            <ellipse cx="262.572" cy="75.558" rx="5.319" ry="5.323" transform="rotate(173.571 262.572 75.558)"/>
            <ellipse cx="203.456" cy="75.918" rx="5.319" ry="5.323" transform="rotate(173.571 203.456 75.918)"/>
            <ellipse cx="319.544" cy="187.294" rx="5.319" ry="5.323" transform="rotate(173.571 319.544 187.294)"/>
            <ellipse cx="236.383" cy="214.771" rx="5.319" ry="5.323" transform="rotate(173.571 236.383 214.771)"/>
            <ellipse cx="190.256" cy="216.597" rx="5.319" ry="5.323" transform="rotate(173.571 190.256 216.597)"/>
            <ellipse cx="232.151" cy="284.794" rx="5.319" ry="5.323" transform="rotate(173.571 232.15 284.794)"/>
            <ellipse cx="80.895" cy="267.898" rx="5.319" ry="5.323" transform="rotate(173.571 80.895 267.898)"/>
            <ellipse cx="279.633" cy="213.82" rx="5.319" ry="5.323" transform="rotate(173.571 279.633 213.82)"/>
            <ellipse cx="271.367" cy="261.253" rx="5.319" ry="5.323" transform="rotate(173.571 271.367 261.253)"/>
            <ellipse cx="262.732" cy="182.987" rx="5.319" ry="5.323" transform="rotate(173.571 262.732 182.987)"/>
            <ellipse cx="317" cy="194.394" rx="5.319" ry="5.323" transform="rotate(173.571 317 194.394)"/>
            <ellipse cx="178.645" cy="212.773" rx="5.319" ry="5.323" transform="rotate(173.571 178.645 212.773)"/>
            <ellipse cx="275.364" cy="191.637" rx="5.319" ry="5.323" transform="rotate(173.571 275.364 191.637)"/>
            <ellipse cx="139.077" cy="238.216" rx="5.319" ry="5.323" transform="rotate(173.571 139.077 238.216)"/>
            <ellipse cx="208.151" cy="174.492" rx="5.319" ry="5.323" transform="rotate(173.571 208.151 174.492)"/>
            <ellipse cx="285.776" cy="139.07" rx="5.319" ry="5.323" transform="rotate(173.571 285.776 139.07)"/>
            <ellipse cx="30.712" cy="244.204" rx="5.319" ry="5.323" transform="rotate(173.571 30.712 244.204)"/>
            <ellipse cx="157.766" cy="115.427" rx="5.319" ry="5.323" transform="rotate(173.571 157.766 115.427)"/>
            <ellipse cx="291.615" cy="183.433" rx="5.319" ry="5.323" transform="rotate(173.571 291.615 183.433)"/>
            <ellipse cx="70.058" cy="277.249" rx="5.319" ry="5.323" transform="rotate(173.571 70.058 277.249)"/>
            <ellipse cx="271.435" cy="135.565" rx="5.319" ry="5.323" transform="rotate(173.571 271.435 135.565)"/>
            <ellipse cx="192.073" cy="57.878" rx="5.319" ry="5.323" transform="rotate(173.571 192.073 57.878)"/>
            <ellipse cx="242.632" cy="274.337" rx="5.319" ry="5.323" transform="rotate(173.571 242.632 274.337)"/>
            <ellipse cx="230.412" cy="112.685" rx="5.319" ry="5.323" transform="rotate(173.571 230.412 112.685)"/>
            <ellipse cx="133.758" cy="256.181" rx="5.319" ry="5.323" transform="rotate(173.571 133.758 256.181)"/>
            <ellipse cx="290.882" cy="142.265" rx="5.319" ry="5.323" transform="rotate(173.571 290.882 142.265)"/>
            <ellipse cx="233.603" cy="26.486" rx="5.319" ry="5.323" transform="rotate(173.571 233.603 26.486)"/>
            <ellipse cx="241.458" cy="146.389" rx="5.319" ry="5.323" transform="rotate(173.571 241.458 146.39)"/>
            <ellipse cx="302.102" cy="192.74" rx="5.319" ry="5.323" transform="rotate(173.571 302.102 192.74)"/>
            <ellipse cx="180.295" cy="72.529" rx="5.319" ry="5.323" transform="rotate(173.571 180.295 72.53)"/>
            <ellipse cx="206.977" cy="124.313" rx="5.319" ry="5.323" transform="rotate(173.571 206.977 124.313)"/>
            <ellipse cx="197.9" cy="76.745" rx="5.319" ry="5.323" transform="rotate(173.571 197.9 76.745)"/>
            <ellipse cx="210.212" cy="125.096" rx="5.319" ry="5.323" transform="rotate(173.571 210.212 125.096)"/>
            <ellipse cx="259.178" cy="257.33" rx="5.319" ry="5.323" transform="rotate(173.571 259.178 257.33)"/>
            <ellipse cx="240.128" cy="39.259" rx="5.319" ry="5.323" transform="rotate(173.571 240.128 39.259)"/>
            <ellipse cx="280.453" cy="170.195" rx="5.319" ry="5.323" transform="rotate(173.571 280.453 170.195)"/>
            <ellipse cx="300.203" cy="162.648" rx="5.319" ry="5.323" transform="rotate(173.571 300.203 162.648)"/>
            <ellipse cx="175.345" cy="100.002" rx="5.319" ry="5.323" transform="rotate(173.571 175.345 100.002)"/>
            <ellipse cx="228.307" cy="144.828" rx="5.319" ry="5.323" transform="rotate(173.571 228.307 144.828)"/>
            <ellipse cx="266.194" cy="74.383" rx="5.319" ry="5.323" transform="rotate(173.571 266.194 74.383)"/>
            <ellipse cx="187.537" cy="185.89" rx="5.319" ry="5.323" transform="rotate(173.571 187.537 185.89)"/>
            <ellipse cx="283.536" cy="111.88" rx="5.319" ry="5.323" transform="rotate(173.571 283.536 111.88)"/>
            <ellipse cx="223.773" cy="27.15" rx="5.319" ry="5.323" transform="rotate(173.571 223.773 27.15)"/>
            <ellipse cx="248.954" cy="129.193" rx="5.319" ry="5.323" transform="rotate(173.571 248.954 129.193)"/>
            <ellipse cx="190.508" cy="213.407" rx="5.319" ry="5.323" transform="rotate(173.571 190.508 213.407)"/>
            <ellipse cx="5.983" cy="329.77" rx="5.319" ry="5.323" transform="rotate(173.571 5.983 329.77)"/>
            <ellipse cx="161.208" cy="203.392" rx="5.319" ry="5.323" transform="rotate(173.571 161.208 203.392)"/>
            <ellipse cx="193.576" cy="237.009" rx="5.319" ry="5.323" transform="rotate(173.571 193.576 237.01)"/>
            <ellipse cx="247.678" cy="170.97" rx="5.319" ry="5.323" transform="rotate(173.571 247.678 170.97)"/>
            <ellipse cx="242.123" cy="188.31" rx="5.319" ry="5.323" transform="rotate(173.571 242.123 188.31)"/>
            <ellipse cx="190.267" cy="219.584" rx="5.319" ry="5.323" transform="rotate(173.571 190.267 219.584)"/>
            <ellipse cx="270.71" cy="200.287" rx="5.319" ry="5.323" transform="rotate(173.571 270.71 200.287)"/>
            <ellipse cx="308.091" cy="139.729" rx="5.319" ry="5.323" transform="rotate(173.571 308.091 139.73)"/>
            <ellipse cx="24.309" cy="306.059" rx="5.319" ry="5.323" transform="rotate(173.571 24.31 306.059)"/>
            <ellipse cx="219.785" cy="93.526" rx="5.319" ry="5.323" transform="rotate(173.571 219.785 93.526)"/>
            <ellipse cx="76.402" cy="248.236" rx="5.319" ry="5.323" transform="rotate(173.571 76.402 248.236)"/>
            <ellipse cx="172.413" cy="257.666" rx="5.319" ry="5.323" transform="rotate(173.571 172.413 257.666)"/>
            <ellipse cx="143.066" cy="221.181" rx="5.319" ry="5.323" transform="rotate(173.571 143.066 221.18)"/>
            <ellipse cx="263.783" cy="267.22" rx="5.319" ry="5.323" transform="rotate(173.571 263.783 267.22)"/>
            <ellipse cx="292.649" cy="198.291" rx="5.319" ry="5.323" transform="rotate(173.571 292.649 198.291)"/>
            <ellipse cx="288.258" cy="238.782" rx="5.319" ry="5.323" transform="rotate(173.571 288.258 238.782)"/>
            <ellipse cx="301.738" cy="168.007" rx="5.319" ry="5.323" transform="rotate(173.571 301.738 168.007)"/>
            <ellipse cx="204.453" cy="246.25" rx="5.319" ry="5.323" transform="rotate(173.571 204.453 246.25)"/>
            <ellipse cx="204.027" cy="239.111" rx="5.319" ry="5.323" transform="rotate(173.571 204.027 239.111)"/>
            <ellipse cx="214.252" cy="259.999" rx="5.319" ry="5.323" transform="rotate(173.571 214.252 259.999)"/>
            <ellipse cx="193.664" cy="206.307" rx="5.319" ry="5.323" transform="rotate(173.571 193.664 206.307)"/>
            <ellipse cx="187.786" cy="210.546" rx="5.319" ry="5.323" transform="rotate(173.571 187.786 210.546)"/>
            <ellipse cx="178.915" cy="243.19" rx="5.319" ry="5.323" transform="rotate(173.571 178.915 243.19)"/>
            <ellipse cx="234.145" cy="192.302" rx="5.319" ry="5.323" transform="rotate(173.571 234.145 192.302)"/>
            <ellipse cx="199.668" cy="73.883" rx="5.319" ry="5.323" transform="rotate(173.571 199.668 73.883)"/>
            <ellipse cx="294.1" cy="151.202" rx="5.319" ry="5.323" transform="rotate(173.571 294.1 151.202)"/>
            <ellipse cx="183.215" cy="179.163" rx="5.319" ry="5.323" transform="rotate(173.571 183.215 179.163)"/>
            <ellipse cx="308.632" cy="170.227" rx="5.319" ry="5.323" transform="rotate(173.571 308.632 170.227)"/>
            <ellipse cx="267.474" cy="188.942" rx="5.319" ry="5.323" transform="rotate(173.571 267.474 188.942)"/>
            <ellipse cx="38.633" cy="285.181" rx="5.319" ry="5.323" transform="rotate(173.571 38.633 285.181)"/>
            <ellipse cx="239.471" cy="47.995" rx="5.319" ry="5.323" transform="rotate(173.571 239.471 47.995)"/>
            <ellipse cx="260.312" cy="74.416" rx="5.319" ry="5.323" transform="rotate(173.571 260.312 74.416)"/>
            <ellipse cx="206.888" cy="188.31" rx="5.319" ry="5.323" transform="rotate(173.571 206.888 188.31)"/>
            <ellipse cx="192.362" cy="158.229" rx="5.319" ry="5.323" transform="rotate(173.571 192.362 158.229)"/>
            <ellipse cx="232.962" cy="237.479" rx="5.319" ry="5.323" transform="rotate(173.571 232.962 237.48)"/>
            <ellipse cx="171.484" cy="225.607" rx="5.319" ry="5.323" transform="rotate(173.571 171.484 225.607)"/>
            <ellipse cx="148.204" cy="137.739" rx="5.319" ry="5.323" transform="rotate(173.571 148.204 137.74)"/>
            <ellipse cx="10.023" cy="314.374" rx="5.319" ry="5.323" transform="rotate(173.571 10.023 314.374)"/>
            <ellipse cx="310.733" cy="194.367" rx="5.319" ry="5.323" transform="rotate(173.571 310.733 194.367)"/>
            <ellipse cx="185.675" cy="241.179" rx="5.319" ry="5.323" transform="rotate(173.571 185.675 241.18)"/>
            <ellipse cx="211.848" cy="234.047" rx="5.319" ry="5.323" transform="rotate(173.571 211.848 234.047)"/>
            <ellipse cx="290.8" cy="183.509" rx="5.319" ry="5.323" transform="rotate(173.571 290.8 183.509)"/>
            <ellipse cx="226.624" cy="32.282" rx="5.319" ry="5.323" transform="rotate(173.571 226.624 32.282)"/>
            <ellipse cx="221.948" cy="252.858" rx="5.319" ry="5.323" transform="rotate(173.571 221.948 252.858)"/>
            <ellipse cx="34.642" cy="279.198" rx="5.319" ry="5.323" transform="rotate(173.571 34.642 279.198)"/>
            <ellipse cx="134.88" cy="254.682" rx="5.319" ry="5.323" transform="rotate(173.571 134.88 254.682)"/>
            <ellipse cx="155.03" cy="228.674" rx="5.319" ry="5.323" transform="rotate(173.571 155.03 228.674)"/>
            <ellipse cx="48.649" cy="309.347" rx="5.319" ry="5.323" transform="rotate(173.571 48.65 309.347)"/>
            <ellipse cx="51.251" cy="275.155" rx="5.319" ry="5.323" transform="rotate(173.571 51.251 275.155)"/>
            <ellipse cx="194.943" cy="107.566" rx="5.319" ry="5.323" transform="rotate(173.571 194.943 107.566)"/>
            <ellipse cx="187.378" cy="271.09" rx="5.319" ry="5.323" transform="rotate(173.571 187.378 271.09)"/>
            <ellipse cx="315.536" cy="126.109" rx="5.319" ry="5.323" transform="rotate(173.571 315.536 126.11)"/>
            <ellipse cx="242.123" cy="279.471" rx="5.319" ry="5.323" transform="rotate(173.571 242.123 279.47)"/>
            <ellipse cx="161.702" cy="247.796" rx="5.319" ry="5.323" transform="rotate(173.571 161.702 247.796)"/>
            <ellipse cx="232.144" cy="24.723" rx="5.319" ry="5.323" transform="rotate(173.571 232.144 24.723)"/>
            <ellipse cx="271.604" cy="165.783" rx="5.319" ry="5.323" transform="rotate(173.571 271.604 165.783)"/>
            <ellipse cx="68.931" cy="234.476" rx="5.319" ry="5.323" transform="rotate(173.571 68.93 234.476)"/>
            <ellipse cx="87.886" cy="235.554" rx="5.319" ry="5.323" transform="rotate(173.571 87.886 235.554)"/>
            <ellipse cx="77.914" cy="259.509" rx="5.319" ry="5.323" transform="rotate(173.571 77.914 259.509)"/>
            <ellipse cx="196.916" cy="173.006" rx="5.319" ry="5.323" transform="rotate(173.571 196.916 173.006)"/>
            <ellipse cx="19.167" cy="280.721" rx="5.319" ry="5.323" transform="rotate(173.571 19.167 280.721)"/>
            <ellipse cx="243.815" cy="196.432" rx="5.319" ry="5.323" transform="rotate(173.571 243.815 196.432)"/>
            <ellipse cx="229.491" cy="161.028" rx="5.319" ry="5.323" transform="rotate(173.571 229.491 161.028)"/>
            <ellipse cx="264.841" cy="47.063" rx="5.319" ry="5.323" transform="rotate(173.571 264.84 47.063)"/>
            <ellipse cx="205.375" cy="271.886" rx="5.319" ry="5.323" transform="rotate(173.571 205.375 271.886)"/>
            <ellipse cx="212.824" cy="187.36" rx="5.319" ry="5.323" transform="rotate(173.571 212.824 187.36)"/>
            <ellipse cx="185.092" cy="232.05" rx="5.319" ry="5.323" transform="rotate(173.571 185.092 232.05)"/>
            <ellipse cx="190.49" cy="155.884" rx="5.319" ry="5.323" transform="rotate(173.571 190.49 155.884)"/>
            <ellipse cx="87.221" cy="225.573" rx="5.319" ry="5.323" transform="rotate(173.571 87.221 225.573)"/>
            <ellipse cx="59.22" cy="277.974" rx="5.319" ry="5.323" transform="rotate(173.571 59.22 277.974)"/>
            <ellipse cx="219.128" cy="75.702" rx="5.319" ry="5.323" transform="rotate(173.571 219.128 75.702)"/>
            <ellipse cx="189.829" cy="211.633" rx="5.319" ry="5.323" transform="rotate(173.571 189.83 211.633)"/>
            <ellipse cx="223.584" cy="261.803" rx="5.319" ry="5.323" transform="rotate(173.571 223.584 261.803)"/>
            <ellipse cx="17.416" cy="296.106" rx="5.319" ry="5.323" transform="rotate(173.571 17.416 296.106)"/>
            <ellipse cx="27.4" cy="271.249" rx="5.319" ry="5.323" transform="rotate(173.571 27.4 271.249)"/>
            <ellipse cx="273.396" cy="157.164" rx="5.319" ry="5.323" transform="rotate(173.571 273.396 157.164)"/>
            <ellipse cx="208.19" cy="281.004" rx="5.319" ry="5.323" transform="rotate(173.571 208.19 281.004)"/>
            <ellipse cx="40.533" cy="267.837" rx="5.319" ry="5.323" transform="rotate(173.571 40.533 267.837)"/>
            <ellipse cx="170.323" cy="109.792" rx="5.319" ry="5.323" transform="rotate(173.571 170.323 109.792)"/>
            <ellipse cx="205.77" cy="237.675" rx="5.319" ry="5.323" transform="rotate(173.571 205.77 237.675)"/>
            <ellipse cx="253.538" cy="50.034" rx="5.319" ry="5.323" transform="rotate(173.571 253.538 50.034)"/>
            <ellipse cx="262.1" cy="157.842" rx="5.319" ry="5.323" transform="rotate(173.571 262.1 157.842)"/>
            <ellipse cx="50.271" cy="296.751" rx="5.319" ry="5.323" transform="rotate(173.571 50.27 296.751)"/>
            <ellipse cx="257.062" cy="122.191" rx="5.319" ry="5.323" transform="rotate(173.571 257.062 122.191)"/>
            <ellipse cx="283.103" cy="164.78" rx="5.319" ry="5.323" transform="rotate(173.571 283.103 164.78)"/>
            <ellipse cx="208.8" cy="49.608" rx="5.319" ry="5.323" transform="rotate(173.571 208.8 49.608)"/>
            <ellipse cx="222.962" cy="14.66" rx="5.319" ry="5.323" transform="rotate(173.571 222.962 14.66)"/>
            <ellipse cx="321.438" cy="216.3" rx="5.319" ry="5.323" transform="rotate(173.571 321.438 216.3)"/>
            <ellipse cx="317.17" cy="173.408" rx="5.319" ry="5.323" transform="rotate(173.571 317.17 173.408)"/>
            <ellipse cx="212.206" cy="199.622" rx="5.319" ry="5.323" transform="rotate(173.571 212.206 199.622)"/>
            <ellipse cx="230.815" cy="69.895" rx="5.319" ry="5.323" transform="rotate(173.571 230.815 69.895)"/>
            <ellipse cx="228.162" cy="153.709" rx="5.319" ry="5.323" transform="rotate(173.571 228.162 153.709)"/>
            <ellipse cx="209.406" cy="133.437" rx="5.319" ry="5.323" transform="rotate(173.571 209.406 133.437)"/>
            <ellipse cx="311.229" cy="124.805" rx="5.319" ry="5.323" transform="rotate(173.571 311.23 124.805)"/>
            <ellipse cx="207.995" cy="89.226" rx="5.319" ry="5.323" transform="rotate(173.571 207.995 89.226)"/>
            <ellipse cx="314.51" cy="114.667" rx="5.319" ry="5.323" transform="rotate(173.571 314.51 114.667)"/>
            <ellipse cx="197.58" cy="49.261" rx="5.319" ry="5.323" transform="rotate(173.571 197.58 49.261)"/>
            <ellipse cx="278.084" cy="160.341" rx="5.319" ry="5.323" transform="rotate(173.571 278.084 160.341)"/>
            <ellipse cx="78.578" cy="235.554" rx="5.319" ry="5.323" transform="rotate(173.571 78.578 235.554)"/>
            <ellipse cx="197.474" cy="72.529" rx="5.319" ry="5.323" transform="rotate(173.571 197.474 72.53)"/>
            <ellipse cx="89.802" cy="236.589" rx="5.319" ry="5.323" transform="rotate(173.571 89.802 236.589)"/>
            <ellipse cx="248.572" cy="207.046" rx="5.319" ry="5.323" transform="rotate(173.571 248.572 207.046)"/>
            <ellipse cx="42.103" cy="268.986" rx="5.319" ry="5.323" transform="rotate(173.571 42.103 268.986)"/>
            <ellipse cx="164.527" cy="241.173" rx="5.319" ry="5.323" transform="rotate(173.571 164.527 241.173)"/>
            <ellipse cx="222.25" cy="110.103" rx="5.319" ry="5.323" transform="rotate(173.571 222.25 110.103)"/>
            <ellipse cx="139.873" cy="193.633" rx="5.319" ry="5.323" transform="rotate(173.571 139.873 193.633)"/>
            <ellipse cx="165.004" cy="122.435" rx="5.319" ry="5.323" transform="rotate(173.571 165.004 122.435)"/>
            <ellipse cx="268.338" cy="165.541" rx="5.319" ry="5.323" transform="rotate(173.571 268.338 165.541)"/>
            <ellipse cx="213.754" cy="106.754" rx="5.319" ry="5.323" transform="rotate(173.571 213.754 106.754)"/>
            <ellipse cx="327.682" cy="133.208" rx="5.319" ry="5.323" transform="rotate(173.571 327.682 133.208)"/>
            <ellipse cx="254.754" cy="193.633" rx="5.319" ry="5.323" transform="rotate(173.571 254.754 193.633)"/>
            <ellipse cx="268.279" cy="112.259" rx="5.319" ry="5.323" transform="rotate(173.571 268.28 112.26)"/>
            <ellipse cx="187.002" cy="163.655" rx="5.319" ry="5.323" transform="rotate(173.571 187.002 163.655)"/>
            <ellipse cx="43.903" cy="235.548" rx="5.319" ry="5.323" transform="rotate(173.571 43.903 235.548)"/>
            <ellipse cx="172.982" cy="114.45" rx="5.319" ry="5.323" transform="rotate(173.571 172.982 114.45)"/>
            <ellipse cx="139.494" cy="247.412" rx="5.319" ry="5.323" transform="rotate(173.571 139.494 247.412)"/>
            <ellipse cx="306.619" cy="205.385" rx="5.319" ry="5.323" transform="rotate(173.571 306.62 205.385)"/>
            <ellipse cx="187.608" cy="123.1" rx="5.319" ry="5.323" transform="rotate(173.571 187.608 123.1)"/>
            <ellipse cx="295.308" cy="263.501" rx="5.319" ry="5.323" transform="rotate(173.571 295.308 263.5)"/>
            <ellipse cx="229.92" cy="36.331" rx="5.319" ry="5.323" transform="rotate(173.571 229.92 36.331)"/>
            <ellipse cx="304.798" cy="199.328" rx="5.319" ry="5.323" transform="rotate(173.571 304.798 199.328)"/>
            <ellipse cx="299.603" cy="120.049" rx="5.319" ry="5.323" transform="rotate(173.571 299.603 120.049)"/>
            <ellipse cx="282.677" cy="184.983" rx="5.319" ry="5.323" transform="rotate(173.571 282.677 184.983)"/>
            <ellipse cx="204.947" cy="141.712" rx="5.319" ry="5.323" transform="rotate(173.571 204.947 141.712)"/>
            <ellipse cx="228.671" cy="192.652" rx="5.319" ry="5.323" transform="rotate(173.571 228.671 192.652)"/>
            <ellipse cx="175.085" cy="247.761" rx="5.319" ry="5.323" transform="rotate(173.571 175.085 247.761)"/>
            <ellipse cx="210.142" cy="251.163" rx="5.319" ry="5.323" transform="rotate(173.571 210.142 251.163)"/>
            <ellipse cx="257.372" cy="82.833" rx="5.319" ry="5.323" transform="rotate(173.571 257.372 82.833)"/>
            <ellipse cx="176.306" cy="171.009" rx="5.319" ry="5.323" transform="rotate(173.571 176.306 171.01)"/>
            <ellipse cx="64.617" cy="250.858" rx="5.319" ry="5.323" transform="rotate(173.571 64.617 250.858)"/>
            <ellipse cx="182.768" cy="88.99" rx="5.319" ry="5.323" transform="rotate(173.571 182.768 88.99)"/>
            <ellipse cx="40.507" cy="305.46" rx="5.319" ry="5.323" transform="rotate(173.571 40.507 305.46)"/>
            <ellipse cx="200.112" cy="144.189" rx="5.319" ry="5.323" transform="rotate(173.571 200.112 144.189)"/>
            <ellipse cx="59.964" cy="268.159" rx="5.319" ry="5.323" transform="rotate(173.571 59.964 268.159)"/>
            <ellipse cx="210.212" cy="214.261" rx="5.319" ry="5.323" transform="rotate(173.571 210.212 214.26)"/>
            <ellipse cx="235.962" cy="68.253" rx="5.319" ry="5.323" transform="rotate(173.571 235.962 68.253)"/>
            <ellipse cx="147.334" cy="240.346" rx="5.319" ry="5.323" transform="rotate(173.571 147.334 240.346)"/>
            <ellipse cx="311.357" cy="217.46" rx="5.319" ry="5.323" transform="rotate(173.571 311.357 217.46)"/>
            <ellipse cx="184.284" cy="218.253" rx="5.319" ry="5.323" transform="rotate(173.571 184.284 218.253)"/>
            <ellipse cx="210.509" cy="13.209" rx="5.319" ry="5.323" transform="rotate(173.571 210.509 13.209)"/>
            <ellipse cx="214.028" cy="186.699" rx="5.319" ry="5.323" transform="rotate(173.571 214.028 186.699)"/>
            <ellipse cx="218.19" cy="163.69" rx="5.319" ry="5.323" transform="rotate(173.571 218.19 163.69)"/>
            <ellipse cx="194.256" cy="35.932" rx="5.319" ry="5.323" transform="rotate(173.571 194.256 35.932)"/>
            <ellipse cx="174.977" cy="142.397" rx="5.319" ry="5.323" transform="rotate(173.571 174.977 142.397)"/>
            <ellipse cx="245.142" cy="29.12" rx="5.319" ry="5.323" transform="rotate(173.571 245.142 29.12)"/>
            <ellipse cx="30.712" cy="236.885" rx="5.319" ry="5.323" transform="rotate(173.571 30.712 236.885)"/>
            <ellipse cx="196.587" cy="255.285" rx="5.319" ry="5.323" transform="rotate(173.571 196.587 255.285)"/>
            <ellipse cx="26.723" cy="285.459" rx="5.319" ry="5.323" transform="rotate(173.571 26.723 285.46)"/>
            <ellipse cx="292.63" cy="167.374" rx="5.319" ry="5.323" transform="rotate(173.571 292.63 167.374)"/>
            <ellipse cx="212.871" cy="57.89" rx="5.319" ry="5.323" transform="rotate(173.571 212.871 57.89)"/>
            <ellipse cx="220.184" cy="186.979" rx="5.319" ry="5.323" transform="rotate(173.571 220.184 186.98)"/>
            <ellipse cx="278.245" cy="169.934" rx="5.319" ry="5.323" transform="rotate(173.571 278.245 169.934)"/>
            <ellipse cx="313.493" cy="139.057" rx="5.319" ry="5.323" transform="rotate(173.571 313.493 139.057)"/>
            <ellipse cx="287.771" cy="103.542" rx="5.319" ry="5.323" transform="rotate(173.571 287.771 103.542)"/>
            <ellipse cx="51.953" cy="226.456" rx="5.319" ry="5.323" transform="rotate(173.571 51.953 226.456)"/>
            <ellipse cx="174.312" cy="208.938" rx="5.319" ry="5.323" transform="rotate(173.571 174.312 208.938)"/>
            <ellipse cx="287.081" cy="217.418" rx="5.319" ry="5.323" transform="rotate(173.571 287.08 217.418)"/>
            <ellipse cx="250.766" cy="135.078" rx="5.319" ry="5.323" transform="rotate(173.571 250.766 135.078)"/>
            <ellipse cx="199.618" cy="241.765" rx="5.319" ry="5.323" transform="rotate(173.571 199.618 241.765)"/>
            <ellipse cx="246.112" cy="135.078" rx="5.319" ry="5.323" transform="rotate(173.571 246.112 135.078)"/>
            <ellipse cx="168.328" cy="184.983" rx="5.319" ry="5.323" transform="rotate(173.571 168.328 184.983)"/>
            <ellipse cx="155.984" cy="213.702" rx="5.319" ry="5.323" transform="rotate(173.571 155.984 213.702)"/>
            <ellipse cx="267.99" cy="26.227" rx="5.319" ry="5.323" transform="rotate(173.571 267.99 26.227)"/>
            <ellipse cx="65.282" cy="292.113" rx="5.319" ry="5.323" transform="rotate(173.571 65.282 292.113)"/>
            <ellipse cx="207.602" cy="243.105" rx="5.319" ry="5.323" transform="rotate(173.571 207.602 243.105)"/>
            <ellipse cx="283.785" cy="117.623" rx="5.319" ry="5.323" transform="rotate(173.571 283.785 117.623)"/>
            <ellipse cx="300.134" cy="166.189" rx="5.319" ry="5.323" transform="rotate(173.571 300.134 166.19)"/>
            <ellipse cx="150.378" cy="189.641" rx="5.319" ry="5.323" transform="rotate(173.571 150.378 189.64)"/>
            <ellipse cx="220.849" cy="182.987" rx="5.319" ry="5.323" transform="rotate(173.571 220.849 182.987)"/>
            <ellipse cx="162.578" cy="130.444" rx="5.319" ry="5.323" transform="rotate(173.571 162.578 130.444)"/>
            <ellipse cx="171.192" cy="219.132" rx="5.319" ry="5.323" transform="rotate(173.571 171.192 219.132)"/>
            <ellipse cx="305.69" cy="226.818" rx="5.319" ry="5.323" transform="rotate(173.571 305.69 226.818)"/>
            <ellipse cx="264.691" cy="31.697" rx="5.319" ry="5.323" transform="rotate(173.571 264.69 31.697)"/>
            <ellipse cx="171.908" cy="269.499" rx="5.319" ry="5.323" transform="rotate(173.571 171.908 269.5)"/>
            <ellipse cx="184.284" cy="180.325" rx="5.319" ry="5.323" transform="rotate(173.571 184.284 180.325)"/>
            <ellipse cx="186.943" cy="205.611" rx="5.319" ry="5.323" transform="rotate(173.571 186.943 205.61)"/>
            <ellipse cx="258.078" cy="210.268" rx="5.319" ry="5.323" transform="rotate(173.571 258.078 210.268)"/>
            <ellipse cx="155.032" cy="214.926" rx="5.319" ry="5.323" transform="rotate(173.571 155.032 214.926)"/>
            <ellipse cx="224.437" cy="178.491" rx="5.319" ry="5.323" transform="rotate(173.571 224.437 178.491)"/>
            <ellipse cx="173.846" cy="280.681" rx="5.319" ry="5.323" transform="rotate(173.571 173.846 280.68)"/>
            <ellipse cx="298.353" cy="225.5" rx="5.319" ry="5.323" transform="rotate(173.571 298.353 225.5)"/>
            <ellipse cx="71.914" cy="270.693" rx="5.319" ry="5.323" transform="rotate(173.571 71.914 270.693)"/>
            <ellipse cx="289.67" cy="114.094" rx="5.319" ry="5.323" transform="rotate(173.571 289.67 114.094)"/>
            <ellipse cx="32.706" cy="230.896" rx="5.319" ry="5.323" transform="rotate(173.571 32.706 230.896)"/>
            <ellipse cx="159.629" cy="105.819" rx="5.319" ry="5.323" transform="rotate(173.571 159.63 105.819)"/>
            <ellipse cx="26.604" cy="256.459" rx="5.319" ry="5.323" transform="rotate(173.571 26.604 256.459)"/>
            <ellipse cx="271.432" cy="132.338" rx="5.319" ry="5.323" transform="rotate(173.571 271.432 132.338)"/>
            <ellipse cx="193.591" cy="200.953" rx="5.319" ry="5.323" transform="rotate(173.571 193.591 200.953)"/>
            <ellipse cx="171.233" cy="90.644" rx="5.319" ry="5.323" transform="rotate(173.571 171.233 90.644)"/>
            <ellipse cx="186.484" cy="134.502" rx="5.319" ry="5.323" transform="rotate(173.571 186.484 134.502)"/>
            <ellipse cx="185.837" cy="214.014" rx="5.319" ry="5.323" transform="rotate(173.571 185.837 214.014)"/>
            <ellipse cx="148.384" cy="153.043" rx="5.319" ry="5.323" transform="rotate(173.571 148.384 153.043)"/>
            <ellipse cx="164.851" cy="214.691" rx="5.319" ry="5.323" transform="rotate(173.571 164.851 214.691)"/>
            <ellipse cx="158.728" cy="228.552" rx="5.319" ry="5.323" transform="rotate(173.571 158.728 228.552)"/>
            <ellipse cx="305.324" cy="160.443" rx="5.319" ry="5.323" transform="rotate(173.571 305.324 160.443)"/>
            <ellipse cx="235.256" cy="21.29" rx="5.319" ry="5.323" transform="rotate(173.571 235.256 21.29)"/>
            <ellipse cx="311.12" cy="205.677" rx="5.319" ry="5.323" transform="rotate(173.571 311.12 205.677)"/>
            <ellipse cx="262.852" cy="148.086" rx="5.319" ry="5.323" transform="rotate(173.571 262.852 148.086)"/>
            <ellipse cx="204.718" cy="68.103" rx="5.319" ry="5.323" transform="rotate(173.571 204.718 68.103)"/>
            <ellipse cx="225.941" cy="236.978" rx="5.319" ry="5.323" transform="rotate(173.571 225.941 236.978)"/>
            <ellipse cx="92.54" cy="253.52" rx="5.319" ry="5.323" transform="rotate(173.571 92.54 253.52)"/>
            <ellipse cx="55.056" cy="240.877" rx="5.319" ry="5.323" transform="rotate(173.571 55.056 240.877)"/>
            <ellipse cx="46.455" cy="250.33" rx="5.319" ry="5.323" transform="rotate(173.571 46.455 250.33)"/>
            <ellipse cx="147.719" cy="147.197" rx="5.319" ry="5.323" transform="rotate(173.571 147.72 147.197)"/>
            <ellipse cx="158.886" cy="179.416" rx="5.319" ry="5.323" transform="rotate(173.571 158.886 179.416)"/>
            <ellipse cx="204.1" cy="39.924" rx="5.319" ry="5.323" transform="rotate(173.571 204.1 39.924)"/>
            <ellipse cx="209.877" cy="71.977" rx="5.319" ry="5.323" transform="rotate(173.571 209.877 71.977)"/>
            <ellipse cx="204.689" cy="65.21" rx="5.319" ry="5.323" transform="rotate(173.571 204.69 65.21)"/>
            <ellipse cx="256.372" cy="172.885" rx="5.319" ry="5.323" transform="rotate(173.571 256.372 172.885)"/>
            <ellipse cx="180.366" cy="83.941" rx="5.319" ry="5.323" transform="rotate(173.571 180.366 83.94)"/>
            <ellipse cx="49.991" cy="265.14" rx="5.319" ry="5.323" transform="rotate(173.571 49.991 265.14)"/>
            <ellipse cx="86.948" cy="243.229" rx="5.319" ry="5.323" transform="rotate(173.571 86.948 243.23)"/>
            <ellipse cx="180.96" cy="63.879" rx="5.319" ry="5.323" transform="rotate(173.571 180.96 63.879)"/>
            <ellipse cx="253.926" cy="158.272" rx="5.319" ry="5.323" transform="rotate(173.571 253.926 158.272)"/>
            <ellipse cx="49.327" cy="251.524" rx="5.319" ry="5.323" transform="rotate(173.571 49.327 251.524)"/>
            <ellipse cx="199.272" cy="106.486" rx="5.319" ry="5.323" transform="rotate(173.571 199.272 106.486)"/>
            <ellipse cx="161.342" cy="205.658" rx="5.319" ry="5.323" transform="rotate(173.571 161.342 205.658)"/>
            <ellipse cx="216.249" cy="204.894" rx="5.319" ry="5.323" transform="rotate(173.571 216.249 204.894)"/>
            <ellipse cx="41.301" cy="298.236" rx="5.319" ry="5.323" transform="rotate(173.571 41.3 298.236)"/>
            <ellipse cx="172.836" cy="281.004" rx="5.319" ry="5.323" transform="rotate(173.571 172.836 281.004)"/>
            <ellipse cx="133.093" cy="226.238" rx="5.319" ry="5.323" transform="rotate(173.571 133.093 226.238)"/>
            <ellipse cx="208.284" cy="157.194" rx="5.319" ry="5.323" transform="rotate(173.571 208.284 157.194)"/>
            <ellipse cx="229.024" cy="219.29" rx="5.319" ry="5.323" transform="rotate(173.571 229.024 219.29)"/>
            <ellipse cx="162.345" cy="196.96" rx="5.319" ry="5.323" transform="rotate(173.571 162.345 196.96)"/>
            <ellipse cx="254.714" cy="74.002" rx="5.319" ry="5.323" transform="rotate(173.571 254.714 74.002)"/>
            <ellipse cx="267.765" cy="120.268" rx="5.319" ry="5.323" transform="rotate(173.571 267.765 120.268)"/>
            <ellipse cx="226.167" cy="66.551" rx="5.319" ry="5.323" transform="rotate(173.571 226.167 66.551)"/>
            <ellipse cx="197.58" cy="192.968" rx="5.319" ry="5.323" transform="rotate(173.571 197.58 192.968)"/>
            <ellipse cx="283.415" cy="129.299" rx="5.319" ry="5.323" transform="rotate(173.571 283.415 129.299)"/>
            <ellipse cx="152.373" cy="245.535" rx="5.319" ry="5.323" transform="rotate(173.571 152.373 245.535)"/>
            <ellipse cx="151.043" cy="228.234" rx="5.319" ry="5.323" transform="rotate(173.571 151.043 228.234)"/>
            <ellipse cx="204.662" cy="43.772" rx="5.319" ry="5.323" transform="rotate(173.571 204.662 43.772)"/>
            <ellipse cx="288.326" cy="115.657" rx="5.319" ry="5.323" transform="rotate(173.571 288.326 115.657)"/>
            <ellipse cx="62.623" cy="228.234" rx="5.319" ry="5.323" transform="rotate(173.571 62.623 228.234)"/>
            <ellipse cx="237.62" cy="125.421" rx="5.319" ry="5.323" transform="rotate(173.571 237.62 125.42)"/>
            <ellipse cx="280.682" cy="200.287" rx="5.319" ry="5.323" transform="rotate(173.571 280.682 200.287)"/>
            <ellipse cx="66.565" cy="279.951" rx="5.319" ry="5.323" transform="rotate(173.571 66.565 279.95)"/>
            <ellipse cx="168.238" cy="233.523" rx="5.319" ry="5.323" transform="rotate(173.571 168.238 233.523)"/>
            <ellipse cx="143.085" cy="221.73" rx="5.319" ry="5.323" transform="rotate(173.571 143.085 221.73)"/>
            <ellipse cx="212.693" cy="224.524" rx="5.319" ry="5.323" transform="rotate(173.571 212.693 224.524)"/>
            <ellipse cx="184.949" cy="194.299" rx="5.319" ry="5.323" transform="rotate(173.571 184.949 194.299)"/>
            <ellipse cx="104.697" cy="261.729" rx="5.319" ry="5.323" transform="rotate(173.571 104.697 261.73)"/>
            <ellipse cx="220.576" cy="184.024" rx="5.319" ry="5.323" transform="rotate(173.571 220.576 184.024)"/>
            <ellipse cx="152.373" cy="139.678" rx="5.319" ry="5.323" transform="rotate(173.571 152.373 139.678)"/>
            <ellipse cx="156.953" cy="154.819" rx="5.319" ry="5.323" transform="rotate(173.571 156.953 154.82)"/>
            <ellipse cx="238.799" cy="182.321" rx="5.319" ry="5.323" transform="rotate(173.571 238.799 182.321)"/>
            <ellipse cx="257.431" cy="270.149" rx="5.319" ry="5.323" transform="rotate(173.571 257.43 270.149)"/>
            <ellipse cx="218.854" cy="140.401" rx="5.319" ry="5.323" transform="rotate(173.571 218.854 140.4)"/>
            <ellipse cx="139.122" cy="208.663" rx="5.319" ry="5.323" transform="rotate(173.571 139.122 208.663)"/>
            <ellipse cx="88.551" cy="264.832" rx="5.319" ry="5.323" transform="rotate(173.571 88.55 264.832)"/>
            <ellipse cx="257.146" cy="38.425" rx="5.319" ry="5.323" transform="rotate(173.571 257.146 38.425)"/>
            <ellipse cx="206.223" cy="200.287" rx="5.319" ry="5.323" transform="rotate(173.571 206.223 200.287)"/>
        </g>
    </g>
</svg>
