<svg xmlns="http://www.w3.org/2000/svg" width="360" height="182" viewBox="0 0 360 182">
    <g fill="#017ACE" fill-rule="nonzero">
        <path d="M157.256 20.8c5.745 0 10.397-4.654 10.397-10.4S163.001 0 157.256 0c-5.744 0-10.397 4.654-10.397 10.4s4.653 10.4 10.397 10.4zm0 5.2c-6.94 0-20.794 3.484-20.794 10.4v5.2h41.589v-5.2c0-6.916-13.855-10.4-20.795-10.4z" opacity=".94"/>
        <path d="M111.769 20.8c5.744 0 10.397-4.654 10.397-10.4S117.513 0 111.77 0c-5.744 0-10.397 4.654-10.397 10.4s4.653 10.4 10.397 10.4zm0 5.2c-6.94 0-20.794 3.484-20.794 10.4v5.2h41.588v-5.2c0-6.916-13.854-10.4-20.794-10.4z" opacity=".96"/>
        <path d="M66.282 20.8c5.744 0 10.397-4.654 10.397-10.4S72.026 0 66.282 0c-5.745 0-10.398 4.654-10.398 10.4s4.653 10.4 10.398 10.4zm0 5.2c-6.94 0-20.795 3.484-20.795 10.4v5.2h41.589v-5.2c0-6.916-13.854-10.4-20.794-10.4z" opacity=".98"/>
        <path d="M20.794 20.8c5.745 0 10.397-4.654 10.397-10.4S26.54 0 20.794 0C15.05 0 10.397 4.654 10.397 10.4s4.653 10.4 10.397 10.4zm0 5.2C13.854 26 0 29.484 0 36.4v5.2h41.588v-5.2c0-6.916-13.854-10.4-20.794-10.4z"/>
        <path d="M339.206 20.8c5.744 0 10.397-4.654 10.397-10.4S344.95 0 339.206 0c-5.745 0-10.397 4.654-10.397 10.4s4.652 10.4 10.397 10.4zm0 5.2c-6.94 0-20.794 3.484-20.794 10.4v5.2H360v-5.2c0-6.916-13.854-10.4-20.794-10.4z" opacity=".86"/>
        <path d="M293.718 20.8c5.745 0 10.398-4.654 10.398-10.4S299.463 0 293.718 0c-5.744 0-10.397 4.654-10.397 10.4s4.653 10.4 10.397 10.4zm0 5.2c-6.94 0-20.794 3.484-20.794 10.4v5.2h41.589v-5.2c0-6.916-13.855-10.4-20.795-10.4z" opacity=".88"/>
        <path d="M248.231 20.8c5.744 0 10.397-4.654 10.397-10.4S253.975 0 248.231 0c-5.744 0-10.397 4.654-10.397 10.4s4.653 10.4 10.397 10.4zm0 5.2c-6.94 0-20.794 3.484-20.794 10.4v5.2h41.588v-5.2c0-6.916-13.854-10.4-20.794-10.4z" opacity=".9"/>
        <path d="M202.744 20.8c5.744 0 10.397-4.654 10.397-10.4S208.488 0 202.744 0c-5.745 0-10.397 4.654-10.397 10.4s4.652 10.4 10.397 10.4zm0 5.2c-6.94 0-20.795 3.484-20.795 10.4v5.2h41.589v-5.2c0-6.916-13.854-10.4-20.794-10.4z" opacity=".92"/>
        <path d="M157.256 67.6c5.745 0 10.397-4.654 10.397-10.4s-4.652-10.4-10.397-10.4c-5.744 0-10.397 4.654-10.397 10.4s4.653 10.4 10.397 10.4zm0 5.2c-6.94 0-20.794 3.484-20.794 10.4v5.2h41.589v-5.2c0-6.916-13.855-10.4-20.795-10.4z" opacity=".78"/>
        <path d="M111.769 67.6c5.744 0 10.397-4.654 10.397-10.4s-4.653-10.4-10.397-10.4c-5.744 0-10.397 4.654-10.397 10.4s4.653 10.4 10.397 10.4zm0 5.2c-6.94 0-20.794 3.484-20.794 10.4v5.2h41.588v-5.2c0-6.916-13.854-10.4-20.794-10.4z" opacity=".8"/>
        <path d="M66.282 67.6c5.744 0 10.397-4.654 10.397-10.4s-4.653-10.4-10.397-10.4c-5.745 0-10.398 4.654-10.398 10.4s4.653 10.4 10.398 10.4zm0 5.2c-6.94 0-20.795 3.484-20.795 10.4v5.2h41.589v-5.2c0-6.916-13.854-10.4-20.794-10.4z" opacity=".82"/>
        <path d="M20.794 67.6c5.745 0 10.397-4.654 10.397-10.4S26.54 46.8 20.794 46.8c-5.744 0-10.397 4.654-10.397 10.4s4.653 10.4 10.397 10.4zm0 5.2C13.854 72.8 0 76.284 0 83.2v5.2h41.588v-5.2c0-6.916-13.854-10.4-20.794-10.4z" opacity=".84"/>
        <path d="M339.206 67.6c5.744 0 10.397-4.654 10.397-10.4s-4.653-10.4-10.397-10.4c-5.745 0-10.397 4.654-10.397 10.4s4.652 10.4 10.397 10.4zm0 5.2c-6.94 0-20.794 3.484-20.794 10.4v5.2H360v-5.2c0-6.916-13.854-10.4-20.794-10.4z" opacity=".7"/>
        <path d="M293.718 67.6c5.745 0 10.398-4.654 10.398-10.4s-4.653-10.4-10.398-10.4c-5.744 0-10.397 4.654-10.397 10.4s4.653 10.4 10.397 10.4zm0 5.2c-6.94 0-20.794 3.484-20.794 10.4v5.2h41.589v-5.2c0-6.916-13.855-10.4-20.795-10.4z" opacity=".72"/>
        <path d="M248.231 67.6c5.744 0 10.397-4.654 10.397-10.4s-4.653-10.4-10.397-10.4c-5.744 0-10.397 4.654-10.397 10.4s4.653 10.4 10.397 10.4zm0 5.2c-6.94 0-20.794 3.484-20.794 10.4v5.2h41.588v-5.2c0-6.916-13.854-10.4-20.794-10.4z" opacity=".74"/>
        <path d="M202.744 67.6c5.744 0 10.397-4.654 10.397-10.4s-4.653-10.4-10.397-10.4c-5.745 0-10.397 4.654-10.397 10.4s4.652 10.4 10.397 10.4zm0 5.2c-6.94 0-20.795 3.484-20.795 10.4v5.2h41.589v-5.2c0-6.916-13.854-10.4-20.794-10.4z" opacity=".76"/>
        <path d="M157.256 114.4c5.745 0 10.397-4.654 10.397-10.4s-4.652-10.4-10.397-10.4c-5.744 0-10.397 4.654-10.397 10.4s4.653 10.4 10.397 10.4zm0 5.2c-6.94 0-20.794 3.484-20.794 10.4v5.2h41.589V130c0-6.916-13.855-10.4-20.795-10.4z" opacity=".62"/>
        <path d="M111.769 114.4c5.744 0 10.397-4.654 10.397-10.4s-4.653-10.4-10.397-10.4c-5.744 0-10.397 4.654-10.397 10.4s4.653 10.4 10.397 10.4zm0 5.2c-6.94 0-20.794 3.484-20.794 10.4v5.2h41.588V130c0-6.916-13.854-10.4-20.794-10.4z" opacity=".64"/>
        <path d="M66.282 114.4c5.744 0 10.397-4.654 10.397-10.4s-4.653-10.4-10.397-10.4c-5.745 0-10.398 4.654-10.398 10.4s4.653 10.4 10.398 10.4zm0 5.2c-6.94 0-20.795 3.484-20.795 10.4v5.2h41.589V130c0-6.916-13.854-10.4-20.794-10.4z" opacity=".66"/>
        <path d="M20.794 114.4c5.745 0 10.397-4.654 10.397-10.4S26.54 93.6 20.794 93.6c-5.744 0-10.397 4.654-10.397 10.4s4.653 10.4 10.397 10.4zm0 5.2C13.854 119.6 0 123.084 0 130v5.2h41.588V130c0-6.916-13.854-10.4-20.794-10.4z" opacity=".68"/>
        <path d="M339.206 114.4c5.744 0 10.397-4.654 10.397-10.4s-4.653-10.4-10.397-10.4c-5.745 0-10.397 4.654-10.397 10.4s4.652 10.4 10.397 10.4zm0 5.2c-6.94 0-20.794 3.484-20.794 10.4v5.2H360V130c0-6.916-13.854-10.4-20.794-10.4z" opacity=".54"/>
        <path d="M293.718 114.4c5.745 0 10.398-4.654 10.398-10.4s-4.653-10.4-10.398-10.4c-5.744 0-10.397 4.654-10.397 10.4s4.653 10.4 10.397 10.4zm0 5.2c-6.94 0-20.794 3.484-20.794 10.4v5.2h41.589V130c0-6.916-13.855-10.4-20.795-10.4z" opacity=".56"/>
        <path d="M248.231 114.4c5.744 0 10.397-4.654 10.397-10.4s-4.653-10.4-10.397-10.4c-5.744 0-10.397 4.654-10.397 10.4s4.653 10.4 10.397 10.4zm0 5.2c-6.94 0-20.794 3.484-20.794 10.4v5.2h41.588V130c0-6.916-13.854-10.4-20.794-10.4z" opacity=".58"/>
        <path d="M202.744 114.4c5.744 0 10.397-4.654 10.397-10.4s-4.653-10.4-10.397-10.4c-5.745 0-10.397 4.654-10.397 10.4s4.652 10.4 10.397 10.4zm0 5.2c-6.94 0-20.795 3.484-20.795 10.4v5.2h41.589V130c0-6.916-13.854-10.4-20.794-10.4z" opacity=".6"/>
        <path d="M157.256 161.2c5.745 0 10.397-4.654 10.397-10.4s-4.652-10.4-10.397-10.4c-5.744 0-10.397 4.654-10.397 10.4s4.653 10.4 10.397 10.4zm0 5.2c-6.94 0-20.794 3.484-20.794 10.4v5.2h41.589v-5.2c0-6.916-13.855-10.4-20.795-10.4z" opacity=".46"/>
        <path d="M111.769 161.2c5.744 0 10.397-4.654 10.397-10.4s-4.653-10.4-10.397-10.4c-5.744 0-10.397 4.654-10.397 10.4s4.653 10.4 10.397 10.4zm0 5.2c-6.94 0-20.794 3.484-20.794 10.4v5.2h41.588v-5.2c0-6.916-13.854-10.4-20.794-10.4z" opacity=".48"/>
        <path d="M66.282 161.2c5.744 0 10.397-4.654 10.397-10.4s-4.653-10.4-10.397-10.4c-5.745 0-10.398 4.654-10.398 10.4s4.653 10.4 10.398 10.4zm0 5.2c-6.94 0-20.795 3.484-20.795 10.4v5.2h41.589v-5.2c0-6.916-13.854-10.4-20.794-10.4z" opacity=".5"/>
        <path d="M20.794 161.2c5.745 0 10.397-4.654 10.397-10.4s-4.652-10.4-10.397-10.4c-5.744 0-10.397 4.654-10.397 10.4s4.653 10.4 10.397 10.4zm0 5.2C13.854 166.4 0 169.884 0 176.8v5.2h41.588v-5.2c0-6.916-13.854-10.4-20.794-10.4z" opacity=".52"/>
        <path d="M339.206 161.2c5.744 0 10.397-4.654 10.397-10.4s-4.653-10.4-10.397-10.4c-5.745 0-10.397 4.654-10.397 10.4s4.652 10.4 10.397 10.4zm0 5.2c-6.94 0-20.794 3.484-20.794 10.4v5.2H360v-5.2c0-6.916-13.854-10.4-20.794-10.4z" opacity=".38"/>
        <path d="M293.718 161.2c5.745 0 10.398-4.654 10.398-10.4s-4.653-10.4-10.398-10.4c-5.744 0-10.397 4.654-10.397 10.4s4.653 10.4 10.397 10.4zm0 5.2c-6.94 0-20.794 3.484-20.794 10.4v5.2h41.589v-5.2c0-6.916-13.855-10.4-20.795-10.4z" opacity=".4"/>
        <path d="M248.231 161.2c5.744 0 10.397-4.654 10.397-10.4s-4.653-10.4-10.397-10.4c-5.744 0-10.397 4.654-10.397 10.4s4.653 10.4 10.397 10.4zm0 5.2c-6.94 0-20.794 3.484-20.794 10.4v5.2h41.588v-5.2c0-6.916-13.854-10.4-20.794-10.4z" opacity=".42"/>
        <path d="M202.744 161.2c5.744 0 10.397-4.654 10.397-10.4s-4.653-10.4-10.397-10.4c-5.745 0-10.397 4.654-10.397 10.4s4.652 10.4 10.397 10.4zm0 5.2c-6.94 0-20.795 3.484-20.795 10.4v5.2h41.589v-5.2c0-6.916-13.854-10.4-20.794-10.4z" opacity=".44"/>
    </g>
</svg>
