<?xml version="1.0" encoding="UTF-8"?>
<svg width="23px" height="24px" viewBox="0 0 23 24" version="1.1" xmlns="http://www.w3.org/2000/svg" xmlns:xlink="http://www.w3.org/1999/xlink">
    <!-- Generator: Sketch 52.6 (67491) - http://www.bohemiancoding.com/sketch -->
    <title>Fill 1</title>
    <desc>Created with Sketch.</desc>
    <g id="Symbols" stroke="none" stroke-width="1" fill="none" fill-rule="evenodd">
        <g id="nav/public/home" transform="translate(-1247.000000, -21.000000)" fill="#FFFFFF" stroke="#FFFFFF" stroke-width="0.1">
            <g id="nav">
                <path d="M1257.6016,38.3250917 C1258.118,37.9484297 1258.882,37.9489595 1259.3984,38.3250917 L1264.18595,41.8167641 L1262.34144,36.188025 C1262.14262,35.5809158 1262.37961,34.8551396 1262.89654,34.4811264 L1267.7,31.0101148 L1261.77255,31.0233589 C1261.13315,31.0244184 1260.51496,30.5757085 1260.31932,29.9680696 L1258.49973,24.331384 L1256.68068,29.9680696 C1256.48451,30.5762383 1255.86632,31.0244184 1255.22692,31.0233589 L1249.3,31.0101148 L1254.10293,34.4811264 C1254.62092,34.8551396 1254.85685,35.5814456 1254.65803,36.188025 L1252.81405,41.8167641 L1257.6016,38.3250917 Z M1253.40513,43.6397409 C1251.81185,44.8118233 1250.48349,43.836261 1251.09662,41.9495602 L1253.05854,35.9104935 L1247.94767,32.1863573 C1246.34901,31.0218542 1246.85951,29.4475282 1248.82948,29.4518592 L1255.13706,29.4659351 L1257.07318,23.417665 C1257.67879,21.5260918 1259.32258,21.5287987 1259.92712,23.417665 L1261.86324,29.4659351 L1268.17081,29.4518592 C1270.14294,29.4475282 1270.64914,31.0229369 1269.05263,32.1863573 L1263.94122,35.9104935 L1265.90421,41.9495602 C1266.51735,43.8384265 1265.1863,44.8101992 1263.59516,43.6397409 L1258.49988,39.8934082 L1253.40513,43.6397409 Z M1258.51988,39.4853801 L1258.5,39.4999973 C1258.50537,39.4962077 1258.51182,39.4913353 1258.51988,39.4853801 Z M1252.75752,35.9883041 C1252.7543,35.9975075 1252.75161,36.0050868 1252.75,36.0115833 L1252.75752,35.9883041 Z M1252.76988,36.0029213 L1252.75,35.9883041 C1252.75537,35.9920937 1252.76182,35.9969661 1252.76988,36.0029213 Z M1255.07418,28.9943927 C1255.06451,28.9943927 1255.05645,28.9938513 1255.05,28.9943927 L1255.07418,28.9943927 Z M1255.05,29.0168899 L1255.05699,28.994152 C1255.05484,29.0001072 1255.05322,29.0076865 1255.05,29.0168899 Z M1261.95752,29.0168899 L1261.95,28.994152 C1261.95215,29.0001072 1261.95484,29.0076865 1261.95752,29.0168899 Z" id="Fill-1"></path>
            </g>
        </g>
    </g>
</svg>